%TF.GenerationSoftware,KiCad,Pcbnew,8.0.0*%
%TF.CreationDate,2024-03-11T16:38:20+11:00*%
%TF.ProjectId,split-flap-units,73706c69-742d-4666-9c61-702d756e6974,rev?*%
%TF.SameCoordinates,Original*%
%TF.FileFunction,Legend,Bot*%
%TF.FilePolarity,Positive*%
%FSLAX46Y46*%
G04 Gerber Fmt 4.6, Leading zero omitted, Abs format (unit mm)*
G04 Created by KiCad (PCBNEW 8.0.0) date 2024-03-11 16:38:20*
%MOMM*%
%LPD*%
G01*
G04 APERTURE LIST*
G04 Aperture macros list*
%AMRoundRect*
0 Rectangle with rounded corners*
0 $1 Rounding radius*
0 $2 $3 $4 $5 $6 $7 $8 $9 X,Y pos of 4 corners*
0 Add a 4 corners polygon primitive as box body*
4,1,4,$2,$3,$4,$5,$6,$7,$8,$9,$2,$3,0*
0 Add four circle primitives for the rounded corners*
1,1,$1+$1,$2,$3*
1,1,$1+$1,$4,$5*
1,1,$1+$1,$6,$7*
1,1,$1+$1,$8,$9*
0 Add four rect primitives between the rounded corners*
20,1,$1+$1,$2,$3,$4,$5,0*
20,1,$1+$1,$4,$5,$6,$7,0*
20,1,$1+$1,$6,$7,$8,$9,0*
20,1,$1+$1,$8,$9,$2,$3,0*%
G04 Aperture macros list end*
%ADD10C,0.150000*%
%ADD11C,0.300000*%
%ADD12C,0.250000*%
%ADD13R,1.600000X1.600000*%
%ADD14O,1.600000X1.600000*%
%ADD15RoundRect,0.250000X-0.600000X-0.725000X0.600000X-0.725000X0.600000X0.725000X-0.600000X0.725000X0*%
%ADD16O,1.700000X1.950000*%
%ADD17R,1.700000X1.700000*%
%ADD18O,1.700000X1.700000*%
%ADD19C,1.600000*%
%ADD20C,6.400000*%
%ADD21RoundRect,0.250000X-0.600000X-0.600000X0.600000X-0.600000X0.600000X0.600000X-0.600000X0.600000X0*%
%ADD22C,1.700000*%
G04 APERTURE END LIST*
D10*
X120650000Y-82346800D02*
X116560600Y-82346800D01*
X99034600Y-82346800D02*
X94945200Y-82346800D01*
X163906200Y-82346800D02*
X159816800Y-82346800D01*
X142265400Y-82346800D02*
X138176000Y-82346800D01*
D11*
X93116917Y-89775400D02*
X93002631Y-89832542D01*
X93002631Y-89832542D02*
X92774060Y-89832542D01*
X92774060Y-89832542D02*
X92659774Y-89775400D01*
X92659774Y-89775400D02*
X92602631Y-89661114D01*
X92602631Y-89661114D02*
X92602631Y-89603971D01*
X92602631Y-89603971D02*
X92659774Y-89489685D01*
X92659774Y-89489685D02*
X92774060Y-89432542D01*
X92774060Y-89432542D02*
X92945489Y-89432542D01*
X92945489Y-89432542D02*
X93059774Y-89375400D01*
X93059774Y-89375400D02*
X93116917Y-89261114D01*
X93116917Y-89261114D02*
X93116917Y-89203971D01*
X93116917Y-89203971D02*
X93059774Y-89089685D01*
X93059774Y-89089685D02*
X92945489Y-89032542D01*
X92945489Y-89032542D02*
X92774060Y-89032542D01*
X92774060Y-89032542D02*
X92659774Y-89089685D01*
X157874060Y-89780400D02*
X157759774Y-89837542D01*
X157759774Y-89837542D02*
X157531203Y-89837542D01*
X157531203Y-89837542D02*
X157416917Y-89780400D01*
X157416917Y-89780400D02*
X157359774Y-89666114D01*
X157359774Y-89666114D02*
X157359774Y-89608971D01*
X157359774Y-89608971D02*
X157416917Y-89494685D01*
X157416917Y-89494685D02*
X157531203Y-89437542D01*
X157531203Y-89437542D02*
X157702632Y-89437542D01*
X157702632Y-89437542D02*
X157816917Y-89380400D01*
X157816917Y-89380400D02*
X157874060Y-89266114D01*
X157874060Y-89266114D02*
X157874060Y-89208971D01*
X157874060Y-89208971D02*
X157816917Y-89094685D01*
X157816917Y-89094685D02*
X157702632Y-89037542D01*
X157702632Y-89037542D02*
X157531203Y-89037542D01*
X157531203Y-89037542D02*
X157416917Y-89094685D01*
D12*
X144399812Y-126240142D02*
X144399812Y-125040142D01*
X144399812Y-125040142D02*
X143999812Y-125897285D01*
X143999812Y-125897285D02*
X143599812Y-125040142D01*
X143599812Y-125040142D02*
X143599812Y-126240142D01*
X142799812Y-125668714D02*
X142799812Y-126240142D01*
X143199812Y-125040142D02*
X142799812Y-125668714D01*
X142799812Y-125668714D02*
X142399812Y-125040142D01*
X141542669Y-126183000D02*
X141656955Y-126240142D01*
X141656955Y-126240142D02*
X141885527Y-126240142D01*
X141885527Y-126240142D02*
X141999812Y-126183000D01*
X141999812Y-126183000D02*
X142056955Y-126068714D01*
X142056955Y-126068714D02*
X142056955Y-125611571D01*
X142056955Y-125611571D02*
X141999812Y-125497285D01*
X141999812Y-125497285D02*
X141885527Y-125440142D01*
X141885527Y-125440142D02*
X141656955Y-125440142D01*
X141656955Y-125440142D02*
X141542669Y-125497285D01*
X141542669Y-125497285D02*
X141485527Y-125611571D01*
X141485527Y-125611571D02*
X141485527Y-125725857D01*
X141485527Y-125725857D02*
X142056955Y-125840142D01*
X140799813Y-126240142D02*
X140914098Y-126183000D01*
X140914098Y-126183000D02*
X140971241Y-126125857D01*
X140971241Y-126125857D02*
X141028384Y-126011571D01*
X141028384Y-126011571D02*
X141028384Y-125668714D01*
X141028384Y-125668714D02*
X140971241Y-125554428D01*
X140971241Y-125554428D02*
X140914098Y-125497285D01*
X140914098Y-125497285D02*
X140799813Y-125440142D01*
X140799813Y-125440142D02*
X140628384Y-125440142D01*
X140628384Y-125440142D02*
X140514098Y-125497285D01*
X140514098Y-125497285D02*
X140456956Y-125554428D01*
X140456956Y-125554428D02*
X140399813Y-125668714D01*
X140399813Y-125668714D02*
X140399813Y-126011571D01*
X140399813Y-126011571D02*
X140456956Y-126125857D01*
X140456956Y-126125857D02*
X140514098Y-126183000D01*
X140514098Y-126183000D02*
X140628384Y-126240142D01*
X140628384Y-126240142D02*
X140799813Y-126240142D01*
X139885527Y-126240142D02*
X139885527Y-125440142D01*
X139885527Y-125554428D02*
X139828384Y-125497285D01*
X139828384Y-125497285D02*
X139714099Y-125440142D01*
X139714099Y-125440142D02*
X139542670Y-125440142D01*
X139542670Y-125440142D02*
X139428384Y-125497285D01*
X139428384Y-125497285D02*
X139371242Y-125611571D01*
X139371242Y-125611571D02*
X139371242Y-126240142D01*
X139371242Y-125611571D02*
X139314099Y-125497285D01*
X139314099Y-125497285D02*
X139199813Y-125440142D01*
X139199813Y-125440142D02*
X139028384Y-125440142D01*
X139028384Y-125440142D02*
X138914099Y-125497285D01*
X138914099Y-125497285D02*
X138856956Y-125611571D01*
X138856956Y-125611571D02*
X138856956Y-126240142D01*
X137771242Y-126240142D02*
X137771242Y-125611571D01*
X137771242Y-125611571D02*
X137828384Y-125497285D01*
X137828384Y-125497285D02*
X137942670Y-125440142D01*
X137942670Y-125440142D02*
X138171242Y-125440142D01*
X138171242Y-125440142D02*
X138285527Y-125497285D01*
X137771242Y-126183000D02*
X137885527Y-126240142D01*
X137885527Y-126240142D02*
X138171242Y-126240142D01*
X138171242Y-126240142D02*
X138285527Y-126183000D01*
X138285527Y-126183000D02*
X138342670Y-126068714D01*
X138342670Y-126068714D02*
X138342670Y-125954428D01*
X138342670Y-125954428D02*
X138285527Y-125840142D01*
X138285527Y-125840142D02*
X138171242Y-125783000D01*
X138171242Y-125783000D02*
X137885527Y-125783000D01*
X137885527Y-125783000D02*
X137771242Y-125725857D01*
X137199813Y-125440142D02*
X137199813Y-126240142D01*
X137199813Y-125554428D02*
X137142670Y-125497285D01*
X137142670Y-125497285D02*
X137028385Y-125440142D01*
X137028385Y-125440142D02*
X136856956Y-125440142D01*
X136856956Y-125440142D02*
X136742670Y-125497285D01*
X136742670Y-125497285D02*
X136685528Y-125611571D01*
X136685528Y-125611571D02*
X136685528Y-126240142D01*
X135256956Y-125154428D02*
X135199813Y-125097285D01*
X135199813Y-125097285D02*
X135085528Y-125040142D01*
X135085528Y-125040142D02*
X134799813Y-125040142D01*
X134799813Y-125040142D02*
X134685528Y-125097285D01*
X134685528Y-125097285D02*
X134628385Y-125154428D01*
X134628385Y-125154428D02*
X134571242Y-125268714D01*
X134571242Y-125268714D02*
X134571242Y-125383000D01*
X134571242Y-125383000D02*
X134628385Y-125554428D01*
X134628385Y-125554428D02*
X135314099Y-126240142D01*
X135314099Y-126240142D02*
X134571242Y-126240142D01*
X133828385Y-125040142D02*
X133714099Y-125040142D01*
X133714099Y-125040142D02*
X133599813Y-125097285D01*
X133599813Y-125097285D02*
X133542671Y-125154428D01*
X133542671Y-125154428D02*
X133485528Y-125268714D01*
X133485528Y-125268714D02*
X133428385Y-125497285D01*
X133428385Y-125497285D02*
X133428385Y-125783000D01*
X133428385Y-125783000D02*
X133485528Y-126011571D01*
X133485528Y-126011571D02*
X133542671Y-126125857D01*
X133542671Y-126125857D02*
X133599813Y-126183000D01*
X133599813Y-126183000D02*
X133714099Y-126240142D01*
X133714099Y-126240142D02*
X133828385Y-126240142D01*
X133828385Y-126240142D02*
X133942671Y-126183000D01*
X133942671Y-126183000D02*
X133999813Y-126125857D01*
X133999813Y-126125857D02*
X134056956Y-126011571D01*
X134056956Y-126011571D02*
X134114099Y-125783000D01*
X134114099Y-125783000D02*
X134114099Y-125497285D01*
X134114099Y-125497285D02*
X134056956Y-125268714D01*
X134056956Y-125268714D02*
X133999813Y-125154428D01*
X133999813Y-125154428D02*
X133942671Y-125097285D01*
X133942671Y-125097285D02*
X133828385Y-125040142D01*
X132971242Y-125154428D02*
X132914099Y-125097285D01*
X132914099Y-125097285D02*
X132799814Y-125040142D01*
X132799814Y-125040142D02*
X132514099Y-125040142D01*
X132514099Y-125040142D02*
X132399814Y-125097285D01*
X132399814Y-125097285D02*
X132342671Y-125154428D01*
X132342671Y-125154428D02*
X132285528Y-125268714D01*
X132285528Y-125268714D02*
X132285528Y-125383000D01*
X132285528Y-125383000D02*
X132342671Y-125554428D01*
X132342671Y-125554428D02*
X133028385Y-126240142D01*
X133028385Y-126240142D02*
X132285528Y-126240142D01*
X131885528Y-125040142D02*
X131142671Y-125040142D01*
X131142671Y-125040142D02*
X131542671Y-125497285D01*
X131542671Y-125497285D02*
X131371242Y-125497285D01*
X131371242Y-125497285D02*
X131256957Y-125554428D01*
X131256957Y-125554428D02*
X131199814Y-125611571D01*
X131199814Y-125611571D02*
X131142671Y-125725857D01*
X131142671Y-125725857D02*
X131142671Y-126011571D01*
X131142671Y-126011571D02*
X131199814Y-126125857D01*
X131199814Y-126125857D02*
X131256957Y-126183000D01*
X131256957Y-126183000D02*
X131371242Y-126240142D01*
X131371242Y-126240142D02*
X131714099Y-126240142D01*
X131714099Y-126240142D02*
X131828385Y-126183000D01*
X131828385Y-126183000D02*
X131885528Y-126125857D01*
X129771242Y-124983000D02*
X130799814Y-126525857D01*
X128742671Y-126240142D02*
X129428385Y-126240142D01*
X129085528Y-126240142D02*
X129085528Y-125040142D01*
X129085528Y-125040142D02*
X129199814Y-125211571D01*
X129199814Y-125211571D02*
X129314099Y-125325857D01*
X129314099Y-125325857D02*
X129428385Y-125383000D01*
X128285528Y-125154428D02*
X128228385Y-125097285D01*
X128228385Y-125097285D02*
X128114100Y-125040142D01*
X128114100Y-125040142D02*
X127828385Y-125040142D01*
X127828385Y-125040142D02*
X127714100Y-125097285D01*
X127714100Y-125097285D02*
X127656957Y-125154428D01*
X127656957Y-125154428D02*
X127599814Y-125268714D01*
X127599814Y-125268714D02*
X127599814Y-125383000D01*
X127599814Y-125383000D02*
X127656957Y-125554428D01*
X127656957Y-125554428D02*
X128342671Y-126240142D01*
X128342671Y-126240142D02*
X127599814Y-126240142D01*
X126285528Y-125440142D02*
X125999814Y-126240142D01*
X125999814Y-126240142D02*
X125714099Y-125440142D01*
X125314099Y-125154428D02*
X125256956Y-125097285D01*
X125256956Y-125097285D02*
X125142671Y-125040142D01*
X125142671Y-125040142D02*
X124856956Y-125040142D01*
X124856956Y-125040142D02*
X124742671Y-125097285D01*
X124742671Y-125097285D02*
X124685528Y-125154428D01*
X124685528Y-125154428D02*
X124628385Y-125268714D01*
X124628385Y-125268714D02*
X124628385Y-125383000D01*
X124628385Y-125383000D02*
X124685528Y-125554428D01*
X124685528Y-125554428D02*
X125371242Y-126240142D01*
X125371242Y-126240142D02*
X124628385Y-126240142D01*
X124114099Y-126125857D02*
X124056956Y-126183000D01*
X124056956Y-126183000D02*
X124114099Y-126240142D01*
X124114099Y-126240142D02*
X124171242Y-126183000D01*
X124171242Y-126183000D02*
X124114099Y-126125857D01*
X124114099Y-126125857D02*
X124114099Y-126240142D01*
X122914099Y-126240142D02*
X123599813Y-126240142D01*
X123256956Y-126240142D02*
X123256956Y-125040142D01*
X123256956Y-125040142D02*
X123371242Y-125211571D01*
X123371242Y-125211571D02*
X123485527Y-125325857D01*
X123485527Y-125325857D02*
X123599813Y-125383000D01*
D11*
X114774060Y-89680400D02*
X114659774Y-89737542D01*
X114659774Y-89737542D02*
X114431203Y-89737542D01*
X114431203Y-89737542D02*
X114316917Y-89680400D01*
X114316917Y-89680400D02*
X114259774Y-89566114D01*
X114259774Y-89566114D02*
X114259774Y-89508971D01*
X114259774Y-89508971D02*
X114316917Y-89394685D01*
X114316917Y-89394685D02*
X114431203Y-89337542D01*
X114431203Y-89337542D02*
X114602632Y-89337542D01*
X114602632Y-89337542D02*
X114716917Y-89280400D01*
X114716917Y-89280400D02*
X114774060Y-89166114D01*
X114774060Y-89166114D02*
X114774060Y-89108971D01*
X114774060Y-89108971D02*
X114716917Y-88994685D01*
X114716917Y-88994685D02*
X114602632Y-88937542D01*
X114602632Y-88937542D02*
X114431203Y-88937542D01*
X114431203Y-88937542D02*
X114316917Y-88994685D01*
X136374060Y-89780400D02*
X136259774Y-89837542D01*
X136259774Y-89837542D02*
X136031203Y-89837542D01*
X136031203Y-89837542D02*
X135916917Y-89780400D01*
X135916917Y-89780400D02*
X135859774Y-89666114D01*
X135859774Y-89666114D02*
X135859774Y-89608971D01*
X135859774Y-89608971D02*
X135916917Y-89494685D01*
X135916917Y-89494685D02*
X136031203Y-89437542D01*
X136031203Y-89437542D02*
X136202632Y-89437542D01*
X136202632Y-89437542D02*
X136316917Y-89380400D01*
X136316917Y-89380400D02*
X136374060Y-89266114D01*
X136374060Y-89266114D02*
X136374060Y-89208971D01*
X136374060Y-89208971D02*
X136316917Y-89094685D01*
X136316917Y-89094685D02*
X136202632Y-89037542D01*
X136202632Y-89037542D02*
X136031203Y-89037542D01*
X136031203Y-89037542D02*
X135916917Y-89094685D01*
D10*
X132061904Y-82854819D02*
X132061904Y-82188152D01*
X132061904Y-82283390D02*
X132014285Y-82235771D01*
X132014285Y-82235771D02*
X131919047Y-82188152D01*
X131919047Y-82188152D02*
X131776190Y-82188152D01*
X131776190Y-82188152D02*
X131680952Y-82235771D01*
X131680952Y-82235771D02*
X131633333Y-82331009D01*
X131633333Y-82331009D02*
X131633333Y-82854819D01*
X131633333Y-82331009D02*
X131585714Y-82235771D01*
X131585714Y-82235771D02*
X131490476Y-82188152D01*
X131490476Y-82188152D02*
X131347619Y-82188152D01*
X131347619Y-82188152D02*
X131252380Y-82235771D01*
X131252380Y-82235771D02*
X131204761Y-82331009D01*
X131204761Y-82331009D02*
X131204761Y-82854819D01*
X130585714Y-82854819D02*
X130680952Y-82807200D01*
X130680952Y-82807200D02*
X130728571Y-82759580D01*
X130728571Y-82759580D02*
X130776190Y-82664342D01*
X130776190Y-82664342D02*
X130776190Y-82378628D01*
X130776190Y-82378628D02*
X130728571Y-82283390D01*
X130728571Y-82283390D02*
X130680952Y-82235771D01*
X130680952Y-82235771D02*
X130585714Y-82188152D01*
X130585714Y-82188152D02*
X130442857Y-82188152D01*
X130442857Y-82188152D02*
X130347619Y-82235771D01*
X130347619Y-82235771D02*
X130300000Y-82283390D01*
X130300000Y-82283390D02*
X130252381Y-82378628D01*
X130252381Y-82378628D02*
X130252381Y-82664342D01*
X130252381Y-82664342D02*
X130300000Y-82759580D01*
X130300000Y-82759580D02*
X130347619Y-82807200D01*
X130347619Y-82807200D02*
X130442857Y-82854819D01*
X130442857Y-82854819D02*
X130585714Y-82854819D01*
X129966666Y-82188152D02*
X129585714Y-82188152D01*
X129823809Y-81854819D02*
X129823809Y-82711961D01*
X129823809Y-82711961D02*
X129776190Y-82807200D01*
X129776190Y-82807200D02*
X129680952Y-82854819D01*
X129680952Y-82854819D02*
X129585714Y-82854819D01*
X129109523Y-82854819D02*
X129204761Y-82807200D01*
X129204761Y-82807200D02*
X129252380Y-82759580D01*
X129252380Y-82759580D02*
X129299999Y-82664342D01*
X129299999Y-82664342D02*
X129299999Y-82378628D01*
X129299999Y-82378628D02*
X129252380Y-82283390D01*
X129252380Y-82283390D02*
X129204761Y-82235771D01*
X129204761Y-82235771D02*
X129109523Y-82188152D01*
X129109523Y-82188152D02*
X128966666Y-82188152D01*
X128966666Y-82188152D02*
X128871428Y-82235771D01*
X128871428Y-82235771D02*
X128823809Y-82283390D01*
X128823809Y-82283390D02*
X128776190Y-82378628D01*
X128776190Y-82378628D02*
X128776190Y-82664342D01*
X128776190Y-82664342D02*
X128823809Y-82759580D01*
X128823809Y-82759580D02*
X128871428Y-82807200D01*
X128871428Y-82807200D02*
X128966666Y-82854819D01*
X128966666Y-82854819D02*
X129109523Y-82854819D01*
X128347618Y-82854819D02*
X128347618Y-82188152D01*
X128347618Y-82378628D02*
X128299999Y-82283390D01*
X128299999Y-82283390D02*
X128252380Y-82235771D01*
X128252380Y-82235771D02*
X128157142Y-82188152D01*
X128157142Y-82188152D02*
X128061904Y-82188152D01*
X127014284Y-81950057D02*
X126966665Y-81902438D01*
X126966665Y-81902438D02*
X126871427Y-81854819D01*
X126871427Y-81854819D02*
X126633332Y-81854819D01*
X126633332Y-81854819D02*
X126538094Y-81902438D01*
X126538094Y-81902438D02*
X126490475Y-81950057D01*
X126490475Y-81950057D02*
X126442856Y-82045295D01*
X126442856Y-82045295D02*
X126442856Y-82140533D01*
X126442856Y-82140533D02*
X126490475Y-82283390D01*
X126490475Y-82283390D02*
X127061903Y-82854819D01*
X127061903Y-82854819D02*
X126442856Y-82854819D01*
X125299999Y-81807200D02*
X126157141Y-83092914D01*
X124538094Y-81854819D02*
X124728570Y-81854819D01*
X124728570Y-81854819D02*
X124823808Y-81902438D01*
X124823808Y-81902438D02*
X124871427Y-81950057D01*
X124871427Y-81950057D02*
X124966665Y-82092914D01*
X124966665Y-82092914D02*
X125014284Y-82283390D01*
X125014284Y-82283390D02*
X125014284Y-82664342D01*
X125014284Y-82664342D02*
X124966665Y-82759580D01*
X124966665Y-82759580D02*
X124919046Y-82807200D01*
X124919046Y-82807200D02*
X124823808Y-82854819D01*
X124823808Y-82854819D02*
X124633332Y-82854819D01*
X124633332Y-82854819D02*
X124538094Y-82807200D01*
X124538094Y-82807200D02*
X124490475Y-82759580D01*
X124490475Y-82759580D02*
X124442856Y-82664342D01*
X124442856Y-82664342D02*
X124442856Y-82426247D01*
X124442856Y-82426247D02*
X124490475Y-82331009D01*
X124490475Y-82331009D02*
X124538094Y-82283390D01*
X124538094Y-82283390D02*
X124633332Y-82235771D01*
X124633332Y-82235771D02*
X124823808Y-82235771D01*
X124823808Y-82235771D02*
X124919046Y-82283390D01*
X124919046Y-82283390D02*
X124966665Y-82331009D01*
X124966665Y-82331009D02*
X125014284Y-82426247D01*
X123299999Y-81807200D02*
X124157141Y-83092914D01*
X122442856Y-82854819D02*
X123014284Y-82854819D01*
X122728570Y-82854819D02*
X122728570Y-81854819D01*
X122728570Y-81854819D02*
X122823808Y-81997676D01*
X122823808Y-81997676D02*
X122919046Y-82092914D01*
X122919046Y-82092914D02*
X123014284Y-82140533D01*
X121823808Y-81854819D02*
X121728570Y-81854819D01*
X121728570Y-81854819D02*
X121633332Y-81902438D01*
X121633332Y-81902438D02*
X121585713Y-81950057D01*
X121585713Y-81950057D02*
X121538094Y-82045295D01*
X121538094Y-82045295D02*
X121490475Y-82235771D01*
X121490475Y-82235771D02*
X121490475Y-82473866D01*
X121490475Y-82473866D02*
X121538094Y-82664342D01*
X121538094Y-82664342D02*
X121585713Y-82759580D01*
X121585713Y-82759580D02*
X121633332Y-82807200D01*
X121633332Y-82807200D02*
X121728570Y-82854819D01*
X121728570Y-82854819D02*
X121823808Y-82854819D01*
X121823808Y-82854819D02*
X121919046Y-82807200D01*
X121919046Y-82807200D02*
X121966665Y-82759580D01*
X121966665Y-82759580D02*
X122014284Y-82664342D01*
X122014284Y-82664342D02*
X122061903Y-82473866D01*
X122061903Y-82473866D02*
X122061903Y-82235771D01*
X122061903Y-82235771D02*
X122014284Y-82045295D01*
X122014284Y-82045295D02*
X121966665Y-81950057D01*
X121966665Y-81950057D02*
X121919046Y-81902438D01*
X121919046Y-81902438D02*
X121823808Y-81854819D01*
X129014285Y-92802438D02*
X129109523Y-92754819D01*
X129109523Y-92754819D02*
X129252380Y-92754819D01*
X129252380Y-92754819D02*
X129395237Y-92802438D01*
X129395237Y-92802438D02*
X129490475Y-92897676D01*
X129490475Y-92897676D02*
X129538094Y-92992914D01*
X129538094Y-92992914D02*
X129585713Y-93183390D01*
X129585713Y-93183390D02*
X129585713Y-93326247D01*
X129585713Y-93326247D02*
X129538094Y-93516723D01*
X129538094Y-93516723D02*
X129490475Y-93611961D01*
X129490475Y-93611961D02*
X129395237Y-93707200D01*
X129395237Y-93707200D02*
X129252380Y-93754819D01*
X129252380Y-93754819D02*
X129157142Y-93754819D01*
X129157142Y-93754819D02*
X129014285Y-93707200D01*
X129014285Y-93707200D02*
X128966666Y-93659580D01*
X128966666Y-93659580D02*
X128966666Y-93326247D01*
X128966666Y-93326247D02*
X129157142Y-93326247D01*
X128538094Y-93754819D02*
X128538094Y-92754819D01*
X128538094Y-92754819D02*
X127966666Y-93754819D01*
X127966666Y-93754819D02*
X127966666Y-92754819D01*
X127490475Y-93754819D02*
X127490475Y-92754819D01*
X127490475Y-92754819D02*
X127252380Y-92754819D01*
X127252380Y-92754819D02*
X127109523Y-92802438D01*
X127109523Y-92802438D02*
X127014285Y-92897676D01*
X127014285Y-92897676D02*
X126966666Y-92992914D01*
X126966666Y-92992914D02*
X126919047Y-93183390D01*
X126919047Y-93183390D02*
X126919047Y-93326247D01*
X126919047Y-93326247D02*
X126966666Y-93516723D01*
X126966666Y-93516723D02*
X127014285Y-93611961D01*
X127014285Y-93611961D02*
X127109523Y-93707200D01*
X127109523Y-93707200D02*
X127252380Y-93754819D01*
X127252380Y-93754819D02*
X127490475Y-93754819D01*
X125157142Y-93659580D02*
X125204761Y-93707200D01*
X125204761Y-93707200D02*
X125347618Y-93754819D01*
X125347618Y-93754819D02*
X125442856Y-93754819D01*
X125442856Y-93754819D02*
X125585713Y-93707200D01*
X125585713Y-93707200D02*
X125680951Y-93611961D01*
X125680951Y-93611961D02*
X125728570Y-93516723D01*
X125728570Y-93516723D02*
X125776189Y-93326247D01*
X125776189Y-93326247D02*
X125776189Y-93183390D01*
X125776189Y-93183390D02*
X125728570Y-92992914D01*
X125728570Y-92992914D02*
X125680951Y-92897676D01*
X125680951Y-92897676D02*
X125585713Y-92802438D01*
X125585713Y-92802438D02*
X125442856Y-92754819D01*
X125442856Y-92754819D02*
X125347618Y-92754819D01*
X125347618Y-92754819D02*
X125204761Y-92802438D01*
X125204761Y-92802438D02*
X125157142Y-92850057D01*
X124776189Y-93469104D02*
X124299999Y-93469104D01*
X124871427Y-93754819D02*
X124538094Y-92754819D01*
X124538094Y-92754819D02*
X124204761Y-93754819D01*
X123395237Y-93754819D02*
X123871427Y-93754819D01*
X123871427Y-93754819D02*
X123871427Y-92754819D01*
X123061903Y-93754819D02*
X123061903Y-92754819D01*
X122252380Y-93231009D02*
X122109523Y-93278628D01*
X122109523Y-93278628D02*
X122061904Y-93326247D01*
X122061904Y-93326247D02*
X122014285Y-93421485D01*
X122014285Y-93421485D02*
X122014285Y-93564342D01*
X122014285Y-93564342D02*
X122061904Y-93659580D01*
X122061904Y-93659580D02*
X122109523Y-93707200D01*
X122109523Y-93707200D02*
X122204761Y-93754819D01*
X122204761Y-93754819D02*
X122585713Y-93754819D01*
X122585713Y-93754819D02*
X122585713Y-92754819D01*
X122585713Y-92754819D02*
X122252380Y-92754819D01*
X122252380Y-92754819D02*
X122157142Y-92802438D01*
X122157142Y-92802438D02*
X122109523Y-92850057D01*
X122109523Y-92850057D02*
X122061904Y-92945295D01*
X122061904Y-92945295D02*
X122061904Y-93040533D01*
X122061904Y-93040533D02*
X122109523Y-93135771D01*
X122109523Y-93135771D02*
X122157142Y-93183390D01*
X122157142Y-93183390D02*
X122252380Y-93231009D01*
X122252380Y-93231009D02*
X122585713Y-93231009D01*
D11*
X136574060Y-84385400D02*
X135659775Y-84385400D01*
X136116917Y-84842542D02*
X136116917Y-83928257D01*
D10*
X153385714Y-82854819D02*
X153385714Y-82188152D01*
X153385714Y-82283390D02*
X153338095Y-82235771D01*
X153338095Y-82235771D02*
X153242857Y-82188152D01*
X153242857Y-82188152D02*
X153100000Y-82188152D01*
X153100000Y-82188152D02*
X153004762Y-82235771D01*
X153004762Y-82235771D02*
X152957143Y-82331009D01*
X152957143Y-82331009D02*
X152957143Y-82854819D01*
X152957143Y-82331009D02*
X152909524Y-82235771D01*
X152909524Y-82235771D02*
X152814286Y-82188152D01*
X152814286Y-82188152D02*
X152671429Y-82188152D01*
X152671429Y-82188152D02*
X152576190Y-82235771D01*
X152576190Y-82235771D02*
X152528571Y-82331009D01*
X152528571Y-82331009D02*
X152528571Y-82854819D01*
X151909524Y-82854819D02*
X152004762Y-82807200D01*
X152004762Y-82807200D02*
X152052381Y-82759580D01*
X152052381Y-82759580D02*
X152100000Y-82664342D01*
X152100000Y-82664342D02*
X152100000Y-82378628D01*
X152100000Y-82378628D02*
X152052381Y-82283390D01*
X152052381Y-82283390D02*
X152004762Y-82235771D01*
X152004762Y-82235771D02*
X151909524Y-82188152D01*
X151909524Y-82188152D02*
X151766667Y-82188152D01*
X151766667Y-82188152D02*
X151671429Y-82235771D01*
X151671429Y-82235771D02*
X151623810Y-82283390D01*
X151623810Y-82283390D02*
X151576191Y-82378628D01*
X151576191Y-82378628D02*
X151576191Y-82664342D01*
X151576191Y-82664342D02*
X151623810Y-82759580D01*
X151623810Y-82759580D02*
X151671429Y-82807200D01*
X151671429Y-82807200D02*
X151766667Y-82854819D01*
X151766667Y-82854819D02*
X151909524Y-82854819D01*
X151290476Y-82188152D02*
X150909524Y-82188152D01*
X151147619Y-81854819D02*
X151147619Y-82711961D01*
X151147619Y-82711961D02*
X151100000Y-82807200D01*
X151100000Y-82807200D02*
X151004762Y-82854819D01*
X151004762Y-82854819D02*
X150909524Y-82854819D01*
X150433333Y-82854819D02*
X150528571Y-82807200D01*
X150528571Y-82807200D02*
X150576190Y-82759580D01*
X150576190Y-82759580D02*
X150623809Y-82664342D01*
X150623809Y-82664342D02*
X150623809Y-82378628D01*
X150623809Y-82378628D02*
X150576190Y-82283390D01*
X150576190Y-82283390D02*
X150528571Y-82235771D01*
X150528571Y-82235771D02*
X150433333Y-82188152D01*
X150433333Y-82188152D02*
X150290476Y-82188152D01*
X150290476Y-82188152D02*
X150195238Y-82235771D01*
X150195238Y-82235771D02*
X150147619Y-82283390D01*
X150147619Y-82283390D02*
X150100000Y-82378628D01*
X150100000Y-82378628D02*
X150100000Y-82664342D01*
X150100000Y-82664342D02*
X150147619Y-82759580D01*
X150147619Y-82759580D02*
X150195238Y-82807200D01*
X150195238Y-82807200D02*
X150290476Y-82854819D01*
X150290476Y-82854819D02*
X150433333Y-82854819D01*
X149671428Y-82854819D02*
X149671428Y-82188152D01*
X149671428Y-82378628D02*
X149623809Y-82283390D01*
X149623809Y-82283390D02*
X149576190Y-82235771D01*
X149576190Y-82235771D02*
X149480952Y-82188152D01*
X149480952Y-82188152D02*
X149385714Y-82188152D01*
X147766666Y-82854819D02*
X148338094Y-82854819D01*
X148052380Y-82854819D02*
X148052380Y-81854819D01*
X148052380Y-81854819D02*
X148147618Y-81997676D01*
X148147618Y-81997676D02*
X148242856Y-82092914D01*
X148242856Y-82092914D02*
X148338094Y-82140533D01*
X146623809Y-81807200D02*
X147480951Y-83092914D01*
X145814285Y-81854819D02*
X146290475Y-81854819D01*
X146290475Y-81854819D02*
X146338094Y-82331009D01*
X146338094Y-82331009D02*
X146290475Y-82283390D01*
X146290475Y-82283390D02*
X146195237Y-82235771D01*
X146195237Y-82235771D02*
X145957142Y-82235771D01*
X145957142Y-82235771D02*
X145861904Y-82283390D01*
X145861904Y-82283390D02*
X145814285Y-82331009D01*
X145814285Y-82331009D02*
X145766666Y-82426247D01*
X145766666Y-82426247D02*
X145766666Y-82664342D01*
X145766666Y-82664342D02*
X145814285Y-82759580D01*
X145814285Y-82759580D02*
X145861904Y-82807200D01*
X145861904Y-82807200D02*
X145957142Y-82854819D01*
X145957142Y-82854819D02*
X146195237Y-82854819D01*
X146195237Y-82854819D02*
X146290475Y-82807200D01*
X146290475Y-82807200D02*
X146338094Y-82759580D01*
X144623809Y-81807200D02*
X145480951Y-83092914D01*
X144242856Y-82854819D02*
X144052380Y-82854819D01*
X144052380Y-82854819D02*
X143957142Y-82807200D01*
X143957142Y-82807200D02*
X143909523Y-82759580D01*
X143909523Y-82759580D02*
X143814285Y-82616723D01*
X143814285Y-82616723D02*
X143766666Y-82426247D01*
X143766666Y-82426247D02*
X143766666Y-82045295D01*
X143766666Y-82045295D02*
X143814285Y-81950057D01*
X143814285Y-81950057D02*
X143861904Y-81902438D01*
X143861904Y-81902438D02*
X143957142Y-81854819D01*
X143957142Y-81854819D02*
X144147618Y-81854819D01*
X144147618Y-81854819D02*
X144242856Y-81902438D01*
X144242856Y-81902438D02*
X144290475Y-81950057D01*
X144290475Y-81950057D02*
X144338094Y-82045295D01*
X144338094Y-82045295D02*
X144338094Y-82283390D01*
X144338094Y-82283390D02*
X144290475Y-82378628D01*
X144290475Y-82378628D02*
X144242856Y-82426247D01*
X144242856Y-82426247D02*
X144147618Y-82473866D01*
X144147618Y-82473866D02*
X143957142Y-82473866D01*
X143957142Y-82473866D02*
X143861904Y-82426247D01*
X143861904Y-82426247D02*
X143814285Y-82378628D01*
X143814285Y-82378628D02*
X143766666Y-82283390D01*
D11*
X114974060Y-84285400D02*
X114059775Y-84285400D01*
X114516917Y-84742542D02*
X114516917Y-83828257D01*
X114974060Y-86885400D02*
X114059775Y-86885400D01*
X158074060Y-86985400D02*
X157159775Y-86985400D01*
X158074060Y-84385400D02*
X157159775Y-84385400D01*
X157616917Y-84842542D02*
X157616917Y-83928257D01*
D12*
X142889524Y-123932000D02*
X142675239Y-124003428D01*
X142675239Y-124003428D02*
X142318096Y-124003428D01*
X142318096Y-124003428D02*
X142175239Y-123932000D01*
X142175239Y-123932000D02*
X142103810Y-123860571D01*
X142103810Y-123860571D02*
X142032381Y-123717714D01*
X142032381Y-123717714D02*
X142032381Y-123574857D01*
X142032381Y-123574857D02*
X142103810Y-123432000D01*
X142103810Y-123432000D02*
X142175239Y-123360571D01*
X142175239Y-123360571D02*
X142318096Y-123289142D01*
X142318096Y-123289142D02*
X142603810Y-123217714D01*
X142603810Y-123217714D02*
X142746667Y-123146285D01*
X142746667Y-123146285D02*
X142818096Y-123074857D01*
X142818096Y-123074857D02*
X142889524Y-122932000D01*
X142889524Y-122932000D02*
X142889524Y-122789142D01*
X142889524Y-122789142D02*
X142818096Y-122646285D01*
X142818096Y-122646285D02*
X142746667Y-122574857D01*
X142746667Y-122574857D02*
X142603810Y-122503428D01*
X142603810Y-122503428D02*
X142246667Y-122503428D01*
X142246667Y-122503428D02*
X142032381Y-122574857D01*
X141389525Y-123003428D02*
X141389525Y-124503428D01*
X141389525Y-123074857D02*
X141246668Y-123003428D01*
X141246668Y-123003428D02*
X140960953Y-123003428D01*
X140960953Y-123003428D02*
X140818096Y-123074857D01*
X140818096Y-123074857D02*
X140746668Y-123146285D01*
X140746668Y-123146285D02*
X140675239Y-123289142D01*
X140675239Y-123289142D02*
X140675239Y-123717714D01*
X140675239Y-123717714D02*
X140746668Y-123860571D01*
X140746668Y-123860571D02*
X140818096Y-123932000D01*
X140818096Y-123932000D02*
X140960953Y-124003428D01*
X140960953Y-124003428D02*
X141246668Y-124003428D01*
X141246668Y-124003428D02*
X141389525Y-123932000D01*
X139818096Y-124003428D02*
X139960953Y-123932000D01*
X139960953Y-123932000D02*
X140032382Y-123789142D01*
X140032382Y-123789142D02*
X140032382Y-122503428D01*
X139246668Y-124003428D02*
X139246668Y-123003428D01*
X139246668Y-122503428D02*
X139318096Y-122574857D01*
X139318096Y-122574857D02*
X139246668Y-122646285D01*
X139246668Y-122646285D02*
X139175239Y-122574857D01*
X139175239Y-122574857D02*
X139246668Y-122503428D01*
X139246668Y-122503428D02*
X139246668Y-122646285D01*
X138746667Y-123003428D02*
X138175239Y-123003428D01*
X138532382Y-122503428D02*
X138532382Y-123789142D01*
X138532382Y-123789142D02*
X138460953Y-123932000D01*
X138460953Y-123932000D02*
X138318096Y-124003428D01*
X138318096Y-124003428D02*
X138175239Y-124003428D01*
X137675239Y-123432000D02*
X136532382Y-123432000D01*
X135318096Y-123217714D02*
X135818096Y-123217714D01*
X135818096Y-124003428D02*
X135818096Y-122503428D01*
X135818096Y-122503428D02*
X135103810Y-122503428D01*
X134318096Y-124003428D02*
X134460953Y-123932000D01*
X134460953Y-123932000D02*
X134532382Y-123789142D01*
X134532382Y-123789142D02*
X134532382Y-122503428D01*
X133103811Y-124003428D02*
X133103811Y-123217714D01*
X133103811Y-123217714D02*
X133175239Y-123074857D01*
X133175239Y-123074857D02*
X133318096Y-123003428D01*
X133318096Y-123003428D02*
X133603811Y-123003428D01*
X133603811Y-123003428D02*
X133746668Y-123074857D01*
X133103811Y-123932000D02*
X133246668Y-124003428D01*
X133246668Y-124003428D02*
X133603811Y-124003428D01*
X133603811Y-124003428D02*
X133746668Y-123932000D01*
X133746668Y-123932000D02*
X133818096Y-123789142D01*
X133818096Y-123789142D02*
X133818096Y-123646285D01*
X133818096Y-123646285D02*
X133746668Y-123503428D01*
X133746668Y-123503428D02*
X133603811Y-123432000D01*
X133603811Y-123432000D02*
X133246668Y-123432000D01*
X133246668Y-123432000D02*
X133103811Y-123360571D01*
X132389525Y-123003428D02*
X132389525Y-124503428D01*
X132389525Y-123074857D02*
X132246668Y-123003428D01*
X132246668Y-123003428D02*
X131960953Y-123003428D01*
X131960953Y-123003428D02*
X131818096Y-123074857D01*
X131818096Y-123074857D02*
X131746668Y-123146285D01*
X131746668Y-123146285D02*
X131675239Y-123289142D01*
X131675239Y-123289142D02*
X131675239Y-123717714D01*
X131675239Y-123717714D02*
X131746668Y-123860571D01*
X131746668Y-123860571D02*
X131818096Y-123932000D01*
X131818096Y-123932000D02*
X131960953Y-124003428D01*
X131960953Y-124003428D02*
X132246668Y-124003428D01*
X132246668Y-124003428D02*
X132389525Y-123932000D01*
X129889525Y-122503428D02*
X129889525Y-123717714D01*
X129889525Y-123717714D02*
X129818096Y-123860571D01*
X129818096Y-123860571D02*
X129746668Y-123932000D01*
X129746668Y-123932000D02*
X129603810Y-124003428D01*
X129603810Y-124003428D02*
X129318096Y-124003428D01*
X129318096Y-124003428D02*
X129175239Y-123932000D01*
X129175239Y-123932000D02*
X129103810Y-123860571D01*
X129103810Y-123860571D02*
X129032382Y-123717714D01*
X129032382Y-123717714D02*
X129032382Y-122503428D01*
X128318096Y-123003428D02*
X128318096Y-124003428D01*
X128318096Y-123146285D02*
X128246667Y-123074857D01*
X128246667Y-123074857D02*
X128103810Y-123003428D01*
X128103810Y-123003428D02*
X127889524Y-123003428D01*
X127889524Y-123003428D02*
X127746667Y-123074857D01*
X127746667Y-123074857D02*
X127675239Y-123217714D01*
X127675239Y-123217714D02*
X127675239Y-124003428D01*
X126960953Y-124003428D02*
X126960953Y-123003428D01*
X126960953Y-122503428D02*
X127032381Y-122574857D01*
X127032381Y-122574857D02*
X126960953Y-122646285D01*
X126960953Y-122646285D02*
X126889524Y-122574857D01*
X126889524Y-122574857D02*
X126960953Y-122503428D01*
X126960953Y-122503428D02*
X126960953Y-122646285D01*
X126460952Y-123003428D02*
X125889524Y-123003428D01*
X126246667Y-122503428D02*
X126246667Y-123789142D01*
X126246667Y-123789142D02*
X126175238Y-123932000D01*
X126175238Y-123932000D02*
X126032381Y-124003428D01*
X126032381Y-124003428D02*
X125889524Y-124003428D01*
X125460952Y-123932000D02*
X125318095Y-124003428D01*
X125318095Y-124003428D02*
X125032381Y-124003428D01*
X125032381Y-124003428D02*
X124889524Y-123932000D01*
X124889524Y-123932000D02*
X124818095Y-123789142D01*
X124818095Y-123789142D02*
X124818095Y-123717714D01*
X124818095Y-123717714D02*
X124889524Y-123574857D01*
X124889524Y-123574857D02*
X125032381Y-123503428D01*
X125032381Y-123503428D02*
X125246667Y-123503428D01*
X125246667Y-123503428D02*
X125389524Y-123432000D01*
X125389524Y-123432000D02*
X125460952Y-123289142D01*
X125460952Y-123289142D02*
X125460952Y-123217714D01*
X125460952Y-123217714D02*
X125389524Y-123074857D01*
X125389524Y-123074857D02*
X125246667Y-123003428D01*
X125246667Y-123003428D02*
X125032381Y-123003428D01*
X125032381Y-123003428D02*
X124889524Y-123074857D01*
D11*
X136574060Y-86985400D02*
X135659775Y-86985400D01*
X93316917Y-86980400D02*
X92402632Y-86980400D01*
X93316917Y-84380400D02*
X92402632Y-84380400D01*
X92859774Y-84837542D02*
X92859774Y-83923257D01*
D10*
X110561904Y-82854819D02*
X110561904Y-82188152D01*
X110561904Y-82283390D02*
X110514285Y-82235771D01*
X110514285Y-82235771D02*
X110419047Y-82188152D01*
X110419047Y-82188152D02*
X110276190Y-82188152D01*
X110276190Y-82188152D02*
X110180952Y-82235771D01*
X110180952Y-82235771D02*
X110133333Y-82331009D01*
X110133333Y-82331009D02*
X110133333Y-82854819D01*
X110133333Y-82331009D02*
X110085714Y-82235771D01*
X110085714Y-82235771D02*
X109990476Y-82188152D01*
X109990476Y-82188152D02*
X109847619Y-82188152D01*
X109847619Y-82188152D02*
X109752380Y-82235771D01*
X109752380Y-82235771D02*
X109704761Y-82331009D01*
X109704761Y-82331009D02*
X109704761Y-82854819D01*
X109085714Y-82854819D02*
X109180952Y-82807200D01*
X109180952Y-82807200D02*
X109228571Y-82759580D01*
X109228571Y-82759580D02*
X109276190Y-82664342D01*
X109276190Y-82664342D02*
X109276190Y-82378628D01*
X109276190Y-82378628D02*
X109228571Y-82283390D01*
X109228571Y-82283390D02*
X109180952Y-82235771D01*
X109180952Y-82235771D02*
X109085714Y-82188152D01*
X109085714Y-82188152D02*
X108942857Y-82188152D01*
X108942857Y-82188152D02*
X108847619Y-82235771D01*
X108847619Y-82235771D02*
X108800000Y-82283390D01*
X108800000Y-82283390D02*
X108752381Y-82378628D01*
X108752381Y-82378628D02*
X108752381Y-82664342D01*
X108752381Y-82664342D02*
X108800000Y-82759580D01*
X108800000Y-82759580D02*
X108847619Y-82807200D01*
X108847619Y-82807200D02*
X108942857Y-82854819D01*
X108942857Y-82854819D02*
X109085714Y-82854819D01*
X108466666Y-82188152D02*
X108085714Y-82188152D01*
X108323809Y-81854819D02*
X108323809Y-82711961D01*
X108323809Y-82711961D02*
X108276190Y-82807200D01*
X108276190Y-82807200D02*
X108180952Y-82854819D01*
X108180952Y-82854819D02*
X108085714Y-82854819D01*
X107609523Y-82854819D02*
X107704761Y-82807200D01*
X107704761Y-82807200D02*
X107752380Y-82759580D01*
X107752380Y-82759580D02*
X107799999Y-82664342D01*
X107799999Y-82664342D02*
X107799999Y-82378628D01*
X107799999Y-82378628D02*
X107752380Y-82283390D01*
X107752380Y-82283390D02*
X107704761Y-82235771D01*
X107704761Y-82235771D02*
X107609523Y-82188152D01*
X107609523Y-82188152D02*
X107466666Y-82188152D01*
X107466666Y-82188152D02*
X107371428Y-82235771D01*
X107371428Y-82235771D02*
X107323809Y-82283390D01*
X107323809Y-82283390D02*
X107276190Y-82378628D01*
X107276190Y-82378628D02*
X107276190Y-82664342D01*
X107276190Y-82664342D02*
X107323809Y-82759580D01*
X107323809Y-82759580D02*
X107371428Y-82807200D01*
X107371428Y-82807200D02*
X107466666Y-82854819D01*
X107466666Y-82854819D02*
X107609523Y-82854819D01*
X106847618Y-82854819D02*
X106847618Y-82188152D01*
X106847618Y-82378628D02*
X106799999Y-82283390D01*
X106799999Y-82283390D02*
X106752380Y-82235771D01*
X106752380Y-82235771D02*
X106657142Y-82188152D01*
X106657142Y-82188152D02*
X106561904Y-82188152D01*
X105561903Y-81854819D02*
X104942856Y-81854819D01*
X104942856Y-81854819D02*
X105276189Y-82235771D01*
X105276189Y-82235771D02*
X105133332Y-82235771D01*
X105133332Y-82235771D02*
X105038094Y-82283390D01*
X105038094Y-82283390D02*
X104990475Y-82331009D01*
X104990475Y-82331009D02*
X104942856Y-82426247D01*
X104942856Y-82426247D02*
X104942856Y-82664342D01*
X104942856Y-82664342D02*
X104990475Y-82759580D01*
X104990475Y-82759580D02*
X105038094Y-82807200D01*
X105038094Y-82807200D02*
X105133332Y-82854819D01*
X105133332Y-82854819D02*
X105419046Y-82854819D01*
X105419046Y-82854819D02*
X105514284Y-82807200D01*
X105514284Y-82807200D02*
X105561903Y-82759580D01*
X103799999Y-81807200D02*
X104657141Y-83092914D01*
X103561903Y-81854819D02*
X102895237Y-81854819D01*
X102895237Y-81854819D02*
X103323808Y-82854819D01*
X101799999Y-81807200D02*
X102657141Y-83092914D01*
X100942856Y-82854819D02*
X101514284Y-82854819D01*
X101228570Y-82854819D02*
X101228570Y-81854819D01*
X101228570Y-81854819D02*
X101323808Y-81997676D01*
X101323808Y-81997676D02*
X101419046Y-82092914D01*
X101419046Y-82092914D02*
X101514284Y-82140533D01*
X99990475Y-82854819D02*
X100561903Y-82854819D01*
X100276189Y-82854819D02*
X100276189Y-81854819D01*
X100276189Y-81854819D02*
X100371427Y-81997676D01*
X100371427Y-81997676D02*
X100466665Y-82092914D01*
X100466665Y-82092914D02*
X100561903Y-82140533D01*
X174885714Y-82854819D02*
X174885714Y-82188152D01*
X174885714Y-82283390D02*
X174838095Y-82235771D01*
X174838095Y-82235771D02*
X174742857Y-82188152D01*
X174742857Y-82188152D02*
X174600000Y-82188152D01*
X174600000Y-82188152D02*
X174504762Y-82235771D01*
X174504762Y-82235771D02*
X174457143Y-82331009D01*
X174457143Y-82331009D02*
X174457143Y-82854819D01*
X174457143Y-82331009D02*
X174409524Y-82235771D01*
X174409524Y-82235771D02*
X174314286Y-82188152D01*
X174314286Y-82188152D02*
X174171429Y-82188152D01*
X174171429Y-82188152D02*
X174076190Y-82235771D01*
X174076190Y-82235771D02*
X174028571Y-82331009D01*
X174028571Y-82331009D02*
X174028571Y-82854819D01*
X173409524Y-82854819D02*
X173504762Y-82807200D01*
X173504762Y-82807200D02*
X173552381Y-82759580D01*
X173552381Y-82759580D02*
X173600000Y-82664342D01*
X173600000Y-82664342D02*
X173600000Y-82378628D01*
X173600000Y-82378628D02*
X173552381Y-82283390D01*
X173552381Y-82283390D02*
X173504762Y-82235771D01*
X173504762Y-82235771D02*
X173409524Y-82188152D01*
X173409524Y-82188152D02*
X173266667Y-82188152D01*
X173266667Y-82188152D02*
X173171429Y-82235771D01*
X173171429Y-82235771D02*
X173123810Y-82283390D01*
X173123810Y-82283390D02*
X173076191Y-82378628D01*
X173076191Y-82378628D02*
X173076191Y-82664342D01*
X173076191Y-82664342D02*
X173123810Y-82759580D01*
X173123810Y-82759580D02*
X173171429Y-82807200D01*
X173171429Y-82807200D02*
X173266667Y-82854819D01*
X173266667Y-82854819D02*
X173409524Y-82854819D01*
X172790476Y-82188152D02*
X172409524Y-82188152D01*
X172647619Y-81854819D02*
X172647619Y-82711961D01*
X172647619Y-82711961D02*
X172600000Y-82807200D01*
X172600000Y-82807200D02*
X172504762Y-82854819D01*
X172504762Y-82854819D02*
X172409524Y-82854819D01*
X171933333Y-82854819D02*
X172028571Y-82807200D01*
X172028571Y-82807200D02*
X172076190Y-82759580D01*
X172076190Y-82759580D02*
X172123809Y-82664342D01*
X172123809Y-82664342D02*
X172123809Y-82378628D01*
X172123809Y-82378628D02*
X172076190Y-82283390D01*
X172076190Y-82283390D02*
X172028571Y-82235771D01*
X172028571Y-82235771D02*
X171933333Y-82188152D01*
X171933333Y-82188152D02*
X171790476Y-82188152D01*
X171790476Y-82188152D02*
X171695238Y-82235771D01*
X171695238Y-82235771D02*
X171647619Y-82283390D01*
X171647619Y-82283390D02*
X171600000Y-82378628D01*
X171600000Y-82378628D02*
X171600000Y-82664342D01*
X171600000Y-82664342D02*
X171647619Y-82759580D01*
X171647619Y-82759580D02*
X171695238Y-82807200D01*
X171695238Y-82807200D02*
X171790476Y-82854819D01*
X171790476Y-82854819D02*
X171933333Y-82854819D01*
X171171428Y-82854819D02*
X171171428Y-82188152D01*
X171171428Y-82378628D02*
X171123809Y-82283390D01*
X171123809Y-82283390D02*
X171076190Y-82235771D01*
X171076190Y-82235771D02*
X170980952Y-82188152D01*
X170980952Y-82188152D02*
X170885714Y-82188152D01*
X169599999Y-81854819D02*
X169504761Y-81854819D01*
X169504761Y-81854819D02*
X169409523Y-81902438D01*
X169409523Y-81902438D02*
X169361904Y-81950057D01*
X169361904Y-81950057D02*
X169314285Y-82045295D01*
X169314285Y-82045295D02*
X169266666Y-82235771D01*
X169266666Y-82235771D02*
X169266666Y-82473866D01*
X169266666Y-82473866D02*
X169314285Y-82664342D01*
X169314285Y-82664342D02*
X169361904Y-82759580D01*
X169361904Y-82759580D02*
X169409523Y-82807200D01*
X169409523Y-82807200D02*
X169504761Y-82854819D01*
X169504761Y-82854819D02*
X169599999Y-82854819D01*
X169599999Y-82854819D02*
X169695237Y-82807200D01*
X169695237Y-82807200D02*
X169742856Y-82759580D01*
X169742856Y-82759580D02*
X169790475Y-82664342D01*
X169790475Y-82664342D02*
X169838094Y-82473866D01*
X169838094Y-82473866D02*
X169838094Y-82235771D01*
X169838094Y-82235771D02*
X169790475Y-82045295D01*
X169790475Y-82045295D02*
X169742856Y-81950057D01*
X169742856Y-81950057D02*
X169695237Y-81902438D01*
X169695237Y-81902438D02*
X169599999Y-81854819D01*
X168123809Y-81807200D02*
X168980951Y-83092914D01*
X167361904Y-82188152D02*
X167361904Y-82854819D01*
X167599999Y-81807200D02*
X167838094Y-82521485D01*
X167838094Y-82521485D02*
X167219047Y-82521485D01*
X166123809Y-81807200D02*
X166980951Y-83092914D01*
X165647618Y-82283390D02*
X165742856Y-82235771D01*
X165742856Y-82235771D02*
X165790475Y-82188152D01*
X165790475Y-82188152D02*
X165838094Y-82092914D01*
X165838094Y-82092914D02*
X165838094Y-82045295D01*
X165838094Y-82045295D02*
X165790475Y-81950057D01*
X165790475Y-81950057D02*
X165742856Y-81902438D01*
X165742856Y-81902438D02*
X165647618Y-81854819D01*
X165647618Y-81854819D02*
X165457142Y-81854819D01*
X165457142Y-81854819D02*
X165361904Y-81902438D01*
X165361904Y-81902438D02*
X165314285Y-81950057D01*
X165314285Y-81950057D02*
X165266666Y-82045295D01*
X165266666Y-82045295D02*
X165266666Y-82092914D01*
X165266666Y-82092914D02*
X165314285Y-82188152D01*
X165314285Y-82188152D02*
X165361904Y-82235771D01*
X165361904Y-82235771D02*
X165457142Y-82283390D01*
X165457142Y-82283390D02*
X165647618Y-82283390D01*
X165647618Y-82283390D02*
X165742856Y-82331009D01*
X165742856Y-82331009D02*
X165790475Y-82378628D01*
X165790475Y-82378628D02*
X165838094Y-82473866D01*
X165838094Y-82473866D02*
X165838094Y-82664342D01*
X165838094Y-82664342D02*
X165790475Y-82759580D01*
X165790475Y-82759580D02*
X165742856Y-82807200D01*
X165742856Y-82807200D02*
X165647618Y-82854819D01*
X165647618Y-82854819D02*
X165457142Y-82854819D01*
X165457142Y-82854819D02*
X165361904Y-82807200D01*
X165361904Y-82807200D02*
X165314285Y-82759580D01*
X165314285Y-82759580D02*
X165266666Y-82664342D01*
X165266666Y-82664342D02*
X165266666Y-82473866D01*
X165266666Y-82473866D02*
X165314285Y-82378628D01*
X165314285Y-82378628D02*
X165361904Y-82331009D01*
X165361904Y-82331009D02*
X165457142Y-82283390D01*
%LPC*%
D13*
%TO.C,A4*%
X176530000Y-104648000D03*
D14*
X173990000Y-104648000D03*
X171450000Y-104648000D03*
X168910000Y-104648000D03*
X166370000Y-104648000D03*
X163830000Y-104648000D03*
X161290000Y-104648000D03*
X158750000Y-104648000D03*
X158750000Y-117348000D03*
X161290000Y-117348000D03*
X163830000Y-117348000D03*
X166370000Y-117348000D03*
X168910000Y-117348000D03*
X171450000Y-117348000D03*
X173990000Y-117348000D03*
X176530000Y-117348000D03*
%TD*%
D15*
%TO.C,J4*%
X100490000Y-85328000D03*
D16*
X102990000Y-85328000D03*
X105490000Y-85328000D03*
X107990000Y-85328000D03*
X110490000Y-85328000D03*
%TD*%
D17*
%TO.C,J3*%
X94920000Y-84328000D03*
D18*
X94920000Y-86868000D03*
X94920000Y-89408000D03*
%TD*%
D13*
%TO.C,A1*%
X111760000Y-104648000D03*
D14*
X109220000Y-104648000D03*
X106680000Y-104648000D03*
X104140000Y-104648000D03*
X101600000Y-104648000D03*
X99060000Y-104648000D03*
X96520000Y-104648000D03*
X93980000Y-104648000D03*
X93980000Y-117348000D03*
X96520000Y-117348000D03*
X99060000Y-117348000D03*
X101600000Y-117348000D03*
X104140000Y-117348000D03*
X106680000Y-117348000D03*
X109220000Y-117348000D03*
X111760000Y-117348000D03*
%TD*%
D19*
%TO.C,C6*%
X94020000Y-93218000D03*
X96520000Y-93218000D03*
%TD*%
D20*
%TO.C,REF3*%
X109075000Y-123650000D03*
%TD*%
D13*
%TO.C,C5*%
X158790000Y-98298000D03*
D19*
X161290000Y-98298000D03*
%TD*%
D13*
%TO.C,C2*%
X94020000Y-98298000D03*
D19*
X96520000Y-98298000D03*
%TD*%
D13*
%TO.C,C1*%
X86360000Y-121412000D03*
D19*
X86360000Y-123912000D03*
%TD*%
D17*
%TO.C,J7*%
X138100000Y-84328000D03*
D18*
X138100000Y-86868000D03*
X138100000Y-89408000D03*
%TD*%
D17*
%TO.C,J5*%
X116510000Y-84328000D03*
D18*
X116510000Y-86868000D03*
X116510000Y-89408000D03*
%TD*%
D19*
%TO.C,C9*%
X158790000Y-93218000D03*
X161290000Y-93218000D03*
%TD*%
D21*
%TO.C,J1*%
X84190000Y-89916000D03*
D22*
X86730000Y-89916000D03*
X84190000Y-92456000D03*
X86730000Y-92456000D03*
X84190000Y-94996000D03*
X86730000Y-94996000D03*
X84190000Y-97536000D03*
X86730000Y-97536000D03*
X84190000Y-100076000D03*
X86730000Y-100076000D03*
X84190000Y-102616000D03*
X86730000Y-102616000D03*
X84190000Y-105156000D03*
X86730000Y-105156000D03*
X84190000Y-107696000D03*
X86730000Y-107696000D03*
X84190000Y-110236000D03*
X86730000Y-110236000D03*
X84190000Y-112776000D03*
X86730000Y-112776000D03*
%TD*%
D20*
%TO.C,REF4*%
X169075000Y-123650000D03*
%TD*%
D19*
%TO.C,C8*%
X137200000Y-93218000D03*
X139700000Y-93218000D03*
%TD*%
D20*
%TO.C,REF2*%
X169075000Y-93650000D03*
%TD*%
D13*
%TO.C,C3*%
X115610000Y-98298000D03*
D19*
X118110000Y-98298000D03*
%TD*%
D13*
%TO.C,A2*%
X133350000Y-104648000D03*
D14*
X130810000Y-104648000D03*
X128270000Y-104648000D03*
X125730000Y-104648000D03*
X123190000Y-104648000D03*
X120650000Y-104648000D03*
X118110000Y-104648000D03*
X115570000Y-104648000D03*
X115570000Y-117348000D03*
X118110000Y-117348000D03*
X120650000Y-117348000D03*
X123190000Y-117348000D03*
X125730000Y-117348000D03*
X128270000Y-117348000D03*
X130810000Y-117348000D03*
X133350000Y-117348000D03*
%TD*%
D19*
%TO.C,C7*%
X115610000Y-93218000D03*
X118110000Y-93218000D03*
%TD*%
D20*
%TO.C,REF1*%
X109075000Y-93650000D03*
%TD*%
D13*
%TO.C,A3*%
X154940000Y-104648000D03*
D14*
X152400000Y-104648000D03*
X149860000Y-104648000D03*
X147320000Y-104648000D03*
X144780000Y-104648000D03*
X142240000Y-104648000D03*
X139700000Y-104648000D03*
X137160000Y-104648000D03*
X137160000Y-117348000D03*
X139700000Y-117348000D03*
X142240000Y-117348000D03*
X144780000Y-117348000D03*
X147320000Y-117348000D03*
X149860000Y-117348000D03*
X152400000Y-117348000D03*
X154940000Y-117348000D03*
%TD*%
D15*
%TO.C,J8*%
X143670000Y-85328000D03*
D16*
X146170000Y-85328000D03*
X148670000Y-85328000D03*
X151170000Y-85328000D03*
X153670000Y-85328000D03*
%TD*%
D15*
%TO.C,J10*%
X165270000Y-85328000D03*
D16*
X167770000Y-85328000D03*
X170270000Y-85328000D03*
X172770000Y-85328000D03*
X175270000Y-85328000D03*
%TD*%
D17*
%TO.C,J9*%
X159700000Y-84328000D03*
D18*
X159700000Y-86868000D03*
X159700000Y-89408000D03*
%TD*%
D15*
%TO.C,J6*%
X122080000Y-85328000D03*
D16*
X124580000Y-85328000D03*
X127080000Y-85328000D03*
X129580000Y-85328000D03*
X132080000Y-85328000D03*
%TD*%
D17*
%TO.C,J2*%
X131572000Y-93218000D03*
%TD*%
D13*
%TO.C,C4*%
X137200000Y-98298000D03*
D19*
X139700000Y-98298000D03*
%TD*%
%LPD*%
M02*
