M48
INCH
T1C0.0157
T2C0.0315
T3C0.0374
T4C0.0394
T5C0.1260
%
G90
G05
T1
X3.5308Y-4.2357
X4.6257Y-4.2996
T2
X3.4Y-4.78
X3.4Y-4.8784
X3.7Y-4.12
X3.7Y-4.62
X3.7016Y-3.67
X3.7016Y-3.87
X3.8Y-3.67
X3.8Y-3.87
X3.8Y-4.12
X3.8Y-4.62
X3.9Y-4.12
X3.9Y-4.62
X4.0Y-4.12
X4.0Y-4.62
X4.1Y-4.12
X4.1Y-4.62
X4.2Y-4.12
X4.2Y-4.62
X4.3Y-4.12
X4.3Y-4.62
X4.4Y-4.12
X4.4Y-4.62
X4.55Y-4.12
X4.55Y-4.62
X4.5516Y-3.67
X4.5516Y-3.87
X4.65Y-3.67
X4.65Y-3.87
X4.65Y-4.12
X4.65Y-4.62
X4.75Y-4.12
X4.75Y-4.62
X4.85Y-4.12
X4.85Y-4.62
X4.95Y-4.12
X4.95Y-4.62
X5.05Y-4.12
X5.05Y-4.62
X5.15Y-4.12
X5.15Y-4.62
X5.25Y-4.12
X5.25Y-4.62
X5.4Y-4.12
X5.4Y-4.62
X5.4016Y-3.67
X5.4016Y-3.87
X5.5Y-3.67
X5.5Y-3.87
X5.5Y-4.12
X5.5Y-4.62
X5.6Y-4.12
X5.6Y-4.62
X5.7Y-4.12
X5.7Y-4.62
X5.8Y-4.12
X5.8Y-4.62
X5.9Y-4.12
X5.9Y-4.62
X6.0Y-4.12
X6.0Y-4.62
X6.1Y-4.12
X6.1Y-4.62
X6.25Y-4.12
X6.25Y-4.62
X6.2516Y-3.67
X6.2516Y-3.87
X6.35Y-3.67
X6.35Y-3.87
X6.35Y-4.12
X6.35Y-4.62
X6.45Y-4.12
X6.45Y-4.62
X6.55Y-4.12
X6.55Y-4.62
X6.65Y-4.12
X6.65Y-4.62
X6.75Y-4.12
X6.75Y-4.62
X6.85Y-4.12
X6.85Y-4.62
X6.95Y-4.12
X6.95Y-4.62
T3
X3.9563Y-3.3594
X4.0547Y-3.3594
X4.1531Y-3.3594
X4.2516Y-3.3594
X4.35Y-3.3594
X4.8063Y-3.3594
X4.9047Y-3.3594
X5.0031Y-3.3594
X5.1016Y-3.3594
X5.2Y-3.3594
X5.6563Y-3.3594
X5.7547Y-3.3594
X5.8531Y-3.3594
X5.9516Y-3.3594
X6.05Y-3.3594
X6.5067Y-3.3594
X6.6051Y-3.3594
X6.7035Y-3.3594
X6.802Y-3.3594
X6.9004Y-3.3594
T4
X3.3146Y-3.54
X3.3146Y-3.64
X3.3146Y-3.74
X3.3146Y-3.84
X3.3146Y-3.94
X3.3146Y-4.04
X3.3146Y-4.14
X3.3146Y-4.24
X3.3146Y-4.34
X3.3146Y-4.44
X3.4146Y-3.54
X3.4146Y-3.64
X3.4146Y-3.74
X3.4146Y-3.84
X3.4146Y-3.94
X3.4146Y-4.04
X3.4146Y-4.14
X3.4146Y-4.24
X3.4146Y-4.34
X3.4146Y-4.44
X3.737Y-3.32
X3.737Y-3.42
X3.737Y-3.52
X4.587Y-3.32
X4.587Y-3.42
X4.587Y-3.52
X5.18Y-3.67
X5.437Y-3.32
X5.437Y-3.42
X5.437Y-3.52
X6.2874Y-3.32
X6.2874Y-3.42
X6.2874Y-3.52
T5
X4.2943Y-3.687
X4.2943Y-4.8681
X6.6565Y-3.687
X6.6565Y-4.8681
M30
