%TF.GenerationSoftware,KiCad,Pcbnew,8.0.0*%
%TF.CreationDate,2024-03-11T16:38:20+11:00*%
%TF.ProjectId,split-flap-units,73706c69-742d-4666-9c61-702d756e6974,rev?*%
%TF.SameCoordinates,Original*%
%TF.FileFunction,Legend,Top*%
%TF.FilePolarity,Positive*%
%FSLAX46Y46*%
G04 Gerber Fmt 4.6, Leading zero omitted, Abs format (unit mm)*
G04 Created by KiCad (PCBNEW 8.0.0) date 2024-03-11 16:38:20*
%MOMM*%
%LPD*%
G01*
G04 APERTURE LIST*
G04 Aperture macros list*
%AMRoundRect*
0 Rectangle with rounded corners*
0 $1 Rounding radius*
0 $2 $3 $4 $5 $6 $7 $8 $9 X,Y pos of 4 corners*
0 Add a 4 corners polygon primitive as box body*
4,1,4,$2,$3,$4,$5,$6,$7,$8,$9,$2,$3,0*
0 Add four circle primitives for the rounded corners*
1,1,$1+$1,$2,$3*
1,1,$1+$1,$4,$5*
1,1,$1+$1,$6,$7*
1,1,$1+$1,$8,$9*
0 Add four rect primitives between the rounded corners*
20,1,$1+$1,$2,$3,$4,$5,0*
20,1,$1+$1,$4,$5,$6,$7,0*
20,1,$1+$1,$6,$7,$8,$9,0*
20,1,$1+$1,$8,$9,$2,$3,0*%
G04 Aperture macros list end*
%ADD10C,0.150000*%
%ADD11C,0.100000*%
%ADD12C,0.300000*%
%ADD13C,0.250000*%
%ADD14C,0.120000*%
%ADD15R,1.600000X1.600000*%
%ADD16O,1.600000X1.600000*%
%ADD17RoundRect,0.250000X-0.600000X-0.725000X0.600000X-0.725000X0.600000X0.725000X-0.600000X0.725000X0*%
%ADD18O,1.700000X1.950000*%
%ADD19R,1.700000X1.700000*%
%ADD20O,1.700000X1.700000*%
%ADD21C,1.600000*%
%ADD22C,6.400000*%
%ADD23RoundRect,0.250000X-0.600000X-0.600000X0.600000X-0.600000X0.600000X0.600000X-0.600000X0.600000X0*%
%ADD24C,1.700000*%
G04 APERTURE END LIST*
D10*
X94919800Y-80949800D02*
X94919800Y-81864200D01*
X142290800Y-80975200D02*
X138074400Y-80975200D01*
D11*
X133555803Y-111046197D02*
G75*
G02*
X129588197Y-111046197I-1983803J0D01*
G01*
X129588197Y-111046197D02*
G75*
G02*
X133555803Y-111046197I1983803J0D01*
G01*
D10*
X99136200Y-80949800D02*
X94919800Y-80949800D01*
D11*
X176735803Y-111046197D02*
G75*
G02*
X172768197Y-111046197I-1983803J0D01*
G01*
X172768197Y-111046197D02*
G75*
G02*
X176735803Y-111046197I1983803J0D01*
G01*
D10*
X120650000Y-80949800D02*
X116433600Y-80949800D01*
D11*
X111906660Y-111027500D02*
G75*
G02*
X107939054Y-111027500I-1983803J0D01*
G01*
X107939054Y-111027500D02*
G75*
G02*
X111906660Y-111027500I1983803J0D01*
G01*
D10*
X138074400Y-80975200D02*
X138074400Y-81889600D01*
X116433600Y-80949800D02*
X116433600Y-81864200D01*
X159639000Y-80924400D02*
X159639000Y-81838800D01*
D11*
X155145803Y-111046197D02*
G75*
G02*
X151178197Y-111046197I-1983803J0D01*
G01*
X151178197Y-111046197D02*
G75*
G02*
X155145803Y-111046197I1983803J0D01*
G01*
D10*
X163855400Y-80924400D02*
X159639000Y-80924400D01*
D11*
X131176503Y-111040800D02*
X132090789Y-111040800D01*
X131633646Y-111497942D02*
X131633646Y-110583657D01*
D12*
X157050939Y-89655400D02*
X157165225Y-89712542D01*
X157165225Y-89712542D02*
X157393796Y-89712542D01*
X157393796Y-89712542D02*
X157508082Y-89655400D01*
X157508082Y-89655400D02*
X157565225Y-89541114D01*
X157565225Y-89541114D02*
X157565225Y-89483971D01*
X157565225Y-89483971D02*
X157508082Y-89369685D01*
X157508082Y-89369685D02*
X157393796Y-89312542D01*
X157393796Y-89312542D02*
X157222368Y-89312542D01*
X157222368Y-89312542D02*
X157108082Y-89255400D01*
X157108082Y-89255400D02*
X157050939Y-89141114D01*
X157050939Y-89141114D02*
X157050939Y-89083971D01*
X157050939Y-89083971D02*
X157108082Y-88969685D01*
X157108082Y-88969685D02*
X157222368Y-88912542D01*
X157222368Y-88912542D02*
X157393796Y-88912542D01*
X157393796Y-88912542D02*
X157508082Y-88969685D01*
X92200939Y-89805400D02*
X92315225Y-89862542D01*
X92315225Y-89862542D02*
X92543796Y-89862542D01*
X92543796Y-89862542D02*
X92658082Y-89805400D01*
X92658082Y-89805400D02*
X92715225Y-89691114D01*
X92715225Y-89691114D02*
X92715225Y-89633971D01*
X92715225Y-89633971D02*
X92658082Y-89519685D01*
X92658082Y-89519685D02*
X92543796Y-89462542D01*
X92543796Y-89462542D02*
X92372368Y-89462542D01*
X92372368Y-89462542D02*
X92258082Y-89405400D01*
X92258082Y-89405400D02*
X92200939Y-89291114D01*
X92200939Y-89291114D02*
X92200939Y-89233971D01*
X92200939Y-89233971D02*
X92258082Y-89119685D01*
X92258082Y-89119685D02*
X92372368Y-89062542D01*
X92372368Y-89062542D02*
X92543796Y-89062542D01*
X92543796Y-89062542D02*
X92658082Y-89119685D01*
X113875939Y-89730400D02*
X113990225Y-89787542D01*
X113990225Y-89787542D02*
X114218796Y-89787542D01*
X114218796Y-89787542D02*
X114333082Y-89730400D01*
X114333082Y-89730400D02*
X114390225Y-89616114D01*
X114390225Y-89616114D02*
X114390225Y-89558971D01*
X114390225Y-89558971D02*
X114333082Y-89444685D01*
X114333082Y-89444685D02*
X114218796Y-89387542D01*
X114218796Y-89387542D02*
X114047368Y-89387542D01*
X114047368Y-89387542D02*
X113933082Y-89330400D01*
X113933082Y-89330400D02*
X113875939Y-89216114D01*
X113875939Y-89216114D02*
X113875939Y-89158971D01*
X113875939Y-89158971D02*
X113933082Y-89044685D01*
X113933082Y-89044685D02*
X114047368Y-88987542D01*
X114047368Y-88987542D02*
X114218796Y-88987542D01*
X114218796Y-88987542D02*
X114333082Y-89044685D01*
X156850939Y-84260400D02*
X157765225Y-84260400D01*
X157308082Y-84717542D02*
X157308082Y-83803257D01*
D13*
X123300187Y-126215142D02*
X123300187Y-125015142D01*
X123300187Y-125015142D02*
X123700187Y-125872285D01*
X123700187Y-125872285D02*
X124100187Y-125015142D01*
X124100187Y-125015142D02*
X124100187Y-126215142D01*
X124900187Y-125643714D02*
X124900187Y-126215142D01*
X124500187Y-125015142D02*
X124900187Y-125643714D01*
X124900187Y-125643714D02*
X125300187Y-125015142D01*
X126157330Y-126158000D02*
X126043044Y-126215142D01*
X126043044Y-126215142D02*
X125814473Y-126215142D01*
X125814473Y-126215142D02*
X125700187Y-126158000D01*
X125700187Y-126158000D02*
X125643044Y-126043714D01*
X125643044Y-126043714D02*
X125643044Y-125586571D01*
X125643044Y-125586571D02*
X125700187Y-125472285D01*
X125700187Y-125472285D02*
X125814473Y-125415142D01*
X125814473Y-125415142D02*
X126043044Y-125415142D01*
X126043044Y-125415142D02*
X126157330Y-125472285D01*
X126157330Y-125472285D02*
X126214473Y-125586571D01*
X126214473Y-125586571D02*
X126214473Y-125700857D01*
X126214473Y-125700857D02*
X125643044Y-125815142D01*
X126900186Y-126215142D02*
X126785901Y-126158000D01*
X126785901Y-126158000D02*
X126728758Y-126100857D01*
X126728758Y-126100857D02*
X126671615Y-125986571D01*
X126671615Y-125986571D02*
X126671615Y-125643714D01*
X126671615Y-125643714D02*
X126728758Y-125529428D01*
X126728758Y-125529428D02*
X126785901Y-125472285D01*
X126785901Y-125472285D02*
X126900186Y-125415142D01*
X126900186Y-125415142D02*
X127071615Y-125415142D01*
X127071615Y-125415142D02*
X127185901Y-125472285D01*
X127185901Y-125472285D02*
X127243044Y-125529428D01*
X127243044Y-125529428D02*
X127300186Y-125643714D01*
X127300186Y-125643714D02*
X127300186Y-125986571D01*
X127300186Y-125986571D02*
X127243044Y-126100857D01*
X127243044Y-126100857D02*
X127185901Y-126158000D01*
X127185901Y-126158000D02*
X127071615Y-126215142D01*
X127071615Y-126215142D02*
X126900186Y-126215142D01*
X127814472Y-126215142D02*
X127814472Y-125415142D01*
X127814472Y-125529428D02*
X127871615Y-125472285D01*
X127871615Y-125472285D02*
X127985900Y-125415142D01*
X127985900Y-125415142D02*
X128157329Y-125415142D01*
X128157329Y-125415142D02*
X128271615Y-125472285D01*
X128271615Y-125472285D02*
X128328758Y-125586571D01*
X128328758Y-125586571D02*
X128328758Y-126215142D01*
X128328758Y-125586571D02*
X128385900Y-125472285D01*
X128385900Y-125472285D02*
X128500186Y-125415142D01*
X128500186Y-125415142D02*
X128671615Y-125415142D01*
X128671615Y-125415142D02*
X128785900Y-125472285D01*
X128785900Y-125472285D02*
X128843043Y-125586571D01*
X128843043Y-125586571D02*
X128843043Y-126215142D01*
X129928758Y-126215142D02*
X129928758Y-125586571D01*
X129928758Y-125586571D02*
X129871615Y-125472285D01*
X129871615Y-125472285D02*
X129757329Y-125415142D01*
X129757329Y-125415142D02*
X129528758Y-125415142D01*
X129528758Y-125415142D02*
X129414472Y-125472285D01*
X129928758Y-126158000D02*
X129814472Y-126215142D01*
X129814472Y-126215142D02*
X129528758Y-126215142D01*
X129528758Y-126215142D02*
X129414472Y-126158000D01*
X129414472Y-126158000D02*
X129357329Y-126043714D01*
X129357329Y-126043714D02*
X129357329Y-125929428D01*
X129357329Y-125929428D02*
X129414472Y-125815142D01*
X129414472Y-125815142D02*
X129528758Y-125758000D01*
X129528758Y-125758000D02*
X129814472Y-125758000D01*
X129814472Y-125758000D02*
X129928758Y-125700857D01*
X130500186Y-125415142D02*
X130500186Y-126215142D01*
X130500186Y-125529428D02*
X130557329Y-125472285D01*
X130557329Y-125472285D02*
X130671614Y-125415142D01*
X130671614Y-125415142D02*
X130843043Y-125415142D01*
X130843043Y-125415142D02*
X130957329Y-125472285D01*
X130957329Y-125472285D02*
X131014472Y-125586571D01*
X131014472Y-125586571D02*
X131014472Y-126215142D01*
X132443043Y-125129428D02*
X132500186Y-125072285D01*
X132500186Y-125072285D02*
X132614472Y-125015142D01*
X132614472Y-125015142D02*
X132900186Y-125015142D01*
X132900186Y-125015142D02*
X133014472Y-125072285D01*
X133014472Y-125072285D02*
X133071614Y-125129428D01*
X133071614Y-125129428D02*
X133128757Y-125243714D01*
X133128757Y-125243714D02*
X133128757Y-125358000D01*
X133128757Y-125358000D02*
X133071614Y-125529428D01*
X133071614Y-125529428D02*
X132385900Y-126215142D01*
X132385900Y-126215142D02*
X133128757Y-126215142D01*
X133871614Y-125015142D02*
X133985900Y-125015142D01*
X133985900Y-125015142D02*
X134100186Y-125072285D01*
X134100186Y-125072285D02*
X134157329Y-125129428D01*
X134157329Y-125129428D02*
X134214471Y-125243714D01*
X134214471Y-125243714D02*
X134271614Y-125472285D01*
X134271614Y-125472285D02*
X134271614Y-125758000D01*
X134271614Y-125758000D02*
X134214471Y-125986571D01*
X134214471Y-125986571D02*
X134157329Y-126100857D01*
X134157329Y-126100857D02*
X134100186Y-126158000D01*
X134100186Y-126158000D02*
X133985900Y-126215142D01*
X133985900Y-126215142D02*
X133871614Y-126215142D01*
X133871614Y-126215142D02*
X133757329Y-126158000D01*
X133757329Y-126158000D02*
X133700186Y-126100857D01*
X133700186Y-126100857D02*
X133643043Y-125986571D01*
X133643043Y-125986571D02*
X133585900Y-125758000D01*
X133585900Y-125758000D02*
X133585900Y-125472285D01*
X133585900Y-125472285D02*
X133643043Y-125243714D01*
X133643043Y-125243714D02*
X133700186Y-125129428D01*
X133700186Y-125129428D02*
X133757329Y-125072285D01*
X133757329Y-125072285D02*
X133871614Y-125015142D01*
X134728757Y-125129428D02*
X134785900Y-125072285D01*
X134785900Y-125072285D02*
X134900186Y-125015142D01*
X134900186Y-125015142D02*
X135185900Y-125015142D01*
X135185900Y-125015142D02*
X135300186Y-125072285D01*
X135300186Y-125072285D02*
X135357328Y-125129428D01*
X135357328Y-125129428D02*
X135414471Y-125243714D01*
X135414471Y-125243714D02*
X135414471Y-125358000D01*
X135414471Y-125358000D02*
X135357328Y-125529428D01*
X135357328Y-125529428D02*
X134671614Y-126215142D01*
X134671614Y-126215142D02*
X135414471Y-126215142D01*
X135814471Y-125015142D02*
X136557328Y-125015142D01*
X136557328Y-125015142D02*
X136157328Y-125472285D01*
X136157328Y-125472285D02*
X136328757Y-125472285D01*
X136328757Y-125472285D02*
X136443043Y-125529428D01*
X136443043Y-125529428D02*
X136500185Y-125586571D01*
X136500185Y-125586571D02*
X136557328Y-125700857D01*
X136557328Y-125700857D02*
X136557328Y-125986571D01*
X136557328Y-125986571D02*
X136500185Y-126100857D01*
X136500185Y-126100857D02*
X136443043Y-126158000D01*
X136443043Y-126158000D02*
X136328757Y-126215142D01*
X136328757Y-126215142D02*
X135985900Y-126215142D01*
X135985900Y-126215142D02*
X135871614Y-126158000D01*
X135871614Y-126158000D02*
X135814471Y-126100857D01*
X137928757Y-124958000D02*
X136900185Y-126500857D01*
X138957328Y-126215142D02*
X138271614Y-126215142D01*
X138614471Y-126215142D02*
X138614471Y-125015142D01*
X138614471Y-125015142D02*
X138500185Y-125186571D01*
X138500185Y-125186571D02*
X138385900Y-125300857D01*
X138385900Y-125300857D02*
X138271614Y-125358000D01*
X139414471Y-125129428D02*
X139471614Y-125072285D01*
X139471614Y-125072285D02*
X139585900Y-125015142D01*
X139585900Y-125015142D02*
X139871614Y-125015142D01*
X139871614Y-125015142D02*
X139985900Y-125072285D01*
X139985900Y-125072285D02*
X140043042Y-125129428D01*
X140043042Y-125129428D02*
X140100185Y-125243714D01*
X140100185Y-125243714D02*
X140100185Y-125358000D01*
X140100185Y-125358000D02*
X140043042Y-125529428D01*
X140043042Y-125529428D02*
X139357328Y-126215142D01*
X139357328Y-126215142D02*
X140100185Y-126215142D01*
X141414471Y-125415142D02*
X141700185Y-126215142D01*
X141700185Y-126215142D02*
X141985900Y-125415142D01*
X142385900Y-125129428D02*
X142443043Y-125072285D01*
X142443043Y-125072285D02*
X142557329Y-125015142D01*
X142557329Y-125015142D02*
X142843043Y-125015142D01*
X142843043Y-125015142D02*
X142957329Y-125072285D01*
X142957329Y-125072285D02*
X143014471Y-125129428D01*
X143014471Y-125129428D02*
X143071614Y-125243714D01*
X143071614Y-125243714D02*
X143071614Y-125358000D01*
X143071614Y-125358000D02*
X143014471Y-125529428D01*
X143014471Y-125529428D02*
X142328757Y-126215142D01*
X142328757Y-126215142D02*
X143071614Y-126215142D01*
X143585900Y-126100857D02*
X143643043Y-126158000D01*
X143643043Y-126158000D02*
X143585900Y-126215142D01*
X143585900Y-126215142D02*
X143528757Y-126158000D01*
X143528757Y-126158000D02*
X143585900Y-126100857D01*
X143585900Y-126100857D02*
X143585900Y-126215142D01*
X144785900Y-126215142D02*
X144100186Y-126215142D01*
X144443043Y-126215142D02*
X144443043Y-125015142D01*
X144443043Y-125015142D02*
X144328757Y-125186571D01*
X144328757Y-125186571D02*
X144214472Y-125300857D01*
X144214472Y-125300857D02*
X144100186Y-125358000D01*
X124656187Y-123938000D02*
X124870473Y-124009428D01*
X124870473Y-124009428D02*
X125227615Y-124009428D01*
X125227615Y-124009428D02*
X125370473Y-123938000D01*
X125370473Y-123938000D02*
X125441901Y-123866571D01*
X125441901Y-123866571D02*
X125513330Y-123723714D01*
X125513330Y-123723714D02*
X125513330Y-123580857D01*
X125513330Y-123580857D02*
X125441901Y-123438000D01*
X125441901Y-123438000D02*
X125370473Y-123366571D01*
X125370473Y-123366571D02*
X125227615Y-123295142D01*
X125227615Y-123295142D02*
X124941901Y-123223714D01*
X124941901Y-123223714D02*
X124799044Y-123152285D01*
X124799044Y-123152285D02*
X124727615Y-123080857D01*
X124727615Y-123080857D02*
X124656187Y-122938000D01*
X124656187Y-122938000D02*
X124656187Y-122795142D01*
X124656187Y-122795142D02*
X124727615Y-122652285D01*
X124727615Y-122652285D02*
X124799044Y-122580857D01*
X124799044Y-122580857D02*
X124941901Y-122509428D01*
X124941901Y-122509428D02*
X125299044Y-122509428D01*
X125299044Y-122509428D02*
X125513330Y-122580857D01*
X126156186Y-123009428D02*
X126156186Y-124509428D01*
X126156186Y-123080857D02*
X126299044Y-123009428D01*
X126299044Y-123009428D02*
X126584758Y-123009428D01*
X126584758Y-123009428D02*
X126727615Y-123080857D01*
X126727615Y-123080857D02*
X126799044Y-123152285D01*
X126799044Y-123152285D02*
X126870472Y-123295142D01*
X126870472Y-123295142D02*
X126870472Y-123723714D01*
X126870472Y-123723714D02*
X126799044Y-123866571D01*
X126799044Y-123866571D02*
X126727615Y-123938000D01*
X126727615Y-123938000D02*
X126584758Y-124009428D01*
X126584758Y-124009428D02*
X126299044Y-124009428D01*
X126299044Y-124009428D02*
X126156186Y-123938000D01*
X127727615Y-124009428D02*
X127584758Y-123938000D01*
X127584758Y-123938000D02*
X127513329Y-123795142D01*
X127513329Y-123795142D02*
X127513329Y-122509428D01*
X128299043Y-124009428D02*
X128299043Y-123009428D01*
X128299043Y-122509428D02*
X128227615Y-122580857D01*
X128227615Y-122580857D02*
X128299043Y-122652285D01*
X128299043Y-122652285D02*
X128370472Y-122580857D01*
X128370472Y-122580857D02*
X128299043Y-122509428D01*
X128299043Y-122509428D02*
X128299043Y-122652285D01*
X128799044Y-123009428D02*
X129370472Y-123009428D01*
X129013329Y-122509428D02*
X129013329Y-123795142D01*
X129013329Y-123795142D02*
X129084758Y-123938000D01*
X129084758Y-123938000D02*
X129227615Y-124009428D01*
X129227615Y-124009428D02*
X129370472Y-124009428D01*
X129870472Y-123438000D02*
X131013330Y-123438000D01*
X132227615Y-123223714D02*
X131727615Y-123223714D01*
X131727615Y-124009428D02*
X131727615Y-122509428D01*
X131727615Y-122509428D02*
X132441901Y-122509428D01*
X133227615Y-124009428D02*
X133084758Y-123938000D01*
X133084758Y-123938000D02*
X133013329Y-123795142D01*
X133013329Y-123795142D02*
X133013329Y-122509428D01*
X134441901Y-124009428D02*
X134441901Y-123223714D01*
X134441901Y-123223714D02*
X134370472Y-123080857D01*
X134370472Y-123080857D02*
X134227615Y-123009428D01*
X134227615Y-123009428D02*
X133941901Y-123009428D01*
X133941901Y-123009428D02*
X133799043Y-123080857D01*
X134441901Y-123938000D02*
X134299043Y-124009428D01*
X134299043Y-124009428D02*
X133941901Y-124009428D01*
X133941901Y-124009428D02*
X133799043Y-123938000D01*
X133799043Y-123938000D02*
X133727615Y-123795142D01*
X133727615Y-123795142D02*
X133727615Y-123652285D01*
X133727615Y-123652285D02*
X133799043Y-123509428D01*
X133799043Y-123509428D02*
X133941901Y-123438000D01*
X133941901Y-123438000D02*
X134299043Y-123438000D01*
X134299043Y-123438000D02*
X134441901Y-123366571D01*
X135156186Y-123009428D02*
X135156186Y-124509428D01*
X135156186Y-123080857D02*
X135299044Y-123009428D01*
X135299044Y-123009428D02*
X135584758Y-123009428D01*
X135584758Y-123009428D02*
X135727615Y-123080857D01*
X135727615Y-123080857D02*
X135799044Y-123152285D01*
X135799044Y-123152285D02*
X135870472Y-123295142D01*
X135870472Y-123295142D02*
X135870472Y-123723714D01*
X135870472Y-123723714D02*
X135799044Y-123866571D01*
X135799044Y-123866571D02*
X135727615Y-123938000D01*
X135727615Y-123938000D02*
X135584758Y-124009428D01*
X135584758Y-124009428D02*
X135299044Y-124009428D01*
X135299044Y-124009428D02*
X135156186Y-123938000D01*
X137656186Y-122509428D02*
X137656186Y-123723714D01*
X137656186Y-123723714D02*
X137727615Y-123866571D01*
X137727615Y-123866571D02*
X137799044Y-123938000D01*
X137799044Y-123938000D02*
X137941901Y-124009428D01*
X137941901Y-124009428D02*
X138227615Y-124009428D01*
X138227615Y-124009428D02*
X138370472Y-123938000D01*
X138370472Y-123938000D02*
X138441901Y-123866571D01*
X138441901Y-123866571D02*
X138513329Y-123723714D01*
X138513329Y-123723714D02*
X138513329Y-122509428D01*
X139227615Y-123009428D02*
X139227615Y-124009428D01*
X139227615Y-123152285D02*
X139299044Y-123080857D01*
X139299044Y-123080857D02*
X139441901Y-123009428D01*
X139441901Y-123009428D02*
X139656187Y-123009428D01*
X139656187Y-123009428D02*
X139799044Y-123080857D01*
X139799044Y-123080857D02*
X139870473Y-123223714D01*
X139870473Y-123223714D02*
X139870473Y-124009428D01*
X140584758Y-124009428D02*
X140584758Y-123009428D01*
X140584758Y-122509428D02*
X140513330Y-122580857D01*
X140513330Y-122580857D02*
X140584758Y-122652285D01*
X140584758Y-122652285D02*
X140656187Y-122580857D01*
X140656187Y-122580857D02*
X140584758Y-122509428D01*
X140584758Y-122509428D02*
X140584758Y-122652285D01*
X141084759Y-123009428D02*
X141656187Y-123009428D01*
X141299044Y-122509428D02*
X141299044Y-123795142D01*
X141299044Y-123795142D02*
X141370473Y-123938000D01*
X141370473Y-123938000D02*
X141513330Y-124009428D01*
X141513330Y-124009428D02*
X141656187Y-124009428D01*
X142084759Y-123938000D02*
X142227616Y-124009428D01*
X142227616Y-124009428D02*
X142513330Y-124009428D01*
X142513330Y-124009428D02*
X142656187Y-123938000D01*
X142656187Y-123938000D02*
X142727616Y-123795142D01*
X142727616Y-123795142D02*
X142727616Y-123723714D01*
X142727616Y-123723714D02*
X142656187Y-123580857D01*
X142656187Y-123580857D02*
X142513330Y-123509428D01*
X142513330Y-123509428D02*
X142299045Y-123509428D01*
X142299045Y-123509428D02*
X142156187Y-123438000D01*
X142156187Y-123438000D02*
X142084759Y-123295142D01*
X142084759Y-123295142D02*
X142084759Y-123223714D01*
X142084759Y-123223714D02*
X142156187Y-123080857D01*
X142156187Y-123080857D02*
X142299045Y-123009428D01*
X142299045Y-123009428D02*
X142513330Y-123009428D01*
X142513330Y-123009428D02*
X142656187Y-123080857D01*
D11*
X152751503Y-111015800D02*
X153665789Y-111015800D01*
X153208646Y-111472942D02*
X153208646Y-110558657D01*
D12*
X135250939Y-86935400D02*
X136165225Y-86935400D01*
X135250939Y-84335400D02*
X136165225Y-84335400D01*
X135708082Y-84792542D02*
X135708082Y-83878257D01*
X156850939Y-86860400D02*
X157765225Y-86860400D01*
X113675939Y-86935400D02*
X114590225Y-86935400D01*
X135450939Y-89730400D02*
X135565225Y-89787542D01*
X135565225Y-89787542D02*
X135793796Y-89787542D01*
X135793796Y-89787542D02*
X135908082Y-89730400D01*
X135908082Y-89730400D02*
X135965225Y-89616114D01*
X135965225Y-89616114D02*
X135965225Y-89558971D01*
X135965225Y-89558971D02*
X135908082Y-89444685D01*
X135908082Y-89444685D02*
X135793796Y-89387542D01*
X135793796Y-89387542D02*
X135622368Y-89387542D01*
X135622368Y-89387542D02*
X135508082Y-89330400D01*
X135508082Y-89330400D02*
X135450939Y-89216114D01*
X135450939Y-89216114D02*
X135450939Y-89158971D01*
X135450939Y-89158971D02*
X135508082Y-89044685D01*
X135508082Y-89044685D02*
X135622368Y-88987542D01*
X135622368Y-88987542D02*
X135793796Y-88987542D01*
X135793796Y-88987542D02*
X135908082Y-89044685D01*
D11*
X109451503Y-111015800D02*
X110365789Y-111015800D01*
X109908646Y-111472942D02*
X109908646Y-110558657D01*
D12*
X113675939Y-84335400D02*
X114590225Y-84335400D01*
X114133082Y-84792542D02*
X114133082Y-83878257D01*
X92000939Y-84410400D02*
X92915225Y-84410400D01*
X92458082Y-84867542D02*
X92458082Y-83953257D01*
X92000939Y-87010400D02*
X92915225Y-87010400D01*
D11*
X174351503Y-110990800D02*
X175265789Y-110990800D01*
X174808646Y-111447942D02*
X174808646Y-110533657D01*
D10*
X157982414Y-120467104D02*
X158458604Y-120467104D01*
X157887176Y-120752819D02*
X158220509Y-119752819D01*
X158220509Y-119752819D02*
X158553842Y-120752819D01*
X159315747Y-120086152D02*
X159315747Y-120752819D01*
X159077652Y-119705200D02*
X158839557Y-120419485D01*
X158839557Y-120419485D02*
X159458604Y-120419485D01*
X100228095Y-81282819D02*
X100228095Y-80616152D01*
X100228095Y-80711390D02*
X100275714Y-80663771D01*
X100275714Y-80663771D02*
X100370952Y-80616152D01*
X100370952Y-80616152D02*
X100513809Y-80616152D01*
X100513809Y-80616152D02*
X100609047Y-80663771D01*
X100609047Y-80663771D02*
X100656666Y-80759009D01*
X100656666Y-80759009D02*
X100656666Y-81282819D01*
X100656666Y-80759009D02*
X100704285Y-80663771D01*
X100704285Y-80663771D02*
X100799523Y-80616152D01*
X100799523Y-80616152D02*
X100942380Y-80616152D01*
X100942380Y-80616152D02*
X101037619Y-80663771D01*
X101037619Y-80663771D02*
X101085238Y-80759009D01*
X101085238Y-80759009D02*
X101085238Y-81282819D01*
X101704285Y-81282819D02*
X101609047Y-81235200D01*
X101609047Y-81235200D02*
X101561428Y-81187580D01*
X101561428Y-81187580D02*
X101513809Y-81092342D01*
X101513809Y-81092342D02*
X101513809Y-80806628D01*
X101513809Y-80806628D02*
X101561428Y-80711390D01*
X101561428Y-80711390D02*
X101609047Y-80663771D01*
X101609047Y-80663771D02*
X101704285Y-80616152D01*
X101704285Y-80616152D02*
X101847142Y-80616152D01*
X101847142Y-80616152D02*
X101942380Y-80663771D01*
X101942380Y-80663771D02*
X101989999Y-80711390D01*
X101989999Y-80711390D02*
X102037618Y-80806628D01*
X102037618Y-80806628D02*
X102037618Y-81092342D01*
X102037618Y-81092342D02*
X101989999Y-81187580D01*
X101989999Y-81187580D02*
X101942380Y-81235200D01*
X101942380Y-81235200D02*
X101847142Y-81282819D01*
X101847142Y-81282819D02*
X101704285Y-81282819D01*
X102323333Y-80616152D02*
X102704285Y-80616152D01*
X102466190Y-80282819D02*
X102466190Y-81139961D01*
X102466190Y-81139961D02*
X102513809Y-81235200D01*
X102513809Y-81235200D02*
X102609047Y-81282819D01*
X102609047Y-81282819D02*
X102704285Y-81282819D01*
X103180476Y-81282819D02*
X103085238Y-81235200D01*
X103085238Y-81235200D02*
X103037619Y-81187580D01*
X103037619Y-81187580D02*
X102990000Y-81092342D01*
X102990000Y-81092342D02*
X102990000Y-80806628D01*
X102990000Y-80806628D02*
X103037619Y-80711390D01*
X103037619Y-80711390D02*
X103085238Y-80663771D01*
X103085238Y-80663771D02*
X103180476Y-80616152D01*
X103180476Y-80616152D02*
X103323333Y-80616152D01*
X103323333Y-80616152D02*
X103418571Y-80663771D01*
X103418571Y-80663771D02*
X103466190Y-80711390D01*
X103466190Y-80711390D02*
X103513809Y-80806628D01*
X103513809Y-80806628D02*
X103513809Y-81092342D01*
X103513809Y-81092342D02*
X103466190Y-81187580D01*
X103466190Y-81187580D02*
X103418571Y-81235200D01*
X103418571Y-81235200D02*
X103323333Y-81282819D01*
X103323333Y-81282819D02*
X103180476Y-81282819D01*
X103942381Y-81282819D02*
X103942381Y-80616152D01*
X103942381Y-80806628D02*
X103990000Y-80711390D01*
X103990000Y-80711390D02*
X104037619Y-80663771D01*
X104037619Y-80663771D02*
X104132857Y-80616152D01*
X104132857Y-80616152D02*
X104228095Y-80616152D01*
X105228096Y-80282819D02*
X105847143Y-80282819D01*
X105847143Y-80282819D02*
X105513810Y-80663771D01*
X105513810Y-80663771D02*
X105656667Y-80663771D01*
X105656667Y-80663771D02*
X105751905Y-80711390D01*
X105751905Y-80711390D02*
X105799524Y-80759009D01*
X105799524Y-80759009D02*
X105847143Y-80854247D01*
X105847143Y-80854247D02*
X105847143Y-81092342D01*
X105847143Y-81092342D02*
X105799524Y-81187580D01*
X105799524Y-81187580D02*
X105751905Y-81235200D01*
X105751905Y-81235200D02*
X105656667Y-81282819D01*
X105656667Y-81282819D02*
X105370953Y-81282819D01*
X105370953Y-81282819D02*
X105275715Y-81235200D01*
X105275715Y-81235200D02*
X105228096Y-81187580D01*
X106990000Y-80235200D02*
X106132858Y-81520914D01*
X107228096Y-80282819D02*
X107894762Y-80282819D01*
X107894762Y-80282819D02*
X107466191Y-81282819D01*
X108990000Y-80235200D02*
X108132858Y-81520914D01*
X109847143Y-81282819D02*
X109275715Y-81282819D01*
X109561429Y-81282819D02*
X109561429Y-80282819D01*
X109561429Y-80282819D02*
X109466191Y-80425676D01*
X109466191Y-80425676D02*
X109370953Y-80520914D01*
X109370953Y-80520914D02*
X109275715Y-80568533D01*
X110799524Y-81282819D02*
X110228096Y-81282819D01*
X110513810Y-81282819D02*
X110513810Y-80282819D01*
X110513810Y-80282819D02*
X110418572Y-80425676D01*
X110418572Y-80425676D02*
X110323334Y-80520914D01*
X110323334Y-80520914D02*
X110228096Y-80568533D01*
X93212414Y-120467104D02*
X93688604Y-120467104D01*
X93117176Y-120752819D02*
X93450509Y-119752819D01*
X93450509Y-119752819D02*
X93783842Y-120752819D01*
X94640985Y-120752819D02*
X94069557Y-120752819D01*
X94355271Y-120752819D02*
X94355271Y-119752819D01*
X94355271Y-119752819D02*
X94260033Y-119895676D01*
X94260033Y-119895676D02*
X94164795Y-119990914D01*
X94164795Y-119990914D02*
X94069557Y-120038533D01*
X91781333Y-93577580D02*
X91733714Y-93625200D01*
X91733714Y-93625200D02*
X91590857Y-93672819D01*
X91590857Y-93672819D02*
X91495619Y-93672819D01*
X91495619Y-93672819D02*
X91352762Y-93625200D01*
X91352762Y-93625200D02*
X91257524Y-93529961D01*
X91257524Y-93529961D02*
X91209905Y-93434723D01*
X91209905Y-93434723D02*
X91162286Y-93244247D01*
X91162286Y-93244247D02*
X91162286Y-93101390D01*
X91162286Y-93101390D02*
X91209905Y-92910914D01*
X91209905Y-92910914D02*
X91257524Y-92815676D01*
X91257524Y-92815676D02*
X91352762Y-92720438D01*
X91352762Y-92720438D02*
X91495619Y-92672819D01*
X91495619Y-92672819D02*
X91590857Y-92672819D01*
X91590857Y-92672819D02*
X91733714Y-92720438D01*
X91733714Y-92720438D02*
X91781333Y-92768057D01*
X92638476Y-92672819D02*
X92448000Y-92672819D01*
X92448000Y-92672819D02*
X92352762Y-92720438D01*
X92352762Y-92720438D02*
X92305143Y-92768057D01*
X92305143Y-92768057D02*
X92209905Y-92910914D01*
X92209905Y-92910914D02*
X92162286Y-93101390D01*
X92162286Y-93101390D02*
X92162286Y-93482342D01*
X92162286Y-93482342D02*
X92209905Y-93577580D01*
X92209905Y-93577580D02*
X92257524Y-93625200D01*
X92257524Y-93625200D02*
X92352762Y-93672819D01*
X92352762Y-93672819D02*
X92543238Y-93672819D01*
X92543238Y-93672819D02*
X92638476Y-93625200D01*
X92638476Y-93625200D02*
X92686095Y-93577580D01*
X92686095Y-93577580D02*
X92733714Y-93482342D01*
X92733714Y-93482342D02*
X92733714Y-93244247D01*
X92733714Y-93244247D02*
X92686095Y-93149009D01*
X92686095Y-93149009D02*
X92638476Y-93101390D01*
X92638476Y-93101390D02*
X92543238Y-93053771D01*
X92543238Y-93053771D02*
X92352762Y-93053771D01*
X92352762Y-93053771D02*
X92257524Y-93101390D01*
X92257524Y-93101390D02*
X92209905Y-93149009D01*
X92209905Y-93149009D02*
X92162286Y-93244247D01*
X164523333Y-98057580D02*
X164475714Y-98105200D01*
X164475714Y-98105200D02*
X164332857Y-98152819D01*
X164332857Y-98152819D02*
X164237619Y-98152819D01*
X164237619Y-98152819D02*
X164094762Y-98105200D01*
X164094762Y-98105200D02*
X163999524Y-98009961D01*
X163999524Y-98009961D02*
X163951905Y-97914723D01*
X163951905Y-97914723D02*
X163904286Y-97724247D01*
X163904286Y-97724247D02*
X163904286Y-97581390D01*
X163904286Y-97581390D02*
X163951905Y-97390914D01*
X163951905Y-97390914D02*
X163999524Y-97295676D01*
X163999524Y-97295676D02*
X164094762Y-97200438D01*
X164094762Y-97200438D02*
X164237619Y-97152819D01*
X164237619Y-97152819D02*
X164332857Y-97152819D01*
X164332857Y-97152819D02*
X164475714Y-97200438D01*
X164475714Y-97200438D02*
X164523333Y-97248057D01*
X165428095Y-97152819D02*
X164951905Y-97152819D01*
X164951905Y-97152819D02*
X164904286Y-97629009D01*
X164904286Y-97629009D02*
X164951905Y-97581390D01*
X164951905Y-97581390D02*
X165047143Y-97533771D01*
X165047143Y-97533771D02*
X165285238Y-97533771D01*
X165285238Y-97533771D02*
X165380476Y-97581390D01*
X165380476Y-97581390D02*
X165428095Y-97629009D01*
X165428095Y-97629009D02*
X165475714Y-97724247D01*
X165475714Y-97724247D02*
X165475714Y-97962342D01*
X165475714Y-97962342D02*
X165428095Y-98057580D01*
X165428095Y-98057580D02*
X165380476Y-98105200D01*
X165380476Y-98105200D02*
X165285238Y-98152819D01*
X165285238Y-98152819D02*
X165047143Y-98152819D01*
X165047143Y-98152819D02*
X164951905Y-98105200D01*
X164951905Y-98105200D02*
X164904286Y-98057580D01*
X99753333Y-97657580D02*
X99705714Y-97705200D01*
X99705714Y-97705200D02*
X99562857Y-97752819D01*
X99562857Y-97752819D02*
X99467619Y-97752819D01*
X99467619Y-97752819D02*
X99324762Y-97705200D01*
X99324762Y-97705200D02*
X99229524Y-97609961D01*
X99229524Y-97609961D02*
X99181905Y-97514723D01*
X99181905Y-97514723D02*
X99134286Y-97324247D01*
X99134286Y-97324247D02*
X99134286Y-97181390D01*
X99134286Y-97181390D02*
X99181905Y-96990914D01*
X99181905Y-96990914D02*
X99229524Y-96895676D01*
X99229524Y-96895676D02*
X99324762Y-96800438D01*
X99324762Y-96800438D02*
X99467619Y-96752819D01*
X99467619Y-96752819D02*
X99562857Y-96752819D01*
X99562857Y-96752819D02*
X99705714Y-96800438D01*
X99705714Y-96800438D02*
X99753333Y-96848057D01*
X100134286Y-96848057D02*
X100181905Y-96800438D01*
X100181905Y-96800438D02*
X100277143Y-96752819D01*
X100277143Y-96752819D02*
X100515238Y-96752819D01*
X100515238Y-96752819D02*
X100610476Y-96800438D01*
X100610476Y-96800438D02*
X100658095Y-96848057D01*
X100658095Y-96848057D02*
X100705714Y-96943295D01*
X100705714Y-96943295D02*
X100705714Y-97038533D01*
X100705714Y-97038533D02*
X100658095Y-97181390D01*
X100658095Y-97181390D02*
X100086667Y-97752819D01*
X100086667Y-97752819D02*
X100705714Y-97752819D01*
X90593333Y-123021580D02*
X90545714Y-123069200D01*
X90545714Y-123069200D02*
X90402857Y-123116819D01*
X90402857Y-123116819D02*
X90307619Y-123116819D01*
X90307619Y-123116819D02*
X90164762Y-123069200D01*
X90164762Y-123069200D02*
X90069524Y-122973961D01*
X90069524Y-122973961D02*
X90021905Y-122878723D01*
X90021905Y-122878723D02*
X89974286Y-122688247D01*
X89974286Y-122688247D02*
X89974286Y-122545390D01*
X89974286Y-122545390D02*
X90021905Y-122354914D01*
X90021905Y-122354914D02*
X90069524Y-122259676D01*
X90069524Y-122259676D02*
X90164762Y-122164438D01*
X90164762Y-122164438D02*
X90307619Y-122116819D01*
X90307619Y-122116819D02*
X90402857Y-122116819D01*
X90402857Y-122116819D02*
X90545714Y-122164438D01*
X90545714Y-122164438D02*
X90593333Y-122212057D01*
X91545714Y-123116819D02*
X90974286Y-123116819D01*
X91260000Y-123116819D02*
X91260000Y-122116819D01*
X91260000Y-122116819D02*
X91164762Y-122259676D01*
X91164762Y-122259676D02*
X91069524Y-122354914D01*
X91069524Y-122354914D02*
X90974286Y-122402533D01*
X156551333Y-93577580D02*
X156503714Y-93625200D01*
X156503714Y-93625200D02*
X156360857Y-93672819D01*
X156360857Y-93672819D02*
X156265619Y-93672819D01*
X156265619Y-93672819D02*
X156122762Y-93625200D01*
X156122762Y-93625200D02*
X156027524Y-93529961D01*
X156027524Y-93529961D02*
X155979905Y-93434723D01*
X155979905Y-93434723D02*
X155932286Y-93244247D01*
X155932286Y-93244247D02*
X155932286Y-93101390D01*
X155932286Y-93101390D02*
X155979905Y-92910914D01*
X155979905Y-92910914D02*
X156027524Y-92815676D01*
X156027524Y-92815676D02*
X156122762Y-92720438D01*
X156122762Y-92720438D02*
X156265619Y-92672819D01*
X156265619Y-92672819D02*
X156360857Y-92672819D01*
X156360857Y-92672819D02*
X156503714Y-92720438D01*
X156503714Y-92720438D02*
X156551333Y-92768057D01*
X157027524Y-93672819D02*
X157218000Y-93672819D01*
X157218000Y-93672819D02*
X157313238Y-93625200D01*
X157313238Y-93625200D02*
X157360857Y-93577580D01*
X157360857Y-93577580D02*
X157456095Y-93434723D01*
X157456095Y-93434723D02*
X157503714Y-93244247D01*
X157503714Y-93244247D02*
X157503714Y-92863295D01*
X157503714Y-92863295D02*
X157456095Y-92768057D01*
X157456095Y-92768057D02*
X157408476Y-92720438D01*
X157408476Y-92720438D02*
X157313238Y-92672819D01*
X157313238Y-92672819D02*
X157122762Y-92672819D01*
X157122762Y-92672819D02*
X157027524Y-92720438D01*
X157027524Y-92720438D02*
X156979905Y-92768057D01*
X156979905Y-92768057D02*
X156932286Y-92863295D01*
X156932286Y-92863295D02*
X156932286Y-93101390D01*
X156932286Y-93101390D02*
X156979905Y-93196628D01*
X156979905Y-93196628D02*
X157027524Y-93244247D01*
X157027524Y-93244247D02*
X157122762Y-93291866D01*
X157122762Y-93291866D02*
X157313238Y-93291866D01*
X157313238Y-93291866D02*
X157408476Y-93244247D01*
X157408476Y-93244247D02*
X157456095Y-93196628D01*
X157456095Y-93196628D02*
X157503714Y-93101390D01*
X85126666Y-83270819D02*
X85126666Y-83985104D01*
X85126666Y-83985104D02*
X85079047Y-84127961D01*
X85079047Y-84127961D02*
X84983809Y-84223200D01*
X84983809Y-84223200D02*
X84840952Y-84270819D01*
X84840952Y-84270819D02*
X84745714Y-84270819D01*
X86126666Y-84270819D02*
X85555238Y-84270819D01*
X85840952Y-84270819D02*
X85840952Y-83270819D01*
X85840952Y-83270819D02*
X85745714Y-83413676D01*
X85745714Y-83413676D02*
X85650476Y-83508914D01*
X85650476Y-83508914D02*
X85555238Y-83556533D01*
X134961333Y-93577580D02*
X134913714Y-93625200D01*
X134913714Y-93625200D02*
X134770857Y-93672819D01*
X134770857Y-93672819D02*
X134675619Y-93672819D01*
X134675619Y-93672819D02*
X134532762Y-93625200D01*
X134532762Y-93625200D02*
X134437524Y-93529961D01*
X134437524Y-93529961D02*
X134389905Y-93434723D01*
X134389905Y-93434723D02*
X134342286Y-93244247D01*
X134342286Y-93244247D02*
X134342286Y-93101390D01*
X134342286Y-93101390D02*
X134389905Y-92910914D01*
X134389905Y-92910914D02*
X134437524Y-92815676D01*
X134437524Y-92815676D02*
X134532762Y-92720438D01*
X134532762Y-92720438D02*
X134675619Y-92672819D01*
X134675619Y-92672819D02*
X134770857Y-92672819D01*
X134770857Y-92672819D02*
X134913714Y-92720438D01*
X134913714Y-92720438D02*
X134961333Y-92768057D01*
X135532762Y-93101390D02*
X135437524Y-93053771D01*
X135437524Y-93053771D02*
X135389905Y-93006152D01*
X135389905Y-93006152D02*
X135342286Y-92910914D01*
X135342286Y-92910914D02*
X135342286Y-92863295D01*
X135342286Y-92863295D02*
X135389905Y-92768057D01*
X135389905Y-92768057D02*
X135437524Y-92720438D01*
X135437524Y-92720438D02*
X135532762Y-92672819D01*
X135532762Y-92672819D02*
X135723238Y-92672819D01*
X135723238Y-92672819D02*
X135818476Y-92720438D01*
X135818476Y-92720438D02*
X135866095Y-92768057D01*
X135866095Y-92768057D02*
X135913714Y-92863295D01*
X135913714Y-92863295D02*
X135913714Y-92910914D01*
X135913714Y-92910914D02*
X135866095Y-93006152D01*
X135866095Y-93006152D02*
X135818476Y-93053771D01*
X135818476Y-93053771D02*
X135723238Y-93101390D01*
X135723238Y-93101390D02*
X135532762Y-93101390D01*
X135532762Y-93101390D02*
X135437524Y-93149009D01*
X135437524Y-93149009D02*
X135389905Y-93196628D01*
X135389905Y-93196628D02*
X135342286Y-93291866D01*
X135342286Y-93291866D02*
X135342286Y-93482342D01*
X135342286Y-93482342D02*
X135389905Y-93577580D01*
X135389905Y-93577580D02*
X135437524Y-93625200D01*
X135437524Y-93625200D02*
X135532762Y-93672819D01*
X135532762Y-93672819D02*
X135723238Y-93672819D01*
X135723238Y-93672819D02*
X135818476Y-93625200D01*
X135818476Y-93625200D02*
X135866095Y-93577580D01*
X135866095Y-93577580D02*
X135913714Y-93482342D01*
X135913714Y-93482342D02*
X135913714Y-93291866D01*
X135913714Y-93291866D02*
X135866095Y-93196628D01*
X135866095Y-93196628D02*
X135818476Y-93149009D01*
X135818476Y-93149009D02*
X135723238Y-93101390D01*
X121343333Y-97657580D02*
X121295714Y-97705200D01*
X121295714Y-97705200D02*
X121152857Y-97752819D01*
X121152857Y-97752819D02*
X121057619Y-97752819D01*
X121057619Y-97752819D02*
X120914762Y-97705200D01*
X120914762Y-97705200D02*
X120819524Y-97609961D01*
X120819524Y-97609961D02*
X120771905Y-97514723D01*
X120771905Y-97514723D02*
X120724286Y-97324247D01*
X120724286Y-97324247D02*
X120724286Y-97181390D01*
X120724286Y-97181390D02*
X120771905Y-96990914D01*
X120771905Y-96990914D02*
X120819524Y-96895676D01*
X120819524Y-96895676D02*
X120914762Y-96800438D01*
X120914762Y-96800438D02*
X121057619Y-96752819D01*
X121057619Y-96752819D02*
X121152857Y-96752819D01*
X121152857Y-96752819D02*
X121295714Y-96800438D01*
X121295714Y-96800438D02*
X121343333Y-96848057D01*
X121676667Y-96752819D02*
X122295714Y-96752819D01*
X122295714Y-96752819D02*
X121962381Y-97133771D01*
X121962381Y-97133771D02*
X122105238Y-97133771D01*
X122105238Y-97133771D02*
X122200476Y-97181390D01*
X122200476Y-97181390D02*
X122248095Y-97229009D01*
X122248095Y-97229009D02*
X122295714Y-97324247D01*
X122295714Y-97324247D02*
X122295714Y-97562342D01*
X122295714Y-97562342D02*
X122248095Y-97657580D01*
X122248095Y-97657580D02*
X122200476Y-97705200D01*
X122200476Y-97705200D02*
X122105238Y-97752819D01*
X122105238Y-97752819D02*
X121819524Y-97752819D01*
X121819524Y-97752819D02*
X121724286Y-97705200D01*
X121724286Y-97705200D02*
X121676667Y-97657580D01*
X114802414Y-120467104D02*
X115278604Y-120467104D01*
X114707176Y-120752819D02*
X115040509Y-119752819D01*
X115040509Y-119752819D02*
X115373842Y-120752819D01*
X115659557Y-119848057D02*
X115707176Y-119800438D01*
X115707176Y-119800438D02*
X115802414Y-119752819D01*
X115802414Y-119752819D02*
X116040509Y-119752819D01*
X116040509Y-119752819D02*
X116135747Y-119800438D01*
X116135747Y-119800438D02*
X116183366Y-119848057D01*
X116183366Y-119848057D02*
X116230985Y-119943295D01*
X116230985Y-119943295D02*
X116230985Y-120038533D01*
X116230985Y-120038533D02*
X116183366Y-120181390D01*
X116183366Y-120181390D02*
X115611938Y-120752819D01*
X115611938Y-120752819D02*
X116230985Y-120752819D01*
X113371333Y-93577580D02*
X113323714Y-93625200D01*
X113323714Y-93625200D02*
X113180857Y-93672819D01*
X113180857Y-93672819D02*
X113085619Y-93672819D01*
X113085619Y-93672819D02*
X112942762Y-93625200D01*
X112942762Y-93625200D02*
X112847524Y-93529961D01*
X112847524Y-93529961D02*
X112799905Y-93434723D01*
X112799905Y-93434723D02*
X112752286Y-93244247D01*
X112752286Y-93244247D02*
X112752286Y-93101390D01*
X112752286Y-93101390D02*
X112799905Y-92910914D01*
X112799905Y-92910914D02*
X112847524Y-92815676D01*
X112847524Y-92815676D02*
X112942762Y-92720438D01*
X112942762Y-92720438D02*
X113085619Y-92672819D01*
X113085619Y-92672819D02*
X113180857Y-92672819D01*
X113180857Y-92672819D02*
X113323714Y-92720438D01*
X113323714Y-92720438D02*
X113371333Y-92768057D01*
X113704667Y-92672819D02*
X114371333Y-92672819D01*
X114371333Y-92672819D02*
X113942762Y-93672819D01*
X136392414Y-120467104D02*
X136868604Y-120467104D01*
X136297176Y-120752819D02*
X136630509Y-119752819D01*
X136630509Y-119752819D02*
X136963842Y-120752819D01*
X137201938Y-119752819D02*
X137820985Y-119752819D01*
X137820985Y-119752819D02*
X137487652Y-120133771D01*
X137487652Y-120133771D02*
X137630509Y-120133771D01*
X137630509Y-120133771D02*
X137725747Y-120181390D01*
X137725747Y-120181390D02*
X137773366Y-120229009D01*
X137773366Y-120229009D02*
X137820985Y-120324247D01*
X137820985Y-120324247D02*
X137820985Y-120562342D01*
X137820985Y-120562342D02*
X137773366Y-120657580D01*
X137773366Y-120657580D02*
X137725747Y-120705200D01*
X137725747Y-120705200D02*
X137630509Y-120752819D01*
X137630509Y-120752819D02*
X137344795Y-120752819D01*
X137344795Y-120752819D02*
X137249557Y-120705200D01*
X137249557Y-120705200D02*
X137201938Y-120657580D01*
X143884285Y-81282819D02*
X143884285Y-80616152D01*
X143884285Y-80711390D02*
X143931904Y-80663771D01*
X143931904Y-80663771D02*
X144027142Y-80616152D01*
X144027142Y-80616152D02*
X144169999Y-80616152D01*
X144169999Y-80616152D02*
X144265237Y-80663771D01*
X144265237Y-80663771D02*
X144312856Y-80759009D01*
X144312856Y-80759009D02*
X144312856Y-81282819D01*
X144312856Y-80759009D02*
X144360475Y-80663771D01*
X144360475Y-80663771D02*
X144455713Y-80616152D01*
X144455713Y-80616152D02*
X144598570Y-80616152D01*
X144598570Y-80616152D02*
X144693809Y-80663771D01*
X144693809Y-80663771D02*
X144741428Y-80759009D01*
X144741428Y-80759009D02*
X144741428Y-81282819D01*
X145360475Y-81282819D02*
X145265237Y-81235200D01*
X145265237Y-81235200D02*
X145217618Y-81187580D01*
X145217618Y-81187580D02*
X145169999Y-81092342D01*
X145169999Y-81092342D02*
X145169999Y-80806628D01*
X145169999Y-80806628D02*
X145217618Y-80711390D01*
X145217618Y-80711390D02*
X145265237Y-80663771D01*
X145265237Y-80663771D02*
X145360475Y-80616152D01*
X145360475Y-80616152D02*
X145503332Y-80616152D01*
X145503332Y-80616152D02*
X145598570Y-80663771D01*
X145598570Y-80663771D02*
X145646189Y-80711390D01*
X145646189Y-80711390D02*
X145693808Y-80806628D01*
X145693808Y-80806628D02*
X145693808Y-81092342D01*
X145693808Y-81092342D02*
X145646189Y-81187580D01*
X145646189Y-81187580D02*
X145598570Y-81235200D01*
X145598570Y-81235200D02*
X145503332Y-81282819D01*
X145503332Y-81282819D02*
X145360475Y-81282819D01*
X145979523Y-80616152D02*
X146360475Y-80616152D01*
X146122380Y-80282819D02*
X146122380Y-81139961D01*
X146122380Y-81139961D02*
X146169999Y-81235200D01*
X146169999Y-81235200D02*
X146265237Y-81282819D01*
X146265237Y-81282819D02*
X146360475Y-81282819D01*
X146836666Y-81282819D02*
X146741428Y-81235200D01*
X146741428Y-81235200D02*
X146693809Y-81187580D01*
X146693809Y-81187580D02*
X146646190Y-81092342D01*
X146646190Y-81092342D02*
X146646190Y-80806628D01*
X146646190Y-80806628D02*
X146693809Y-80711390D01*
X146693809Y-80711390D02*
X146741428Y-80663771D01*
X146741428Y-80663771D02*
X146836666Y-80616152D01*
X146836666Y-80616152D02*
X146979523Y-80616152D01*
X146979523Y-80616152D02*
X147074761Y-80663771D01*
X147074761Y-80663771D02*
X147122380Y-80711390D01*
X147122380Y-80711390D02*
X147169999Y-80806628D01*
X147169999Y-80806628D02*
X147169999Y-81092342D01*
X147169999Y-81092342D02*
X147122380Y-81187580D01*
X147122380Y-81187580D02*
X147074761Y-81235200D01*
X147074761Y-81235200D02*
X146979523Y-81282819D01*
X146979523Y-81282819D02*
X146836666Y-81282819D01*
X147598571Y-81282819D02*
X147598571Y-80616152D01*
X147598571Y-80806628D02*
X147646190Y-80711390D01*
X147646190Y-80711390D02*
X147693809Y-80663771D01*
X147693809Y-80663771D02*
X147789047Y-80616152D01*
X147789047Y-80616152D02*
X147884285Y-80616152D01*
X149503333Y-81282819D02*
X148931905Y-81282819D01*
X149217619Y-81282819D02*
X149217619Y-80282819D01*
X149217619Y-80282819D02*
X149122381Y-80425676D01*
X149122381Y-80425676D02*
X149027143Y-80520914D01*
X149027143Y-80520914D02*
X148931905Y-80568533D01*
X150646190Y-80235200D02*
X149789048Y-81520914D01*
X151455714Y-80282819D02*
X150979524Y-80282819D01*
X150979524Y-80282819D02*
X150931905Y-80759009D01*
X150931905Y-80759009D02*
X150979524Y-80711390D01*
X150979524Y-80711390D02*
X151074762Y-80663771D01*
X151074762Y-80663771D02*
X151312857Y-80663771D01*
X151312857Y-80663771D02*
X151408095Y-80711390D01*
X151408095Y-80711390D02*
X151455714Y-80759009D01*
X151455714Y-80759009D02*
X151503333Y-80854247D01*
X151503333Y-80854247D02*
X151503333Y-81092342D01*
X151503333Y-81092342D02*
X151455714Y-81187580D01*
X151455714Y-81187580D02*
X151408095Y-81235200D01*
X151408095Y-81235200D02*
X151312857Y-81282819D01*
X151312857Y-81282819D02*
X151074762Y-81282819D01*
X151074762Y-81282819D02*
X150979524Y-81235200D01*
X150979524Y-81235200D02*
X150931905Y-81187580D01*
X152646190Y-80235200D02*
X151789048Y-81520914D01*
X153027143Y-81282819D02*
X153217619Y-81282819D01*
X153217619Y-81282819D02*
X153312857Y-81235200D01*
X153312857Y-81235200D02*
X153360476Y-81187580D01*
X153360476Y-81187580D02*
X153455714Y-81044723D01*
X153455714Y-81044723D02*
X153503333Y-80854247D01*
X153503333Y-80854247D02*
X153503333Y-80473295D01*
X153503333Y-80473295D02*
X153455714Y-80378057D01*
X153455714Y-80378057D02*
X153408095Y-80330438D01*
X153408095Y-80330438D02*
X153312857Y-80282819D01*
X153312857Y-80282819D02*
X153122381Y-80282819D01*
X153122381Y-80282819D02*
X153027143Y-80330438D01*
X153027143Y-80330438D02*
X152979524Y-80378057D01*
X152979524Y-80378057D02*
X152931905Y-80473295D01*
X152931905Y-80473295D02*
X152931905Y-80711390D01*
X152931905Y-80711390D02*
X152979524Y-80806628D01*
X152979524Y-80806628D02*
X153027143Y-80854247D01*
X153027143Y-80854247D02*
X153122381Y-80901866D01*
X153122381Y-80901866D02*
X153312857Y-80901866D01*
X153312857Y-80901866D02*
X153408095Y-80854247D01*
X153408095Y-80854247D02*
X153455714Y-80806628D01*
X153455714Y-80806628D02*
X153503333Y-80711390D01*
X165484285Y-81282819D02*
X165484285Y-80616152D01*
X165484285Y-80711390D02*
X165531904Y-80663771D01*
X165531904Y-80663771D02*
X165627142Y-80616152D01*
X165627142Y-80616152D02*
X165769999Y-80616152D01*
X165769999Y-80616152D02*
X165865237Y-80663771D01*
X165865237Y-80663771D02*
X165912856Y-80759009D01*
X165912856Y-80759009D02*
X165912856Y-81282819D01*
X165912856Y-80759009D02*
X165960475Y-80663771D01*
X165960475Y-80663771D02*
X166055713Y-80616152D01*
X166055713Y-80616152D02*
X166198570Y-80616152D01*
X166198570Y-80616152D02*
X166293809Y-80663771D01*
X166293809Y-80663771D02*
X166341428Y-80759009D01*
X166341428Y-80759009D02*
X166341428Y-81282819D01*
X166960475Y-81282819D02*
X166865237Y-81235200D01*
X166865237Y-81235200D02*
X166817618Y-81187580D01*
X166817618Y-81187580D02*
X166769999Y-81092342D01*
X166769999Y-81092342D02*
X166769999Y-80806628D01*
X166769999Y-80806628D02*
X166817618Y-80711390D01*
X166817618Y-80711390D02*
X166865237Y-80663771D01*
X166865237Y-80663771D02*
X166960475Y-80616152D01*
X166960475Y-80616152D02*
X167103332Y-80616152D01*
X167103332Y-80616152D02*
X167198570Y-80663771D01*
X167198570Y-80663771D02*
X167246189Y-80711390D01*
X167246189Y-80711390D02*
X167293808Y-80806628D01*
X167293808Y-80806628D02*
X167293808Y-81092342D01*
X167293808Y-81092342D02*
X167246189Y-81187580D01*
X167246189Y-81187580D02*
X167198570Y-81235200D01*
X167198570Y-81235200D02*
X167103332Y-81282819D01*
X167103332Y-81282819D02*
X166960475Y-81282819D01*
X167579523Y-80616152D02*
X167960475Y-80616152D01*
X167722380Y-80282819D02*
X167722380Y-81139961D01*
X167722380Y-81139961D02*
X167769999Y-81235200D01*
X167769999Y-81235200D02*
X167865237Y-81282819D01*
X167865237Y-81282819D02*
X167960475Y-81282819D01*
X168436666Y-81282819D02*
X168341428Y-81235200D01*
X168341428Y-81235200D02*
X168293809Y-81187580D01*
X168293809Y-81187580D02*
X168246190Y-81092342D01*
X168246190Y-81092342D02*
X168246190Y-80806628D01*
X168246190Y-80806628D02*
X168293809Y-80711390D01*
X168293809Y-80711390D02*
X168341428Y-80663771D01*
X168341428Y-80663771D02*
X168436666Y-80616152D01*
X168436666Y-80616152D02*
X168579523Y-80616152D01*
X168579523Y-80616152D02*
X168674761Y-80663771D01*
X168674761Y-80663771D02*
X168722380Y-80711390D01*
X168722380Y-80711390D02*
X168769999Y-80806628D01*
X168769999Y-80806628D02*
X168769999Y-81092342D01*
X168769999Y-81092342D02*
X168722380Y-81187580D01*
X168722380Y-81187580D02*
X168674761Y-81235200D01*
X168674761Y-81235200D02*
X168579523Y-81282819D01*
X168579523Y-81282819D02*
X168436666Y-81282819D01*
X169198571Y-81282819D02*
X169198571Y-80616152D01*
X169198571Y-80806628D02*
X169246190Y-80711390D01*
X169246190Y-80711390D02*
X169293809Y-80663771D01*
X169293809Y-80663771D02*
X169389047Y-80616152D01*
X169389047Y-80616152D02*
X169484285Y-80616152D01*
X170770000Y-80282819D02*
X170865238Y-80282819D01*
X170865238Y-80282819D02*
X170960476Y-80330438D01*
X170960476Y-80330438D02*
X171008095Y-80378057D01*
X171008095Y-80378057D02*
X171055714Y-80473295D01*
X171055714Y-80473295D02*
X171103333Y-80663771D01*
X171103333Y-80663771D02*
X171103333Y-80901866D01*
X171103333Y-80901866D02*
X171055714Y-81092342D01*
X171055714Y-81092342D02*
X171008095Y-81187580D01*
X171008095Y-81187580D02*
X170960476Y-81235200D01*
X170960476Y-81235200D02*
X170865238Y-81282819D01*
X170865238Y-81282819D02*
X170770000Y-81282819D01*
X170770000Y-81282819D02*
X170674762Y-81235200D01*
X170674762Y-81235200D02*
X170627143Y-81187580D01*
X170627143Y-81187580D02*
X170579524Y-81092342D01*
X170579524Y-81092342D02*
X170531905Y-80901866D01*
X170531905Y-80901866D02*
X170531905Y-80663771D01*
X170531905Y-80663771D02*
X170579524Y-80473295D01*
X170579524Y-80473295D02*
X170627143Y-80378057D01*
X170627143Y-80378057D02*
X170674762Y-80330438D01*
X170674762Y-80330438D02*
X170770000Y-80282819D01*
X172246190Y-80235200D02*
X171389048Y-81520914D01*
X173008095Y-80616152D02*
X173008095Y-81282819D01*
X172770000Y-80235200D02*
X172531905Y-80949485D01*
X172531905Y-80949485D02*
X173150952Y-80949485D01*
X174246190Y-80235200D02*
X173389048Y-81520914D01*
X174722381Y-80711390D02*
X174627143Y-80663771D01*
X174627143Y-80663771D02*
X174579524Y-80616152D01*
X174579524Y-80616152D02*
X174531905Y-80520914D01*
X174531905Y-80520914D02*
X174531905Y-80473295D01*
X174531905Y-80473295D02*
X174579524Y-80378057D01*
X174579524Y-80378057D02*
X174627143Y-80330438D01*
X174627143Y-80330438D02*
X174722381Y-80282819D01*
X174722381Y-80282819D02*
X174912857Y-80282819D01*
X174912857Y-80282819D02*
X175008095Y-80330438D01*
X175008095Y-80330438D02*
X175055714Y-80378057D01*
X175055714Y-80378057D02*
X175103333Y-80473295D01*
X175103333Y-80473295D02*
X175103333Y-80520914D01*
X175103333Y-80520914D02*
X175055714Y-80616152D01*
X175055714Y-80616152D02*
X175008095Y-80663771D01*
X175008095Y-80663771D02*
X174912857Y-80711390D01*
X174912857Y-80711390D02*
X174722381Y-80711390D01*
X174722381Y-80711390D02*
X174627143Y-80759009D01*
X174627143Y-80759009D02*
X174579524Y-80806628D01*
X174579524Y-80806628D02*
X174531905Y-80901866D01*
X174531905Y-80901866D02*
X174531905Y-81092342D01*
X174531905Y-81092342D02*
X174579524Y-81187580D01*
X174579524Y-81187580D02*
X174627143Y-81235200D01*
X174627143Y-81235200D02*
X174722381Y-81282819D01*
X174722381Y-81282819D02*
X174912857Y-81282819D01*
X174912857Y-81282819D02*
X175008095Y-81235200D01*
X175008095Y-81235200D02*
X175055714Y-81187580D01*
X175055714Y-81187580D02*
X175103333Y-81092342D01*
X175103333Y-81092342D02*
X175103333Y-80901866D01*
X175103333Y-80901866D02*
X175055714Y-80806628D01*
X175055714Y-80806628D02*
X175008095Y-80759009D01*
X175008095Y-80759009D02*
X174912857Y-80711390D01*
X121818095Y-81282819D02*
X121818095Y-80616152D01*
X121818095Y-80711390D02*
X121865714Y-80663771D01*
X121865714Y-80663771D02*
X121960952Y-80616152D01*
X121960952Y-80616152D02*
X122103809Y-80616152D01*
X122103809Y-80616152D02*
X122199047Y-80663771D01*
X122199047Y-80663771D02*
X122246666Y-80759009D01*
X122246666Y-80759009D02*
X122246666Y-81282819D01*
X122246666Y-80759009D02*
X122294285Y-80663771D01*
X122294285Y-80663771D02*
X122389523Y-80616152D01*
X122389523Y-80616152D02*
X122532380Y-80616152D01*
X122532380Y-80616152D02*
X122627619Y-80663771D01*
X122627619Y-80663771D02*
X122675238Y-80759009D01*
X122675238Y-80759009D02*
X122675238Y-81282819D01*
X123294285Y-81282819D02*
X123199047Y-81235200D01*
X123199047Y-81235200D02*
X123151428Y-81187580D01*
X123151428Y-81187580D02*
X123103809Y-81092342D01*
X123103809Y-81092342D02*
X123103809Y-80806628D01*
X123103809Y-80806628D02*
X123151428Y-80711390D01*
X123151428Y-80711390D02*
X123199047Y-80663771D01*
X123199047Y-80663771D02*
X123294285Y-80616152D01*
X123294285Y-80616152D02*
X123437142Y-80616152D01*
X123437142Y-80616152D02*
X123532380Y-80663771D01*
X123532380Y-80663771D02*
X123579999Y-80711390D01*
X123579999Y-80711390D02*
X123627618Y-80806628D01*
X123627618Y-80806628D02*
X123627618Y-81092342D01*
X123627618Y-81092342D02*
X123579999Y-81187580D01*
X123579999Y-81187580D02*
X123532380Y-81235200D01*
X123532380Y-81235200D02*
X123437142Y-81282819D01*
X123437142Y-81282819D02*
X123294285Y-81282819D01*
X123913333Y-80616152D02*
X124294285Y-80616152D01*
X124056190Y-80282819D02*
X124056190Y-81139961D01*
X124056190Y-81139961D02*
X124103809Y-81235200D01*
X124103809Y-81235200D02*
X124199047Y-81282819D01*
X124199047Y-81282819D02*
X124294285Y-81282819D01*
X124770476Y-81282819D02*
X124675238Y-81235200D01*
X124675238Y-81235200D02*
X124627619Y-81187580D01*
X124627619Y-81187580D02*
X124580000Y-81092342D01*
X124580000Y-81092342D02*
X124580000Y-80806628D01*
X124580000Y-80806628D02*
X124627619Y-80711390D01*
X124627619Y-80711390D02*
X124675238Y-80663771D01*
X124675238Y-80663771D02*
X124770476Y-80616152D01*
X124770476Y-80616152D02*
X124913333Y-80616152D01*
X124913333Y-80616152D02*
X125008571Y-80663771D01*
X125008571Y-80663771D02*
X125056190Y-80711390D01*
X125056190Y-80711390D02*
X125103809Y-80806628D01*
X125103809Y-80806628D02*
X125103809Y-81092342D01*
X125103809Y-81092342D02*
X125056190Y-81187580D01*
X125056190Y-81187580D02*
X125008571Y-81235200D01*
X125008571Y-81235200D02*
X124913333Y-81282819D01*
X124913333Y-81282819D02*
X124770476Y-81282819D01*
X125532381Y-81282819D02*
X125532381Y-80616152D01*
X125532381Y-80806628D02*
X125580000Y-80711390D01*
X125580000Y-80711390D02*
X125627619Y-80663771D01*
X125627619Y-80663771D02*
X125722857Y-80616152D01*
X125722857Y-80616152D02*
X125818095Y-80616152D01*
X126865715Y-80378057D02*
X126913334Y-80330438D01*
X126913334Y-80330438D02*
X127008572Y-80282819D01*
X127008572Y-80282819D02*
X127246667Y-80282819D01*
X127246667Y-80282819D02*
X127341905Y-80330438D01*
X127341905Y-80330438D02*
X127389524Y-80378057D01*
X127389524Y-80378057D02*
X127437143Y-80473295D01*
X127437143Y-80473295D02*
X127437143Y-80568533D01*
X127437143Y-80568533D02*
X127389524Y-80711390D01*
X127389524Y-80711390D02*
X126818096Y-81282819D01*
X126818096Y-81282819D02*
X127437143Y-81282819D01*
X128580000Y-80235200D02*
X127722858Y-81520914D01*
X129341905Y-80282819D02*
X129151429Y-80282819D01*
X129151429Y-80282819D02*
X129056191Y-80330438D01*
X129056191Y-80330438D02*
X129008572Y-80378057D01*
X129008572Y-80378057D02*
X128913334Y-80520914D01*
X128913334Y-80520914D02*
X128865715Y-80711390D01*
X128865715Y-80711390D02*
X128865715Y-81092342D01*
X128865715Y-81092342D02*
X128913334Y-81187580D01*
X128913334Y-81187580D02*
X128960953Y-81235200D01*
X128960953Y-81235200D02*
X129056191Y-81282819D01*
X129056191Y-81282819D02*
X129246667Y-81282819D01*
X129246667Y-81282819D02*
X129341905Y-81235200D01*
X129341905Y-81235200D02*
X129389524Y-81187580D01*
X129389524Y-81187580D02*
X129437143Y-81092342D01*
X129437143Y-81092342D02*
X129437143Y-80854247D01*
X129437143Y-80854247D02*
X129389524Y-80759009D01*
X129389524Y-80759009D02*
X129341905Y-80711390D01*
X129341905Y-80711390D02*
X129246667Y-80663771D01*
X129246667Y-80663771D02*
X129056191Y-80663771D01*
X129056191Y-80663771D02*
X128960953Y-80711390D01*
X128960953Y-80711390D02*
X128913334Y-80759009D01*
X128913334Y-80759009D02*
X128865715Y-80854247D01*
X130580000Y-80235200D02*
X129722858Y-81520914D01*
X131437143Y-81282819D02*
X130865715Y-81282819D01*
X131151429Y-81282819D02*
X131151429Y-80282819D01*
X131151429Y-80282819D02*
X131056191Y-80425676D01*
X131056191Y-80425676D02*
X130960953Y-80520914D01*
X130960953Y-80520914D02*
X130865715Y-80568533D01*
X132056191Y-80282819D02*
X132151429Y-80282819D01*
X132151429Y-80282819D02*
X132246667Y-80330438D01*
X132246667Y-80330438D02*
X132294286Y-80378057D01*
X132294286Y-80378057D02*
X132341905Y-80473295D01*
X132341905Y-80473295D02*
X132389524Y-80663771D01*
X132389524Y-80663771D02*
X132389524Y-80901866D01*
X132389524Y-80901866D02*
X132341905Y-81092342D01*
X132341905Y-81092342D02*
X132294286Y-81187580D01*
X132294286Y-81187580D02*
X132246667Y-81235200D01*
X132246667Y-81235200D02*
X132151429Y-81282819D01*
X132151429Y-81282819D02*
X132056191Y-81282819D01*
X132056191Y-81282819D02*
X131960953Y-81235200D01*
X131960953Y-81235200D02*
X131913334Y-81187580D01*
X131913334Y-81187580D02*
X131865715Y-81092342D01*
X131865715Y-81092342D02*
X131818096Y-80901866D01*
X131818096Y-80901866D02*
X131818096Y-80663771D01*
X131818096Y-80663771D02*
X131865715Y-80473295D01*
X131865715Y-80473295D02*
X131913334Y-80378057D01*
X131913334Y-80378057D02*
X131960953Y-80330438D01*
X131960953Y-80330438D02*
X132056191Y-80282819D01*
X122515714Y-92720438D02*
X122420476Y-92672819D01*
X122420476Y-92672819D02*
X122277619Y-92672819D01*
X122277619Y-92672819D02*
X122134762Y-92720438D01*
X122134762Y-92720438D02*
X122039524Y-92815676D01*
X122039524Y-92815676D02*
X121991905Y-92910914D01*
X121991905Y-92910914D02*
X121944286Y-93101390D01*
X121944286Y-93101390D02*
X121944286Y-93244247D01*
X121944286Y-93244247D02*
X121991905Y-93434723D01*
X121991905Y-93434723D02*
X122039524Y-93529961D01*
X122039524Y-93529961D02*
X122134762Y-93625200D01*
X122134762Y-93625200D02*
X122277619Y-93672819D01*
X122277619Y-93672819D02*
X122372857Y-93672819D01*
X122372857Y-93672819D02*
X122515714Y-93625200D01*
X122515714Y-93625200D02*
X122563333Y-93577580D01*
X122563333Y-93577580D02*
X122563333Y-93244247D01*
X122563333Y-93244247D02*
X122372857Y-93244247D01*
X122991905Y-93672819D02*
X122991905Y-92672819D01*
X122991905Y-92672819D02*
X123563333Y-93672819D01*
X123563333Y-93672819D02*
X123563333Y-92672819D01*
X124039524Y-93672819D02*
X124039524Y-92672819D01*
X124039524Y-92672819D02*
X124277619Y-92672819D01*
X124277619Y-92672819D02*
X124420476Y-92720438D01*
X124420476Y-92720438D02*
X124515714Y-92815676D01*
X124515714Y-92815676D02*
X124563333Y-92910914D01*
X124563333Y-92910914D02*
X124610952Y-93101390D01*
X124610952Y-93101390D02*
X124610952Y-93244247D01*
X124610952Y-93244247D02*
X124563333Y-93434723D01*
X124563333Y-93434723D02*
X124515714Y-93529961D01*
X124515714Y-93529961D02*
X124420476Y-93625200D01*
X124420476Y-93625200D02*
X124277619Y-93672819D01*
X124277619Y-93672819D02*
X124039524Y-93672819D01*
X126372857Y-93577580D02*
X126325238Y-93625200D01*
X126325238Y-93625200D02*
X126182381Y-93672819D01*
X126182381Y-93672819D02*
X126087143Y-93672819D01*
X126087143Y-93672819D02*
X125944286Y-93625200D01*
X125944286Y-93625200D02*
X125849048Y-93529961D01*
X125849048Y-93529961D02*
X125801429Y-93434723D01*
X125801429Y-93434723D02*
X125753810Y-93244247D01*
X125753810Y-93244247D02*
X125753810Y-93101390D01*
X125753810Y-93101390D02*
X125801429Y-92910914D01*
X125801429Y-92910914D02*
X125849048Y-92815676D01*
X125849048Y-92815676D02*
X125944286Y-92720438D01*
X125944286Y-92720438D02*
X126087143Y-92672819D01*
X126087143Y-92672819D02*
X126182381Y-92672819D01*
X126182381Y-92672819D02*
X126325238Y-92720438D01*
X126325238Y-92720438D02*
X126372857Y-92768057D01*
X126753810Y-93387104D02*
X127230000Y-93387104D01*
X126658572Y-93672819D02*
X126991905Y-92672819D01*
X126991905Y-92672819D02*
X127325238Y-93672819D01*
X128134762Y-93672819D02*
X127658572Y-93672819D01*
X127658572Y-93672819D02*
X127658572Y-92672819D01*
X128468096Y-93672819D02*
X128468096Y-92672819D01*
X129277619Y-93149009D02*
X129420476Y-93196628D01*
X129420476Y-93196628D02*
X129468095Y-93244247D01*
X129468095Y-93244247D02*
X129515714Y-93339485D01*
X129515714Y-93339485D02*
X129515714Y-93482342D01*
X129515714Y-93482342D02*
X129468095Y-93577580D01*
X129468095Y-93577580D02*
X129420476Y-93625200D01*
X129420476Y-93625200D02*
X129325238Y-93672819D01*
X129325238Y-93672819D02*
X128944286Y-93672819D01*
X128944286Y-93672819D02*
X128944286Y-92672819D01*
X128944286Y-92672819D02*
X129277619Y-92672819D01*
X129277619Y-92672819D02*
X129372857Y-92720438D01*
X129372857Y-92720438D02*
X129420476Y-92768057D01*
X129420476Y-92768057D02*
X129468095Y-92863295D01*
X129468095Y-92863295D02*
X129468095Y-92958533D01*
X129468095Y-92958533D02*
X129420476Y-93053771D01*
X129420476Y-93053771D02*
X129372857Y-93101390D01*
X129372857Y-93101390D02*
X129277619Y-93149009D01*
X129277619Y-93149009D02*
X128944286Y-93149009D01*
X143133333Y-97657580D02*
X143085714Y-97705200D01*
X143085714Y-97705200D02*
X142942857Y-97752819D01*
X142942857Y-97752819D02*
X142847619Y-97752819D01*
X142847619Y-97752819D02*
X142704762Y-97705200D01*
X142704762Y-97705200D02*
X142609524Y-97609961D01*
X142609524Y-97609961D02*
X142561905Y-97514723D01*
X142561905Y-97514723D02*
X142514286Y-97324247D01*
X142514286Y-97324247D02*
X142514286Y-97181390D01*
X142514286Y-97181390D02*
X142561905Y-96990914D01*
X142561905Y-96990914D02*
X142609524Y-96895676D01*
X142609524Y-96895676D02*
X142704762Y-96800438D01*
X142704762Y-96800438D02*
X142847619Y-96752819D01*
X142847619Y-96752819D02*
X142942857Y-96752819D01*
X142942857Y-96752819D02*
X143085714Y-96800438D01*
X143085714Y-96800438D02*
X143133333Y-96848057D01*
X143990476Y-97086152D02*
X143990476Y-97752819D01*
X143752381Y-96705200D02*
X143514286Y-97419485D01*
X143514286Y-97419485D02*
X144133333Y-97419485D01*
D14*
%TO.C,A4*%
X157350000Y-103248000D02*
X157350000Y-118748000D01*
X157350000Y-118748000D02*
X177930000Y-118748000D01*
X175260000Y-103248000D02*
X157350000Y-103248000D01*
X175260000Y-105918000D02*
X157350000Y-105918000D01*
X175260000Y-105918000D02*
X175260000Y-103248000D01*
X177930000Y-103248000D02*
X176530000Y-103248000D01*
X177930000Y-104648000D02*
X177930000Y-103248000D01*
X177930000Y-105918000D02*
X175260000Y-105918000D01*
X177930000Y-116078000D02*
X157350000Y-116078000D01*
X177930000Y-118748000D02*
X177930000Y-105918000D01*
%TO.C,J4*%
X97640000Y-82578000D02*
X97640000Y-83828000D01*
X97930000Y-82868000D02*
X97930000Y-88838000D01*
X97930000Y-88838000D02*
X113050000Y-88838000D01*
X97940000Y-82878000D02*
X97940000Y-83628000D01*
X97940000Y-83628000D02*
X99740000Y-83628000D01*
X97940000Y-85128000D02*
X98690000Y-85128000D01*
X98690000Y-85128000D02*
X98690000Y-88078000D01*
X98690000Y-88078000D02*
X105490000Y-88078000D01*
X98890000Y-82578000D02*
X97640000Y-82578000D01*
X99740000Y-82878000D02*
X97940000Y-82878000D01*
X99740000Y-83628000D02*
X99740000Y-82878000D01*
X101240000Y-82878000D02*
X101240000Y-83628000D01*
X101240000Y-83628000D02*
X109740000Y-83628000D01*
X109740000Y-82878000D02*
X101240000Y-82878000D01*
X109740000Y-83628000D02*
X109740000Y-82878000D01*
X111240000Y-82878000D02*
X111240000Y-83628000D01*
X111240000Y-83628000D02*
X113040000Y-83628000D01*
X112290000Y-85128000D02*
X112290000Y-88078000D01*
X112290000Y-88078000D02*
X105490000Y-88078000D01*
X113040000Y-82878000D02*
X111240000Y-82878000D01*
X113040000Y-83628000D02*
X113040000Y-82878000D01*
X113040000Y-85128000D02*
X112290000Y-85128000D01*
X113050000Y-82868000D02*
X97930000Y-82868000D01*
X113050000Y-88838000D02*
X113050000Y-82868000D01*
%TO.C,J3*%
X93590000Y-85598000D02*
X93590000Y-90738000D01*
X93590000Y-85598000D02*
X96250000Y-85598000D01*
X93590000Y-90738000D02*
X96250000Y-90738000D01*
X94920000Y-82998000D02*
X96250000Y-82998000D01*
X96250000Y-82998000D02*
X96250000Y-84328000D01*
X96250000Y-85598000D02*
X96250000Y-90738000D01*
%TO.C,A1*%
X92580000Y-103248000D02*
X92580000Y-118748000D01*
X92580000Y-118748000D02*
X113160000Y-118748000D01*
X110490000Y-103248000D02*
X92580000Y-103248000D01*
X110490000Y-105918000D02*
X92580000Y-105918000D01*
X110490000Y-105918000D02*
X110490000Y-103248000D01*
X113160000Y-103248000D02*
X111760000Y-103248000D01*
X113160000Y-104648000D02*
X113160000Y-103248000D01*
X113160000Y-105918000D02*
X110490000Y-105918000D01*
X113160000Y-116078000D02*
X92580000Y-116078000D01*
X113160000Y-118748000D02*
X113160000Y-105918000D01*
%TO.C,C6*%
X93450000Y-92048000D02*
X93450000Y-92293000D01*
X93450000Y-92048000D02*
X97090000Y-92048000D01*
X93450000Y-94143000D02*
X93450000Y-94388000D01*
X93450000Y-94388000D02*
X97090000Y-94388000D01*
X97090000Y-92048000D02*
X97090000Y-92293000D01*
X97090000Y-94143000D02*
X97090000Y-94388000D01*
%TO.C,C5*%
X156539759Y-96459000D02*
X157169759Y-96459000D01*
X156854759Y-96144000D02*
X156854759Y-96774000D01*
X160040000Y-95068000D02*
X160040000Y-101528000D01*
X160080000Y-95068000D02*
X160080000Y-101528000D01*
X160120000Y-95068000D02*
X160120000Y-101528000D01*
X160160000Y-95070000D02*
X160160000Y-101526000D01*
X160200000Y-95071000D02*
X160200000Y-101525000D01*
X160240000Y-95074000D02*
X160240000Y-101522000D01*
X160280000Y-95076000D02*
X160280000Y-97258000D01*
X160280000Y-99338000D02*
X160280000Y-101520000D01*
X160320000Y-95080000D02*
X160320000Y-97258000D01*
X160320000Y-99338000D02*
X160320000Y-101516000D01*
X160360000Y-95083000D02*
X160360000Y-97258000D01*
X160360000Y-99338000D02*
X160360000Y-101513000D01*
X160400000Y-95087000D02*
X160400000Y-97258000D01*
X160400000Y-99338000D02*
X160400000Y-101509000D01*
X160440000Y-95092000D02*
X160440000Y-97258000D01*
X160440000Y-99338000D02*
X160440000Y-101504000D01*
X160480000Y-95097000D02*
X160480000Y-97258000D01*
X160480000Y-99338000D02*
X160480000Y-101499000D01*
X160520000Y-95103000D02*
X160520000Y-97258000D01*
X160520000Y-99338000D02*
X160520000Y-101493000D01*
X160560000Y-95109000D02*
X160560000Y-97258000D01*
X160560000Y-99338000D02*
X160560000Y-101487000D01*
X160600000Y-95116000D02*
X160600000Y-97258000D01*
X160600000Y-99338000D02*
X160600000Y-101480000D01*
X160640000Y-95123000D02*
X160640000Y-97258000D01*
X160640000Y-99338000D02*
X160640000Y-101473000D01*
X160680000Y-95131000D02*
X160680000Y-97258000D01*
X160680000Y-99338000D02*
X160680000Y-101465000D01*
X160720000Y-95139000D02*
X160720000Y-97258000D01*
X160720000Y-99338000D02*
X160720000Y-101457000D01*
X160761000Y-95148000D02*
X160761000Y-97258000D01*
X160761000Y-99338000D02*
X160761000Y-101448000D01*
X160801000Y-95157000D02*
X160801000Y-97258000D01*
X160801000Y-99338000D02*
X160801000Y-101439000D01*
X160841000Y-95167000D02*
X160841000Y-97258000D01*
X160841000Y-99338000D02*
X160841000Y-101429000D01*
X160881000Y-95177000D02*
X160881000Y-97258000D01*
X160881000Y-99338000D02*
X160881000Y-101419000D01*
X160921000Y-95188000D02*
X160921000Y-97258000D01*
X160921000Y-99338000D02*
X160921000Y-101408000D01*
X160961000Y-95200000D02*
X160961000Y-97258000D01*
X160961000Y-99338000D02*
X160961000Y-101396000D01*
X161001000Y-95212000D02*
X161001000Y-97258000D01*
X161001000Y-99338000D02*
X161001000Y-101384000D01*
X161041000Y-95224000D02*
X161041000Y-97258000D01*
X161041000Y-99338000D02*
X161041000Y-101372000D01*
X161081000Y-95237000D02*
X161081000Y-97258000D01*
X161081000Y-99338000D02*
X161081000Y-101359000D01*
X161121000Y-95251000D02*
X161121000Y-97258000D01*
X161121000Y-99338000D02*
X161121000Y-101345000D01*
X161161000Y-95265000D02*
X161161000Y-97258000D01*
X161161000Y-99338000D02*
X161161000Y-101331000D01*
X161201000Y-95280000D02*
X161201000Y-97258000D01*
X161201000Y-99338000D02*
X161201000Y-101316000D01*
X161241000Y-95296000D02*
X161241000Y-97258000D01*
X161241000Y-99338000D02*
X161241000Y-101300000D01*
X161281000Y-95312000D02*
X161281000Y-97258000D01*
X161281000Y-99338000D02*
X161281000Y-101284000D01*
X161321000Y-95328000D02*
X161321000Y-97258000D01*
X161321000Y-99338000D02*
X161321000Y-101268000D01*
X161361000Y-95346000D02*
X161361000Y-97258000D01*
X161361000Y-99338000D02*
X161361000Y-101250000D01*
X161401000Y-95364000D02*
X161401000Y-97258000D01*
X161401000Y-99338000D02*
X161401000Y-101232000D01*
X161441000Y-95382000D02*
X161441000Y-97258000D01*
X161441000Y-99338000D02*
X161441000Y-101214000D01*
X161481000Y-95402000D02*
X161481000Y-97258000D01*
X161481000Y-99338000D02*
X161481000Y-101194000D01*
X161521000Y-95422000D02*
X161521000Y-97258000D01*
X161521000Y-99338000D02*
X161521000Y-101174000D01*
X161561000Y-95442000D02*
X161561000Y-97258000D01*
X161561000Y-99338000D02*
X161561000Y-101154000D01*
X161601000Y-95464000D02*
X161601000Y-97258000D01*
X161601000Y-99338000D02*
X161601000Y-101132000D01*
X161641000Y-95486000D02*
X161641000Y-97258000D01*
X161641000Y-99338000D02*
X161641000Y-101110000D01*
X161681000Y-95508000D02*
X161681000Y-97258000D01*
X161681000Y-99338000D02*
X161681000Y-101088000D01*
X161721000Y-95532000D02*
X161721000Y-97258000D01*
X161721000Y-99338000D02*
X161721000Y-101064000D01*
X161761000Y-95556000D02*
X161761000Y-97258000D01*
X161761000Y-99338000D02*
X161761000Y-101040000D01*
X161801000Y-95582000D02*
X161801000Y-97258000D01*
X161801000Y-99338000D02*
X161801000Y-101014000D01*
X161841000Y-95608000D02*
X161841000Y-97258000D01*
X161841000Y-99338000D02*
X161841000Y-100988000D01*
X161881000Y-95634000D02*
X161881000Y-97258000D01*
X161881000Y-99338000D02*
X161881000Y-100962000D01*
X161921000Y-95662000D02*
X161921000Y-97258000D01*
X161921000Y-99338000D02*
X161921000Y-100934000D01*
X161961000Y-95691000D02*
X161961000Y-97258000D01*
X161961000Y-99338000D02*
X161961000Y-100905000D01*
X162001000Y-95720000D02*
X162001000Y-97258000D01*
X162001000Y-99338000D02*
X162001000Y-100876000D01*
X162041000Y-95750000D02*
X162041000Y-97258000D01*
X162041000Y-99338000D02*
X162041000Y-100846000D01*
X162081000Y-95782000D02*
X162081000Y-97258000D01*
X162081000Y-99338000D02*
X162081000Y-100814000D01*
X162121000Y-95814000D02*
X162121000Y-97258000D01*
X162121000Y-99338000D02*
X162121000Y-100782000D01*
X162161000Y-95848000D02*
X162161000Y-97258000D01*
X162161000Y-99338000D02*
X162161000Y-100748000D01*
X162201000Y-95882000D02*
X162201000Y-97258000D01*
X162201000Y-99338000D02*
X162201000Y-100714000D01*
X162241000Y-95918000D02*
X162241000Y-97258000D01*
X162241000Y-99338000D02*
X162241000Y-100678000D01*
X162281000Y-95955000D02*
X162281000Y-97258000D01*
X162281000Y-99338000D02*
X162281000Y-100641000D01*
X162321000Y-95993000D02*
X162321000Y-97258000D01*
X162321000Y-99338000D02*
X162321000Y-100603000D01*
X162361000Y-96033000D02*
X162361000Y-100563000D01*
X162401000Y-96074000D02*
X162401000Y-100522000D01*
X162441000Y-96116000D02*
X162441000Y-100480000D01*
X162481000Y-96161000D02*
X162481000Y-100435000D01*
X162521000Y-96206000D02*
X162521000Y-100390000D01*
X162561000Y-96254000D02*
X162561000Y-100342000D01*
X162601000Y-96303000D02*
X162601000Y-100293000D01*
X162641000Y-96354000D02*
X162641000Y-100242000D01*
X162681000Y-96408000D02*
X162681000Y-100188000D01*
X162721000Y-96464000D02*
X162721000Y-100132000D01*
X162761000Y-96522000D02*
X162761000Y-100074000D01*
X162801000Y-96584000D02*
X162801000Y-100012000D01*
X162841000Y-96648000D02*
X162841000Y-99948000D01*
X162881000Y-96717000D02*
X162881000Y-99879000D01*
X162921000Y-96789000D02*
X162921000Y-99807000D01*
X162961000Y-96866000D02*
X162961000Y-99730000D01*
X163001000Y-96948000D02*
X163001000Y-99648000D01*
X163041000Y-97036000D02*
X163041000Y-99560000D01*
X163081000Y-97133000D02*
X163081000Y-99463000D01*
X163121000Y-97239000D02*
X163121000Y-99357000D01*
X163161000Y-97358000D02*
X163161000Y-99238000D01*
X163201000Y-97496000D02*
X163201000Y-99100000D01*
X163241000Y-97665000D02*
X163241000Y-98931000D01*
X163281000Y-97896000D02*
X163281000Y-98700000D01*
X163310000Y-98298000D02*
G75*
G02*
X156770000Y-98298000I-3270000J0D01*
G01*
X156770000Y-98298000D02*
G75*
G02*
X163310000Y-98298000I3270000J0D01*
G01*
%TO.C,C2*%
X91769759Y-96459000D02*
X92399759Y-96459000D01*
X92084759Y-96144000D02*
X92084759Y-96774000D01*
X95270000Y-95068000D02*
X95270000Y-101528000D01*
X95310000Y-95068000D02*
X95310000Y-101528000D01*
X95350000Y-95068000D02*
X95350000Y-101528000D01*
X95390000Y-95070000D02*
X95390000Y-101526000D01*
X95430000Y-95071000D02*
X95430000Y-101525000D01*
X95470000Y-95074000D02*
X95470000Y-101522000D01*
X95510000Y-95076000D02*
X95510000Y-97258000D01*
X95510000Y-99338000D02*
X95510000Y-101520000D01*
X95550000Y-95080000D02*
X95550000Y-97258000D01*
X95550000Y-99338000D02*
X95550000Y-101516000D01*
X95590000Y-95083000D02*
X95590000Y-97258000D01*
X95590000Y-99338000D02*
X95590000Y-101513000D01*
X95630000Y-95087000D02*
X95630000Y-97258000D01*
X95630000Y-99338000D02*
X95630000Y-101509000D01*
X95670000Y-95092000D02*
X95670000Y-97258000D01*
X95670000Y-99338000D02*
X95670000Y-101504000D01*
X95710000Y-95097000D02*
X95710000Y-97258000D01*
X95710000Y-99338000D02*
X95710000Y-101499000D01*
X95750000Y-95103000D02*
X95750000Y-97258000D01*
X95750000Y-99338000D02*
X95750000Y-101493000D01*
X95790000Y-95109000D02*
X95790000Y-97258000D01*
X95790000Y-99338000D02*
X95790000Y-101487000D01*
X95830000Y-95116000D02*
X95830000Y-97258000D01*
X95830000Y-99338000D02*
X95830000Y-101480000D01*
X95870000Y-95123000D02*
X95870000Y-97258000D01*
X95870000Y-99338000D02*
X95870000Y-101473000D01*
X95910000Y-95131000D02*
X95910000Y-97258000D01*
X95910000Y-99338000D02*
X95910000Y-101465000D01*
X95950000Y-95139000D02*
X95950000Y-97258000D01*
X95950000Y-99338000D02*
X95950000Y-101457000D01*
X95991000Y-95148000D02*
X95991000Y-97258000D01*
X95991000Y-99338000D02*
X95991000Y-101448000D01*
X96031000Y-95157000D02*
X96031000Y-97258000D01*
X96031000Y-99338000D02*
X96031000Y-101439000D01*
X96071000Y-95167000D02*
X96071000Y-97258000D01*
X96071000Y-99338000D02*
X96071000Y-101429000D01*
X96111000Y-95177000D02*
X96111000Y-97258000D01*
X96111000Y-99338000D02*
X96111000Y-101419000D01*
X96151000Y-95188000D02*
X96151000Y-97258000D01*
X96151000Y-99338000D02*
X96151000Y-101408000D01*
X96191000Y-95200000D02*
X96191000Y-97258000D01*
X96191000Y-99338000D02*
X96191000Y-101396000D01*
X96231000Y-95212000D02*
X96231000Y-97258000D01*
X96231000Y-99338000D02*
X96231000Y-101384000D01*
X96271000Y-95224000D02*
X96271000Y-97258000D01*
X96271000Y-99338000D02*
X96271000Y-101372000D01*
X96311000Y-95237000D02*
X96311000Y-97258000D01*
X96311000Y-99338000D02*
X96311000Y-101359000D01*
X96351000Y-95251000D02*
X96351000Y-97258000D01*
X96351000Y-99338000D02*
X96351000Y-101345000D01*
X96391000Y-95265000D02*
X96391000Y-97258000D01*
X96391000Y-99338000D02*
X96391000Y-101331000D01*
X96431000Y-95280000D02*
X96431000Y-97258000D01*
X96431000Y-99338000D02*
X96431000Y-101316000D01*
X96471000Y-95296000D02*
X96471000Y-97258000D01*
X96471000Y-99338000D02*
X96471000Y-101300000D01*
X96511000Y-95312000D02*
X96511000Y-97258000D01*
X96511000Y-99338000D02*
X96511000Y-101284000D01*
X96551000Y-95328000D02*
X96551000Y-97258000D01*
X96551000Y-99338000D02*
X96551000Y-101268000D01*
X96591000Y-95346000D02*
X96591000Y-97258000D01*
X96591000Y-99338000D02*
X96591000Y-101250000D01*
X96631000Y-95364000D02*
X96631000Y-97258000D01*
X96631000Y-99338000D02*
X96631000Y-101232000D01*
X96671000Y-95382000D02*
X96671000Y-97258000D01*
X96671000Y-99338000D02*
X96671000Y-101214000D01*
X96711000Y-95402000D02*
X96711000Y-97258000D01*
X96711000Y-99338000D02*
X96711000Y-101194000D01*
X96751000Y-95422000D02*
X96751000Y-97258000D01*
X96751000Y-99338000D02*
X96751000Y-101174000D01*
X96791000Y-95442000D02*
X96791000Y-97258000D01*
X96791000Y-99338000D02*
X96791000Y-101154000D01*
X96831000Y-95464000D02*
X96831000Y-97258000D01*
X96831000Y-99338000D02*
X96831000Y-101132000D01*
X96871000Y-95486000D02*
X96871000Y-97258000D01*
X96871000Y-99338000D02*
X96871000Y-101110000D01*
X96911000Y-95508000D02*
X96911000Y-97258000D01*
X96911000Y-99338000D02*
X96911000Y-101088000D01*
X96951000Y-95532000D02*
X96951000Y-97258000D01*
X96951000Y-99338000D02*
X96951000Y-101064000D01*
X96991000Y-95556000D02*
X96991000Y-97258000D01*
X96991000Y-99338000D02*
X96991000Y-101040000D01*
X97031000Y-95582000D02*
X97031000Y-97258000D01*
X97031000Y-99338000D02*
X97031000Y-101014000D01*
X97071000Y-95608000D02*
X97071000Y-97258000D01*
X97071000Y-99338000D02*
X97071000Y-100988000D01*
X97111000Y-95634000D02*
X97111000Y-97258000D01*
X97111000Y-99338000D02*
X97111000Y-100962000D01*
X97151000Y-95662000D02*
X97151000Y-97258000D01*
X97151000Y-99338000D02*
X97151000Y-100934000D01*
X97191000Y-95691000D02*
X97191000Y-97258000D01*
X97191000Y-99338000D02*
X97191000Y-100905000D01*
X97231000Y-95720000D02*
X97231000Y-97258000D01*
X97231000Y-99338000D02*
X97231000Y-100876000D01*
X97271000Y-95750000D02*
X97271000Y-97258000D01*
X97271000Y-99338000D02*
X97271000Y-100846000D01*
X97311000Y-95782000D02*
X97311000Y-97258000D01*
X97311000Y-99338000D02*
X97311000Y-100814000D01*
X97351000Y-95814000D02*
X97351000Y-97258000D01*
X97351000Y-99338000D02*
X97351000Y-100782000D01*
X97391000Y-95848000D02*
X97391000Y-97258000D01*
X97391000Y-99338000D02*
X97391000Y-100748000D01*
X97431000Y-95882000D02*
X97431000Y-97258000D01*
X97431000Y-99338000D02*
X97431000Y-100714000D01*
X97471000Y-95918000D02*
X97471000Y-97258000D01*
X97471000Y-99338000D02*
X97471000Y-100678000D01*
X97511000Y-95955000D02*
X97511000Y-97258000D01*
X97511000Y-99338000D02*
X97511000Y-100641000D01*
X97551000Y-95993000D02*
X97551000Y-97258000D01*
X97551000Y-99338000D02*
X97551000Y-100603000D01*
X97591000Y-96033000D02*
X97591000Y-100563000D01*
X97631000Y-96074000D02*
X97631000Y-100522000D01*
X97671000Y-96116000D02*
X97671000Y-100480000D01*
X97711000Y-96161000D02*
X97711000Y-100435000D01*
X97751000Y-96206000D02*
X97751000Y-100390000D01*
X97791000Y-96254000D02*
X97791000Y-100342000D01*
X97831000Y-96303000D02*
X97831000Y-100293000D01*
X97871000Y-96354000D02*
X97871000Y-100242000D01*
X97911000Y-96408000D02*
X97911000Y-100188000D01*
X97951000Y-96464000D02*
X97951000Y-100132000D01*
X97991000Y-96522000D02*
X97991000Y-100074000D01*
X98031000Y-96584000D02*
X98031000Y-100012000D01*
X98071000Y-96648000D02*
X98071000Y-99948000D01*
X98111000Y-96717000D02*
X98111000Y-99879000D01*
X98151000Y-96789000D02*
X98151000Y-99807000D01*
X98191000Y-96866000D02*
X98191000Y-99730000D01*
X98231000Y-96948000D02*
X98231000Y-99648000D01*
X98271000Y-97036000D02*
X98271000Y-99560000D01*
X98311000Y-97133000D02*
X98311000Y-99463000D01*
X98351000Y-97239000D02*
X98351000Y-99357000D01*
X98391000Y-97358000D02*
X98391000Y-99238000D01*
X98431000Y-97496000D02*
X98431000Y-99100000D01*
X98471000Y-97665000D02*
X98471000Y-98931000D01*
X98511000Y-97896000D02*
X98511000Y-98700000D01*
X98540000Y-98298000D02*
G75*
G02*
X92000000Y-98298000I-3270000J0D01*
G01*
X92000000Y-98298000D02*
G75*
G02*
X98540000Y-98298000I3270000J0D01*
G01*
%TO.C,C1*%
X85320000Y-122902000D02*
X83138000Y-122902000D01*
X85320000Y-122942000D02*
X83142000Y-122942000D01*
X85320000Y-122982000D02*
X83145000Y-122982000D01*
X85320000Y-123022000D02*
X83149000Y-123022000D01*
X85320000Y-123062000D02*
X83154000Y-123062000D01*
X85320000Y-123102000D02*
X83159000Y-123102000D01*
X85320000Y-123142000D02*
X83165000Y-123142000D01*
X85320000Y-123182000D02*
X83171000Y-123182000D01*
X85320000Y-123222000D02*
X83178000Y-123222000D01*
X85320000Y-123262000D02*
X83185000Y-123262000D01*
X85320000Y-123302000D02*
X83193000Y-123302000D01*
X85320000Y-123342000D02*
X83201000Y-123342000D01*
X85320000Y-123383000D02*
X83210000Y-123383000D01*
X85320000Y-123423000D02*
X83219000Y-123423000D01*
X85320000Y-123463000D02*
X83229000Y-123463000D01*
X85320000Y-123503000D02*
X83239000Y-123503000D01*
X85320000Y-123543000D02*
X83250000Y-123543000D01*
X85320000Y-123583000D02*
X83262000Y-123583000D01*
X85320000Y-123623000D02*
X83274000Y-123623000D01*
X85320000Y-123663000D02*
X83286000Y-123663000D01*
X85320000Y-123703000D02*
X83299000Y-123703000D01*
X85320000Y-123743000D02*
X83313000Y-123743000D01*
X85320000Y-123783000D02*
X83327000Y-123783000D01*
X85320000Y-123823000D02*
X83342000Y-123823000D01*
X85320000Y-123863000D02*
X83358000Y-123863000D01*
X85320000Y-123903000D02*
X83374000Y-123903000D01*
X85320000Y-123943000D02*
X83390000Y-123943000D01*
X85320000Y-123983000D02*
X83408000Y-123983000D01*
X85320000Y-124023000D02*
X83426000Y-124023000D01*
X85320000Y-124063000D02*
X83444000Y-124063000D01*
X85320000Y-124103000D02*
X83464000Y-124103000D01*
X85320000Y-124143000D02*
X83484000Y-124143000D01*
X85320000Y-124183000D02*
X83504000Y-124183000D01*
X85320000Y-124223000D02*
X83526000Y-124223000D01*
X85320000Y-124263000D02*
X83548000Y-124263000D01*
X85320000Y-124303000D02*
X83570000Y-124303000D01*
X85320000Y-124343000D02*
X83594000Y-124343000D01*
X85320000Y-124383000D02*
X83618000Y-124383000D01*
X85320000Y-124423000D02*
X83644000Y-124423000D01*
X85320000Y-124463000D02*
X83670000Y-124463000D01*
X85320000Y-124503000D02*
X83696000Y-124503000D01*
X85320000Y-124543000D02*
X83724000Y-124543000D01*
X85320000Y-124583000D02*
X83753000Y-124583000D01*
X85320000Y-124623000D02*
X83782000Y-124623000D01*
X85320000Y-124663000D02*
X83812000Y-124663000D01*
X85320000Y-124703000D02*
X83844000Y-124703000D01*
X85320000Y-124743000D02*
X83876000Y-124743000D01*
X85320000Y-124783000D02*
X83910000Y-124783000D01*
X85320000Y-124823000D02*
X83944000Y-124823000D01*
X85320000Y-124863000D02*
X83980000Y-124863000D01*
X85320000Y-124903000D02*
X84017000Y-124903000D01*
X85320000Y-124943000D02*
X84055000Y-124943000D01*
X86762000Y-125903000D02*
X85958000Y-125903000D01*
X86993000Y-125863000D02*
X85727000Y-125863000D01*
X87162000Y-125823000D02*
X85558000Y-125823000D01*
X87300000Y-125783000D02*
X85420000Y-125783000D01*
X87419000Y-125743000D02*
X85301000Y-125743000D01*
X87525000Y-125703000D02*
X85195000Y-125703000D01*
X87622000Y-125663000D02*
X85098000Y-125663000D01*
X87710000Y-125623000D02*
X85010000Y-125623000D01*
X87792000Y-125583000D02*
X84928000Y-125583000D01*
X87869000Y-125543000D02*
X84851000Y-125543000D01*
X87941000Y-125503000D02*
X84779000Y-125503000D01*
X88010000Y-125463000D02*
X84710000Y-125463000D01*
X88074000Y-125423000D02*
X84646000Y-125423000D01*
X88136000Y-125383000D02*
X84584000Y-125383000D01*
X88194000Y-125343000D02*
X84526000Y-125343000D01*
X88199000Y-119161759D02*
X88199000Y-119791759D01*
X88250000Y-125303000D02*
X84470000Y-125303000D01*
X88304000Y-125263000D02*
X84416000Y-125263000D01*
X88355000Y-125223000D02*
X84365000Y-125223000D01*
X88404000Y-125183000D02*
X84316000Y-125183000D01*
X88452000Y-125143000D02*
X84268000Y-125143000D01*
X88497000Y-125103000D02*
X84223000Y-125103000D01*
X88514000Y-119476759D02*
X87884000Y-119476759D01*
X88542000Y-125063000D02*
X84178000Y-125063000D01*
X88584000Y-125023000D02*
X84136000Y-125023000D01*
X88625000Y-124983000D02*
X84095000Y-124983000D01*
X88665000Y-124943000D02*
X87400000Y-124943000D01*
X88703000Y-124903000D02*
X87400000Y-124903000D01*
X88740000Y-124863000D02*
X87400000Y-124863000D01*
X88776000Y-124823000D02*
X87400000Y-124823000D01*
X88810000Y-124783000D02*
X87400000Y-124783000D01*
X88844000Y-124743000D02*
X87400000Y-124743000D01*
X88876000Y-124703000D02*
X87400000Y-124703000D01*
X88908000Y-124663000D02*
X87400000Y-124663000D01*
X88938000Y-124623000D02*
X87400000Y-124623000D01*
X88967000Y-124583000D02*
X87400000Y-124583000D01*
X88996000Y-124543000D02*
X87400000Y-124543000D01*
X89024000Y-124503000D02*
X87400000Y-124503000D01*
X89050000Y-124463000D02*
X87400000Y-124463000D01*
X89076000Y-124423000D02*
X87400000Y-124423000D01*
X89102000Y-124383000D02*
X87400000Y-124383000D01*
X89126000Y-124343000D02*
X87400000Y-124343000D01*
X89150000Y-124303000D02*
X87400000Y-124303000D01*
X89172000Y-124263000D02*
X87400000Y-124263000D01*
X89194000Y-124223000D02*
X87400000Y-124223000D01*
X89216000Y-124183000D02*
X87400000Y-124183000D01*
X89236000Y-124143000D02*
X87400000Y-124143000D01*
X89256000Y-124103000D02*
X87400000Y-124103000D01*
X89276000Y-124063000D02*
X87400000Y-124063000D01*
X89294000Y-124023000D02*
X87400000Y-124023000D01*
X89312000Y-123983000D02*
X87400000Y-123983000D01*
X89330000Y-123943000D02*
X87400000Y-123943000D01*
X89346000Y-123903000D02*
X87400000Y-123903000D01*
X89362000Y-123863000D02*
X87400000Y-123863000D01*
X89378000Y-123823000D02*
X87400000Y-123823000D01*
X89393000Y-123783000D02*
X87400000Y-123783000D01*
X89407000Y-123743000D02*
X87400000Y-123743000D01*
X89421000Y-123703000D02*
X87400000Y-123703000D01*
X89434000Y-123663000D02*
X87400000Y-123663000D01*
X89446000Y-123623000D02*
X87400000Y-123623000D01*
X89458000Y-123583000D02*
X87400000Y-123583000D01*
X89470000Y-123543000D02*
X87400000Y-123543000D01*
X89481000Y-123503000D02*
X87400000Y-123503000D01*
X89491000Y-123463000D02*
X87400000Y-123463000D01*
X89501000Y-123423000D02*
X87400000Y-123423000D01*
X89510000Y-123383000D02*
X87400000Y-123383000D01*
X89519000Y-123342000D02*
X87400000Y-123342000D01*
X89527000Y-123302000D02*
X87400000Y-123302000D01*
X89535000Y-123262000D02*
X87400000Y-123262000D01*
X89542000Y-123222000D02*
X87400000Y-123222000D01*
X89549000Y-123182000D02*
X87400000Y-123182000D01*
X89555000Y-123142000D02*
X87400000Y-123142000D01*
X89561000Y-123102000D02*
X87400000Y-123102000D01*
X89566000Y-123062000D02*
X87400000Y-123062000D01*
X89571000Y-123022000D02*
X87400000Y-123022000D01*
X89575000Y-122982000D02*
X87400000Y-122982000D01*
X89578000Y-122942000D02*
X87400000Y-122942000D01*
X89582000Y-122902000D02*
X87400000Y-122902000D01*
X89584000Y-122862000D02*
X83136000Y-122862000D01*
X89587000Y-122822000D02*
X83133000Y-122822000D01*
X89588000Y-122782000D02*
X83132000Y-122782000D01*
X89590000Y-122662000D02*
X83130000Y-122662000D01*
X89590000Y-122702000D02*
X83130000Y-122702000D01*
X89590000Y-122742000D02*
X83130000Y-122742000D01*
X89630000Y-122662000D02*
G75*
G02*
X83090000Y-122662000I-3270000J0D01*
G01*
X83090000Y-122662000D02*
G75*
G02*
X89630000Y-122662000I3270000J0D01*
G01*
%TO.C,J7*%
X136770000Y-85598000D02*
X136770000Y-90738000D01*
X136770000Y-85598000D02*
X139430000Y-85598000D01*
X136770000Y-90738000D02*
X139430000Y-90738000D01*
X138100000Y-82998000D02*
X139430000Y-82998000D01*
X139430000Y-82998000D02*
X139430000Y-84328000D01*
X139430000Y-85598000D02*
X139430000Y-90738000D01*
%TO.C,J5*%
X115180000Y-85598000D02*
X115180000Y-90738000D01*
X115180000Y-85598000D02*
X117840000Y-85598000D01*
X115180000Y-90738000D02*
X117840000Y-90738000D01*
X116510000Y-82998000D02*
X117840000Y-82998000D01*
X117840000Y-82998000D02*
X117840000Y-84328000D01*
X117840000Y-85598000D02*
X117840000Y-90738000D01*
%TO.C,C9*%
X158220000Y-92048000D02*
X158220000Y-92293000D01*
X158220000Y-92048000D02*
X161860000Y-92048000D01*
X158220000Y-94143000D02*
X158220000Y-94388000D01*
X158220000Y-94388000D02*
X161860000Y-94388000D01*
X161860000Y-92048000D02*
X161860000Y-92293000D01*
X161860000Y-94143000D02*
X161860000Y-94388000D01*
%TO.C,J1*%
X79510000Y-89416000D02*
X79510000Y-90416000D01*
X79510000Y-90416000D02*
X80510000Y-89916000D01*
X80510000Y-89916000D02*
X79510000Y-89416000D01*
X80900000Y-84706000D02*
X90020000Y-84706000D01*
X80900000Y-99296000D02*
X82210000Y-99296000D01*
X80900000Y-117986000D02*
X80900000Y-84706000D01*
X82210000Y-86006000D02*
X88710000Y-86006000D01*
X82210000Y-99296000D02*
X82210000Y-86006000D01*
X82210000Y-103396000D02*
X80900000Y-103396000D01*
X82210000Y-103396000D02*
X82210000Y-103396000D01*
X82210000Y-116686000D02*
X82210000Y-103396000D01*
X88710000Y-86006000D02*
X88710000Y-116686000D01*
X88710000Y-116686000D02*
X82210000Y-116686000D01*
X90020000Y-84706000D02*
X90020000Y-117986000D01*
X90020000Y-117986000D02*
X80900000Y-117986000D01*
%TO.C,C8*%
X136630000Y-92048000D02*
X136630000Y-92293000D01*
X136630000Y-92048000D02*
X140270000Y-92048000D01*
X136630000Y-94143000D02*
X136630000Y-94388000D01*
X136630000Y-94388000D02*
X140270000Y-94388000D01*
X140270000Y-92048000D02*
X140270000Y-92293000D01*
X140270000Y-94143000D02*
X140270000Y-94388000D01*
%TO.C,C3*%
X113359759Y-96459000D02*
X113989759Y-96459000D01*
X113674759Y-96144000D02*
X113674759Y-96774000D01*
X116860000Y-95068000D02*
X116860000Y-101528000D01*
X116900000Y-95068000D02*
X116900000Y-101528000D01*
X116940000Y-95068000D02*
X116940000Y-101528000D01*
X116980000Y-95070000D02*
X116980000Y-101526000D01*
X117020000Y-95071000D02*
X117020000Y-101525000D01*
X117060000Y-95074000D02*
X117060000Y-101522000D01*
X117100000Y-95076000D02*
X117100000Y-97258000D01*
X117100000Y-99338000D02*
X117100000Y-101520000D01*
X117140000Y-95080000D02*
X117140000Y-97258000D01*
X117140000Y-99338000D02*
X117140000Y-101516000D01*
X117180000Y-95083000D02*
X117180000Y-97258000D01*
X117180000Y-99338000D02*
X117180000Y-101513000D01*
X117220000Y-95087000D02*
X117220000Y-97258000D01*
X117220000Y-99338000D02*
X117220000Y-101509000D01*
X117260000Y-95092000D02*
X117260000Y-97258000D01*
X117260000Y-99338000D02*
X117260000Y-101504000D01*
X117300000Y-95097000D02*
X117300000Y-97258000D01*
X117300000Y-99338000D02*
X117300000Y-101499000D01*
X117340000Y-95103000D02*
X117340000Y-97258000D01*
X117340000Y-99338000D02*
X117340000Y-101493000D01*
X117380000Y-95109000D02*
X117380000Y-97258000D01*
X117380000Y-99338000D02*
X117380000Y-101487000D01*
X117420000Y-95116000D02*
X117420000Y-97258000D01*
X117420000Y-99338000D02*
X117420000Y-101480000D01*
X117460000Y-95123000D02*
X117460000Y-97258000D01*
X117460000Y-99338000D02*
X117460000Y-101473000D01*
X117500000Y-95131000D02*
X117500000Y-97258000D01*
X117500000Y-99338000D02*
X117500000Y-101465000D01*
X117540000Y-95139000D02*
X117540000Y-97258000D01*
X117540000Y-99338000D02*
X117540000Y-101457000D01*
X117581000Y-95148000D02*
X117581000Y-97258000D01*
X117581000Y-99338000D02*
X117581000Y-101448000D01*
X117621000Y-95157000D02*
X117621000Y-97258000D01*
X117621000Y-99338000D02*
X117621000Y-101439000D01*
X117661000Y-95167000D02*
X117661000Y-97258000D01*
X117661000Y-99338000D02*
X117661000Y-101429000D01*
X117701000Y-95177000D02*
X117701000Y-97258000D01*
X117701000Y-99338000D02*
X117701000Y-101419000D01*
X117741000Y-95188000D02*
X117741000Y-97258000D01*
X117741000Y-99338000D02*
X117741000Y-101408000D01*
X117781000Y-95200000D02*
X117781000Y-97258000D01*
X117781000Y-99338000D02*
X117781000Y-101396000D01*
X117821000Y-95212000D02*
X117821000Y-97258000D01*
X117821000Y-99338000D02*
X117821000Y-101384000D01*
X117861000Y-95224000D02*
X117861000Y-97258000D01*
X117861000Y-99338000D02*
X117861000Y-101372000D01*
X117901000Y-95237000D02*
X117901000Y-97258000D01*
X117901000Y-99338000D02*
X117901000Y-101359000D01*
X117941000Y-95251000D02*
X117941000Y-97258000D01*
X117941000Y-99338000D02*
X117941000Y-101345000D01*
X117981000Y-95265000D02*
X117981000Y-97258000D01*
X117981000Y-99338000D02*
X117981000Y-101331000D01*
X118021000Y-95280000D02*
X118021000Y-97258000D01*
X118021000Y-99338000D02*
X118021000Y-101316000D01*
X118061000Y-95296000D02*
X118061000Y-97258000D01*
X118061000Y-99338000D02*
X118061000Y-101300000D01*
X118101000Y-95312000D02*
X118101000Y-97258000D01*
X118101000Y-99338000D02*
X118101000Y-101284000D01*
X118141000Y-95328000D02*
X118141000Y-97258000D01*
X118141000Y-99338000D02*
X118141000Y-101268000D01*
X118181000Y-95346000D02*
X118181000Y-97258000D01*
X118181000Y-99338000D02*
X118181000Y-101250000D01*
X118221000Y-95364000D02*
X118221000Y-97258000D01*
X118221000Y-99338000D02*
X118221000Y-101232000D01*
X118261000Y-95382000D02*
X118261000Y-97258000D01*
X118261000Y-99338000D02*
X118261000Y-101214000D01*
X118301000Y-95402000D02*
X118301000Y-97258000D01*
X118301000Y-99338000D02*
X118301000Y-101194000D01*
X118341000Y-95422000D02*
X118341000Y-97258000D01*
X118341000Y-99338000D02*
X118341000Y-101174000D01*
X118381000Y-95442000D02*
X118381000Y-97258000D01*
X118381000Y-99338000D02*
X118381000Y-101154000D01*
X118421000Y-95464000D02*
X118421000Y-97258000D01*
X118421000Y-99338000D02*
X118421000Y-101132000D01*
X118461000Y-95486000D02*
X118461000Y-97258000D01*
X118461000Y-99338000D02*
X118461000Y-101110000D01*
X118501000Y-95508000D02*
X118501000Y-97258000D01*
X118501000Y-99338000D02*
X118501000Y-101088000D01*
X118541000Y-95532000D02*
X118541000Y-97258000D01*
X118541000Y-99338000D02*
X118541000Y-101064000D01*
X118581000Y-95556000D02*
X118581000Y-97258000D01*
X118581000Y-99338000D02*
X118581000Y-101040000D01*
X118621000Y-95582000D02*
X118621000Y-97258000D01*
X118621000Y-99338000D02*
X118621000Y-101014000D01*
X118661000Y-95608000D02*
X118661000Y-97258000D01*
X118661000Y-99338000D02*
X118661000Y-100988000D01*
X118701000Y-95634000D02*
X118701000Y-97258000D01*
X118701000Y-99338000D02*
X118701000Y-100962000D01*
X118741000Y-95662000D02*
X118741000Y-97258000D01*
X118741000Y-99338000D02*
X118741000Y-100934000D01*
X118781000Y-95691000D02*
X118781000Y-97258000D01*
X118781000Y-99338000D02*
X118781000Y-100905000D01*
X118821000Y-95720000D02*
X118821000Y-97258000D01*
X118821000Y-99338000D02*
X118821000Y-100876000D01*
X118861000Y-95750000D02*
X118861000Y-97258000D01*
X118861000Y-99338000D02*
X118861000Y-100846000D01*
X118901000Y-95782000D02*
X118901000Y-97258000D01*
X118901000Y-99338000D02*
X118901000Y-100814000D01*
X118941000Y-95814000D02*
X118941000Y-97258000D01*
X118941000Y-99338000D02*
X118941000Y-100782000D01*
X118981000Y-95848000D02*
X118981000Y-97258000D01*
X118981000Y-99338000D02*
X118981000Y-100748000D01*
X119021000Y-95882000D02*
X119021000Y-97258000D01*
X119021000Y-99338000D02*
X119021000Y-100714000D01*
X119061000Y-95918000D02*
X119061000Y-97258000D01*
X119061000Y-99338000D02*
X119061000Y-100678000D01*
X119101000Y-95955000D02*
X119101000Y-97258000D01*
X119101000Y-99338000D02*
X119101000Y-100641000D01*
X119141000Y-95993000D02*
X119141000Y-97258000D01*
X119141000Y-99338000D02*
X119141000Y-100603000D01*
X119181000Y-96033000D02*
X119181000Y-100563000D01*
X119221000Y-96074000D02*
X119221000Y-100522000D01*
X119261000Y-96116000D02*
X119261000Y-100480000D01*
X119301000Y-96161000D02*
X119301000Y-100435000D01*
X119341000Y-96206000D02*
X119341000Y-100390000D01*
X119381000Y-96254000D02*
X119381000Y-100342000D01*
X119421000Y-96303000D02*
X119421000Y-100293000D01*
X119461000Y-96354000D02*
X119461000Y-100242000D01*
X119501000Y-96408000D02*
X119501000Y-100188000D01*
X119541000Y-96464000D02*
X119541000Y-100132000D01*
X119581000Y-96522000D02*
X119581000Y-100074000D01*
X119621000Y-96584000D02*
X119621000Y-100012000D01*
X119661000Y-96648000D02*
X119661000Y-99948000D01*
X119701000Y-96717000D02*
X119701000Y-99879000D01*
X119741000Y-96789000D02*
X119741000Y-99807000D01*
X119781000Y-96866000D02*
X119781000Y-99730000D01*
X119821000Y-96948000D02*
X119821000Y-99648000D01*
X119861000Y-97036000D02*
X119861000Y-99560000D01*
X119901000Y-97133000D02*
X119901000Y-99463000D01*
X119941000Y-97239000D02*
X119941000Y-99357000D01*
X119981000Y-97358000D02*
X119981000Y-99238000D01*
X120021000Y-97496000D02*
X120021000Y-99100000D01*
X120061000Y-97665000D02*
X120061000Y-98931000D01*
X120101000Y-97896000D02*
X120101000Y-98700000D01*
X120130000Y-98298000D02*
G75*
G02*
X113590000Y-98298000I-3270000J0D01*
G01*
X113590000Y-98298000D02*
G75*
G02*
X120130000Y-98298000I3270000J0D01*
G01*
%TO.C,A2*%
X114170000Y-103248000D02*
X114170000Y-118748000D01*
X114170000Y-118748000D02*
X134750000Y-118748000D01*
X132080000Y-103248000D02*
X114170000Y-103248000D01*
X132080000Y-105918000D02*
X114170000Y-105918000D01*
X132080000Y-105918000D02*
X132080000Y-103248000D01*
X134750000Y-103248000D02*
X133350000Y-103248000D01*
X134750000Y-104648000D02*
X134750000Y-103248000D01*
X134750000Y-105918000D02*
X132080000Y-105918000D01*
X134750000Y-116078000D02*
X114170000Y-116078000D01*
X134750000Y-118748000D02*
X134750000Y-105918000D01*
%TO.C,C7*%
X115040000Y-92048000D02*
X115040000Y-92293000D01*
X115040000Y-92048000D02*
X118680000Y-92048000D01*
X115040000Y-94143000D02*
X115040000Y-94388000D01*
X115040000Y-94388000D02*
X118680000Y-94388000D01*
X118680000Y-92048000D02*
X118680000Y-92293000D01*
X118680000Y-94143000D02*
X118680000Y-94388000D01*
%TO.C,A3*%
X135760000Y-103248000D02*
X135760000Y-118748000D01*
X135760000Y-118748000D02*
X156340000Y-118748000D01*
X153670000Y-103248000D02*
X135760000Y-103248000D01*
X153670000Y-105918000D02*
X135760000Y-105918000D01*
X153670000Y-105918000D02*
X153670000Y-103248000D01*
X156340000Y-103248000D02*
X154940000Y-103248000D01*
X156340000Y-104648000D02*
X156340000Y-103248000D01*
X156340000Y-105918000D02*
X153670000Y-105918000D01*
X156340000Y-116078000D02*
X135760000Y-116078000D01*
X156340000Y-118748000D02*
X156340000Y-105918000D01*
%TO.C,J8*%
X140820000Y-82578000D02*
X140820000Y-83828000D01*
X141110000Y-82868000D02*
X141110000Y-88838000D01*
X141110000Y-88838000D02*
X156230000Y-88838000D01*
X141120000Y-82878000D02*
X141120000Y-83628000D01*
X141120000Y-83628000D02*
X142920000Y-83628000D01*
X141120000Y-85128000D02*
X141870000Y-85128000D01*
X141870000Y-85128000D02*
X141870000Y-88078000D01*
X141870000Y-88078000D02*
X148670000Y-88078000D01*
X142070000Y-82578000D02*
X140820000Y-82578000D01*
X142920000Y-82878000D02*
X141120000Y-82878000D01*
X142920000Y-83628000D02*
X142920000Y-82878000D01*
X144420000Y-82878000D02*
X144420000Y-83628000D01*
X144420000Y-83628000D02*
X152920000Y-83628000D01*
X152920000Y-82878000D02*
X144420000Y-82878000D01*
X152920000Y-83628000D02*
X152920000Y-82878000D01*
X154420000Y-82878000D02*
X154420000Y-83628000D01*
X154420000Y-83628000D02*
X156220000Y-83628000D01*
X155470000Y-85128000D02*
X155470000Y-88078000D01*
X155470000Y-88078000D02*
X148670000Y-88078000D01*
X156220000Y-82878000D02*
X154420000Y-82878000D01*
X156220000Y-83628000D02*
X156220000Y-82878000D01*
X156220000Y-85128000D02*
X155470000Y-85128000D01*
X156230000Y-82868000D02*
X141110000Y-82868000D01*
X156230000Y-88838000D02*
X156230000Y-82868000D01*
%TO.C,J10*%
X162420000Y-82578000D02*
X162420000Y-83828000D01*
X162710000Y-82868000D02*
X162710000Y-88838000D01*
X162710000Y-88838000D02*
X177830000Y-88838000D01*
X162720000Y-82878000D02*
X162720000Y-83628000D01*
X162720000Y-83628000D02*
X164520000Y-83628000D01*
X162720000Y-85128000D02*
X163470000Y-85128000D01*
X163470000Y-85128000D02*
X163470000Y-88078000D01*
X163470000Y-88078000D02*
X170270000Y-88078000D01*
X163670000Y-82578000D02*
X162420000Y-82578000D01*
X164520000Y-82878000D02*
X162720000Y-82878000D01*
X164520000Y-83628000D02*
X164520000Y-82878000D01*
X166020000Y-82878000D02*
X166020000Y-83628000D01*
X166020000Y-83628000D02*
X174520000Y-83628000D01*
X174520000Y-82878000D02*
X166020000Y-82878000D01*
X174520000Y-83628000D02*
X174520000Y-82878000D01*
X176020000Y-82878000D02*
X176020000Y-83628000D01*
X176020000Y-83628000D02*
X177820000Y-83628000D01*
X177070000Y-85128000D02*
X177070000Y-88078000D01*
X177070000Y-88078000D02*
X170270000Y-88078000D01*
X177820000Y-82878000D02*
X176020000Y-82878000D01*
X177820000Y-83628000D02*
X177820000Y-82878000D01*
X177820000Y-85128000D02*
X177070000Y-85128000D01*
X177830000Y-82868000D02*
X162710000Y-82868000D01*
X177830000Y-88838000D02*
X177830000Y-82868000D01*
%TO.C,J9*%
X158370000Y-85598000D02*
X158370000Y-90738000D01*
X158370000Y-85598000D02*
X161030000Y-85598000D01*
X158370000Y-90738000D02*
X161030000Y-90738000D01*
X159700000Y-82998000D02*
X161030000Y-82998000D01*
X161030000Y-82998000D02*
X161030000Y-84328000D01*
X161030000Y-85598000D02*
X161030000Y-90738000D01*
%TO.C,J6*%
X119230000Y-82578000D02*
X119230000Y-83828000D01*
X119520000Y-82868000D02*
X119520000Y-88838000D01*
X119520000Y-88838000D02*
X134640000Y-88838000D01*
X119530000Y-82878000D02*
X119530000Y-83628000D01*
X119530000Y-83628000D02*
X121330000Y-83628000D01*
X119530000Y-85128000D02*
X120280000Y-85128000D01*
X120280000Y-85128000D02*
X120280000Y-88078000D01*
X120280000Y-88078000D02*
X127080000Y-88078000D01*
X120480000Y-82578000D02*
X119230000Y-82578000D01*
X121330000Y-82878000D02*
X119530000Y-82878000D01*
X121330000Y-83628000D02*
X121330000Y-82878000D01*
X122830000Y-82878000D02*
X122830000Y-83628000D01*
X122830000Y-83628000D02*
X131330000Y-83628000D01*
X131330000Y-82878000D02*
X122830000Y-82878000D01*
X131330000Y-83628000D02*
X131330000Y-82878000D01*
X132830000Y-82878000D02*
X132830000Y-83628000D01*
X132830000Y-83628000D02*
X134630000Y-83628000D01*
X133880000Y-85128000D02*
X133880000Y-88078000D01*
X133880000Y-88078000D02*
X127080000Y-88078000D01*
X134630000Y-82878000D02*
X132830000Y-82878000D01*
X134630000Y-83628000D02*
X134630000Y-82878000D01*
X134630000Y-85128000D02*
X133880000Y-85128000D01*
X134640000Y-82868000D02*
X119520000Y-82868000D01*
X134640000Y-88838000D02*
X134640000Y-82868000D01*
%TO.C,J2*%
X130242000Y-91888000D02*
X131572000Y-91888000D01*
X130242000Y-93218000D02*
X130242000Y-91888000D01*
X130242000Y-94488000D02*
X130242000Y-94548000D01*
X130242000Y-94488000D02*
X132902000Y-94488000D01*
X130242000Y-94548000D02*
X132902000Y-94548000D01*
X132902000Y-94488000D02*
X132902000Y-94548000D01*
%TO.C,C4*%
X134949759Y-96459000D02*
X135579759Y-96459000D01*
X135264759Y-96144000D02*
X135264759Y-96774000D01*
X138450000Y-95068000D02*
X138450000Y-101528000D01*
X138490000Y-95068000D02*
X138490000Y-101528000D01*
X138530000Y-95068000D02*
X138530000Y-101528000D01*
X138570000Y-95070000D02*
X138570000Y-101526000D01*
X138610000Y-95071000D02*
X138610000Y-101525000D01*
X138650000Y-95074000D02*
X138650000Y-101522000D01*
X138690000Y-95076000D02*
X138690000Y-97258000D01*
X138690000Y-99338000D02*
X138690000Y-101520000D01*
X138730000Y-95080000D02*
X138730000Y-97258000D01*
X138730000Y-99338000D02*
X138730000Y-101516000D01*
X138770000Y-95083000D02*
X138770000Y-97258000D01*
X138770000Y-99338000D02*
X138770000Y-101513000D01*
X138810000Y-95087000D02*
X138810000Y-97258000D01*
X138810000Y-99338000D02*
X138810000Y-101509000D01*
X138850000Y-95092000D02*
X138850000Y-97258000D01*
X138850000Y-99338000D02*
X138850000Y-101504000D01*
X138890000Y-95097000D02*
X138890000Y-97258000D01*
X138890000Y-99338000D02*
X138890000Y-101499000D01*
X138930000Y-95103000D02*
X138930000Y-97258000D01*
X138930000Y-99338000D02*
X138930000Y-101493000D01*
X138970000Y-95109000D02*
X138970000Y-97258000D01*
X138970000Y-99338000D02*
X138970000Y-101487000D01*
X139010000Y-95116000D02*
X139010000Y-97258000D01*
X139010000Y-99338000D02*
X139010000Y-101480000D01*
X139050000Y-95123000D02*
X139050000Y-97258000D01*
X139050000Y-99338000D02*
X139050000Y-101473000D01*
X139090000Y-95131000D02*
X139090000Y-97258000D01*
X139090000Y-99338000D02*
X139090000Y-101465000D01*
X139130000Y-95139000D02*
X139130000Y-97258000D01*
X139130000Y-99338000D02*
X139130000Y-101457000D01*
X139171000Y-95148000D02*
X139171000Y-97258000D01*
X139171000Y-99338000D02*
X139171000Y-101448000D01*
X139211000Y-95157000D02*
X139211000Y-97258000D01*
X139211000Y-99338000D02*
X139211000Y-101439000D01*
X139251000Y-95167000D02*
X139251000Y-97258000D01*
X139251000Y-99338000D02*
X139251000Y-101429000D01*
X139291000Y-95177000D02*
X139291000Y-97258000D01*
X139291000Y-99338000D02*
X139291000Y-101419000D01*
X139331000Y-95188000D02*
X139331000Y-97258000D01*
X139331000Y-99338000D02*
X139331000Y-101408000D01*
X139371000Y-95200000D02*
X139371000Y-97258000D01*
X139371000Y-99338000D02*
X139371000Y-101396000D01*
X139411000Y-95212000D02*
X139411000Y-97258000D01*
X139411000Y-99338000D02*
X139411000Y-101384000D01*
X139451000Y-95224000D02*
X139451000Y-97258000D01*
X139451000Y-99338000D02*
X139451000Y-101372000D01*
X139491000Y-95237000D02*
X139491000Y-97258000D01*
X139491000Y-99338000D02*
X139491000Y-101359000D01*
X139531000Y-95251000D02*
X139531000Y-97258000D01*
X139531000Y-99338000D02*
X139531000Y-101345000D01*
X139571000Y-95265000D02*
X139571000Y-97258000D01*
X139571000Y-99338000D02*
X139571000Y-101331000D01*
X139611000Y-95280000D02*
X139611000Y-97258000D01*
X139611000Y-99338000D02*
X139611000Y-101316000D01*
X139651000Y-95296000D02*
X139651000Y-97258000D01*
X139651000Y-99338000D02*
X139651000Y-101300000D01*
X139691000Y-95312000D02*
X139691000Y-97258000D01*
X139691000Y-99338000D02*
X139691000Y-101284000D01*
X139731000Y-95328000D02*
X139731000Y-97258000D01*
X139731000Y-99338000D02*
X139731000Y-101268000D01*
X139771000Y-95346000D02*
X139771000Y-97258000D01*
X139771000Y-99338000D02*
X139771000Y-101250000D01*
X139811000Y-95364000D02*
X139811000Y-97258000D01*
X139811000Y-99338000D02*
X139811000Y-101232000D01*
X139851000Y-95382000D02*
X139851000Y-97258000D01*
X139851000Y-99338000D02*
X139851000Y-101214000D01*
X139891000Y-95402000D02*
X139891000Y-97258000D01*
X139891000Y-99338000D02*
X139891000Y-101194000D01*
X139931000Y-95422000D02*
X139931000Y-97258000D01*
X139931000Y-99338000D02*
X139931000Y-101174000D01*
X139971000Y-95442000D02*
X139971000Y-97258000D01*
X139971000Y-99338000D02*
X139971000Y-101154000D01*
X140011000Y-95464000D02*
X140011000Y-97258000D01*
X140011000Y-99338000D02*
X140011000Y-101132000D01*
X140051000Y-95486000D02*
X140051000Y-97258000D01*
X140051000Y-99338000D02*
X140051000Y-101110000D01*
X140091000Y-95508000D02*
X140091000Y-97258000D01*
X140091000Y-99338000D02*
X140091000Y-101088000D01*
X140131000Y-95532000D02*
X140131000Y-97258000D01*
X140131000Y-99338000D02*
X140131000Y-101064000D01*
X140171000Y-95556000D02*
X140171000Y-97258000D01*
X140171000Y-99338000D02*
X140171000Y-101040000D01*
X140211000Y-95582000D02*
X140211000Y-97258000D01*
X140211000Y-99338000D02*
X140211000Y-101014000D01*
X140251000Y-95608000D02*
X140251000Y-97258000D01*
X140251000Y-99338000D02*
X140251000Y-100988000D01*
X140291000Y-95634000D02*
X140291000Y-97258000D01*
X140291000Y-99338000D02*
X140291000Y-100962000D01*
X140331000Y-95662000D02*
X140331000Y-97258000D01*
X140331000Y-99338000D02*
X140331000Y-100934000D01*
X140371000Y-95691000D02*
X140371000Y-97258000D01*
X140371000Y-99338000D02*
X140371000Y-100905000D01*
X140411000Y-95720000D02*
X140411000Y-97258000D01*
X140411000Y-99338000D02*
X140411000Y-100876000D01*
X140451000Y-95750000D02*
X140451000Y-97258000D01*
X140451000Y-99338000D02*
X140451000Y-100846000D01*
X140491000Y-95782000D02*
X140491000Y-97258000D01*
X140491000Y-99338000D02*
X140491000Y-100814000D01*
X140531000Y-95814000D02*
X140531000Y-97258000D01*
X140531000Y-99338000D02*
X140531000Y-100782000D01*
X140571000Y-95848000D02*
X140571000Y-97258000D01*
X140571000Y-99338000D02*
X140571000Y-100748000D01*
X140611000Y-95882000D02*
X140611000Y-97258000D01*
X140611000Y-99338000D02*
X140611000Y-100714000D01*
X140651000Y-95918000D02*
X140651000Y-97258000D01*
X140651000Y-99338000D02*
X140651000Y-100678000D01*
X140691000Y-95955000D02*
X140691000Y-97258000D01*
X140691000Y-99338000D02*
X140691000Y-100641000D01*
X140731000Y-95993000D02*
X140731000Y-97258000D01*
X140731000Y-99338000D02*
X140731000Y-100603000D01*
X140771000Y-96033000D02*
X140771000Y-100563000D01*
X140811000Y-96074000D02*
X140811000Y-100522000D01*
X140851000Y-96116000D02*
X140851000Y-100480000D01*
X140891000Y-96161000D02*
X140891000Y-100435000D01*
X140931000Y-96206000D02*
X140931000Y-100390000D01*
X140971000Y-96254000D02*
X140971000Y-100342000D01*
X141011000Y-96303000D02*
X141011000Y-100293000D01*
X141051000Y-96354000D02*
X141051000Y-100242000D01*
X141091000Y-96408000D02*
X141091000Y-100188000D01*
X141131000Y-96464000D02*
X141131000Y-100132000D01*
X141171000Y-96522000D02*
X141171000Y-100074000D01*
X141211000Y-96584000D02*
X141211000Y-100012000D01*
X141251000Y-96648000D02*
X141251000Y-99948000D01*
X141291000Y-96717000D02*
X141291000Y-99879000D01*
X141331000Y-96789000D02*
X141331000Y-99807000D01*
X141371000Y-96866000D02*
X141371000Y-99730000D01*
X141411000Y-96948000D02*
X141411000Y-99648000D01*
X141451000Y-97036000D02*
X141451000Y-99560000D01*
X141491000Y-97133000D02*
X141491000Y-99463000D01*
X141531000Y-97239000D02*
X141531000Y-99357000D01*
X141571000Y-97358000D02*
X141571000Y-99238000D01*
X141611000Y-97496000D02*
X141611000Y-99100000D01*
X141651000Y-97665000D02*
X141651000Y-98931000D01*
X141691000Y-97896000D02*
X141691000Y-98700000D01*
X141720000Y-98298000D02*
G75*
G02*
X135180000Y-98298000I-3270000J0D01*
G01*
X135180000Y-98298000D02*
G75*
G02*
X141720000Y-98298000I3270000J0D01*
G01*
%TD*%
%LPC*%
D15*
%TO.C,A4*%
X176530000Y-104648000D03*
D16*
X173990000Y-104648000D03*
X171450000Y-104648000D03*
X168910000Y-104648000D03*
X166370000Y-104648000D03*
X163830000Y-104648000D03*
X161290000Y-104648000D03*
X158750000Y-104648000D03*
X158750000Y-117348000D03*
X161290000Y-117348000D03*
X163830000Y-117348000D03*
X166370000Y-117348000D03*
X168910000Y-117348000D03*
X171450000Y-117348000D03*
X173990000Y-117348000D03*
X176530000Y-117348000D03*
%TD*%
D17*
%TO.C,J4*%
X100490000Y-85328000D03*
D18*
X102990000Y-85328000D03*
X105490000Y-85328000D03*
X107990000Y-85328000D03*
X110490000Y-85328000D03*
%TD*%
D19*
%TO.C,J3*%
X94920000Y-84328000D03*
D20*
X94920000Y-86868000D03*
X94920000Y-89408000D03*
%TD*%
D15*
%TO.C,A1*%
X111760000Y-104648000D03*
D16*
X109220000Y-104648000D03*
X106680000Y-104648000D03*
X104140000Y-104648000D03*
X101600000Y-104648000D03*
X99060000Y-104648000D03*
X96520000Y-104648000D03*
X93980000Y-104648000D03*
X93980000Y-117348000D03*
X96520000Y-117348000D03*
X99060000Y-117348000D03*
X101600000Y-117348000D03*
X104140000Y-117348000D03*
X106680000Y-117348000D03*
X109220000Y-117348000D03*
X111760000Y-117348000D03*
%TD*%
D21*
%TO.C,C6*%
X94020000Y-93218000D03*
X96520000Y-93218000D03*
%TD*%
D22*
%TO.C,REF3*%
X109075000Y-123650000D03*
%TD*%
D15*
%TO.C,C5*%
X158790000Y-98298000D03*
D21*
X161290000Y-98298000D03*
%TD*%
D15*
%TO.C,C2*%
X94020000Y-98298000D03*
D21*
X96520000Y-98298000D03*
%TD*%
D15*
%TO.C,C1*%
X86360000Y-121412000D03*
D21*
X86360000Y-123912000D03*
%TD*%
D19*
%TO.C,J7*%
X138100000Y-84328000D03*
D20*
X138100000Y-86868000D03*
X138100000Y-89408000D03*
%TD*%
D19*
%TO.C,J5*%
X116510000Y-84328000D03*
D20*
X116510000Y-86868000D03*
X116510000Y-89408000D03*
%TD*%
D21*
%TO.C,C9*%
X158790000Y-93218000D03*
X161290000Y-93218000D03*
%TD*%
D23*
%TO.C,J1*%
X84190000Y-89916000D03*
D24*
X86730000Y-89916000D03*
X84190000Y-92456000D03*
X86730000Y-92456000D03*
X84190000Y-94996000D03*
X86730000Y-94996000D03*
X84190000Y-97536000D03*
X86730000Y-97536000D03*
X84190000Y-100076000D03*
X86730000Y-100076000D03*
X84190000Y-102616000D03*
X86730000Y-102616000D03*
X84190000Y-105156000D03*
X86730000Y-105156000D03*
X84190000Y-107696000D03*
X86730000Y-107696000D03*
X84190000Y-110236000D03*
X86730000Y-110236000D03*
X84190000Y-112776000D03*
X86730000Y-112776000D03*
%TD*%
D22*
%TO.C,REF4*%
X169075000Y-123650000D03*
%TD*%
D21*
%TO.C,C8*%
X137200000Y-93218000D03*
X139700000Y-93218000D03*
%TD*%
D22*
%TO.C,REF2*%
X169075000Y-93650000D03*
%TD*%
D15*
%TO.C,C3*%
X115610000Y-98298000D03*
D21*
X118110000Y-98298000D03*
%TD*%
D15*
%TO.C,A2*%
X133350000Y-104648000D03*
D16*
X130810000Y-104648000D03*
X128270000Y-104648000D03*
X125730000Y-104648000D03*
X123190000Y-104648000D03*
X120650000Y-104648000D03*
X118110000Y-104648000D03*
X115570000Y-104648000D03*
X115570000Y-117348000D03*
X118110000Y-117348000D03*
X120650000Y-117348000D03*
X123190000Y-117348000D03*
X125730000Y-117348000D03*
X128270000Y-117348000D03*
X130810000Y-117348000D03*
X133350000Y-117348000D03*
%TD*%
D21*
%TO.C,C7*%
X115610000Y-93218000D03*
X118110000Y-93218000D03*
%TD*%
D22*
%TO.C,REF1*%
X109075000Y-93650000D03*
%TD*%
D15*
%TO.C,A3*%
X154940000Y-104648000D03*
D16*
X152400000Y-104648000D03*
X149860000Y-104648000D03*
X147320000Y-104648000D03*
X144780000Y-104648000D03*
X142240000Y-104648000D03*
X139700000Y-104648000D03*
X137160000Y-104648000D03*
X137160000Y-117348000D03*
X139700000Y-117348000D03*
X142240000Y-117348000D03*
X144780000Y-117348000D03*
X147320000Y-117348000D03*
X149860000Y-117348000D03*
X152400000Y-117348000D03*
X154940000Y-117348000D03*
%TD*%
D17*
%TO.C,J8*%
X143670000Y-85328000D03*
D18*
X146170000Y-85328000D03*
X148670000Y-85328000D03*
X151170000Y-85328000D03*
X153670000Y-85328000D03*
%TD*%
D17*
%TO.C,J10*%
X165270000Y-85328000D03*
D18*
X167770000Y-85328000D03*
X170270000Y-85328000D03*
X172770000Y-85328000D03*
X175270000Y-85328000D03*
%TD*%
D19*
%TO.C,J9*%
X159700000Y-84328000D03*
D20*
X159700000Y-86868000D03*
X159700000Y-89408000D03*
%TD*%
D17*
%TO.C,J6*%
X122080000Y-85328000D03*
D18*
X124580000Y-85328000D03*
X127080000Y-85328000D03*
X129580000Y-85328000D03*
X132080000Y-85328000D03*
%TD*%
D19*
%TO.C,J2*%
X131572000Y-93218000D03*
%TD*%
D15*
%TO.C,C4*%
X137200000Y-98298000D03*
D21*
X139700000Y-98298000D03*
%TD*%
%LPD*%
M02*
