%TF.GenerationSoftware,KiCad,Pcbnew,8.0.0*%
%TF.CreationDate,2024-03-11T16:40:43+11:00*%
%TF.ProjectId,split-flap,73706c69-742d-4666-9c61-702e6b696361,rev?*%
%TF.SameCoordinates,Original*%
%TF.FileFunction,Soldermask,Bot*%
%TF.FilePolarity,Negative*%
%FSLAX46Y46*%
G04 Gerber Fmt 4.6, Leading zero omitted, Abs format (unit mm)*
G04 Created by KiCad (PCBNEW 8.0.0) date 2024-03-11 16:40:43*
%MOMM*%
%LPD*%
G01*
G04 APERTURE LIST*
G04 Aperture macros list*
%AMRoundRect*
0 Rectangle with rounded corners*
0 $1 Rounding radius*
0 $2 $3 $4 $5 $6 $7 $8 $9 X,Y pos of 4 corners*
0 Add a 4 corners polygon primitive as box body*
4,1,4,$2,$3,$4,$5,$6,$7,$8,$9,$2,$3,0*
0 Add four circle primitives for the rounded corners*
1,1,$1+$1,$2,$3*
1,1,$1+$1,$4,$5*
1,1,$1+$1,$6,$7*
1,1,$1+$1,$8,$9*
0 Add four rect primitives between the rounded corners*
20,1,$1+$1,$2,$3,$4,$5,0*
20,1,$1+$1,$4,$5,$6,$7,0*
20,1,$1+$1,$6,$7,$8,$9,0*
20,1,$1+$1,$8,$9,$2,$3,0*%
G04 Aperture macros list end*
%ADD10C,1.600000*%
%ADD11O,1.600000X1.600000*%
%ADD12R,1.700000X1.700000*%
%ADD13O,1.700000X1.700000*%
%ADD14C,6.400000*%
%ADD15RoundRect,0.250000X-0.600000X-0.600000X0.600000X-0.600000X0.600000X0.600000X-0.600000X0.600000X0*%
%ADD16C,1.700000*%
%ADD17R,2.100000X2.100000*%
%ADD18C,2.100000*%
%ADD19R,2.000000X1.200000*%
%ADD20O,2.000000X1.200000*%
%ADD21R,1.600000X1.600000*%
%ADD22C,2.020000*%
%ADD23R,2.000000X2.000000*%
%ADD24C,2.000000*%
G04 APERTURE END LIST*
D10*
%TO.C,C5*%
X132080000Y-106720000D03*
X132080000Y-109220000D03*
%TD*%
%TO.C,R2*%
X126705000Y-48260000D03*
D11*
X134325000Y-48260000D03*
%TD*%
D12*
%TO.C,J4*%
X114295000Y-58765000D03*
D13*
X114295000Y-56225000D03*
%TD*%
D12*
%TO.C,J2*%
X114295000Y-43180000D03*
D13*
X114295000Y-45720000D03*
X114295000Y-48260000D03*
X114295000Y-50800000D03*
%TD*%
D10*
%TO.C,C4*%
X172720000Y-106680000D03*
X172720000Y-109180000D03*
%TD*%
D14*
%TO.C,REF1*%
X114915000Y-35500000D03*
%TD*%
D15*
%TO.C,J5*%
X196580000Y-90790000D03*
D16*
X199120000Y-90790000D03*
X196580000Y-93330000D03*
X199120000Y-93330000D03*
X196580000Y-95870000D03*
X199120000Y-95870000D03*
X196580000Y-98410000D03*
X199120000Y-98410000D03*
X196580000Y-100950000D03*
X199120000Y-100950000D03*
X196580000Y-103490000D03*
X199120000Y-103490000D03*
X196580000Y-106030000D03*
X199120000Y-106030000D03*
X196580000Y-108570000D03*
X199120000Y-108570000D03*
X196580000Y-111110000D03*
X199120000Y-111110000D03*
X196580000Y-113650000D03*
X199120000Y-113650000D03*
%TD*%
D14*
%TO.C,REF3*%
X114915000Y-124500000D03*
%TD*%
D17*
%TO.C,J1*%
X114295000Y-64560000D03*
D18*
X114295000Y-67100000D03*
X114295000Y-69640000D03*
%TD*%
D19*
%TO.C,U2*%
X156675000Y-32321600D03*
D20*
X156675000Y-34861600D03*
X156675000Y-37401600D03*
X156675000Y-39941600D03*
X156675000Y-42481600D03*
X156675000Y-45021600D03*
X156675000Y-47561600D03*
X156675000Y-50101600D03*
X156675000Y-52641600D03*
X156675000Y-55181600D03*
X156675000Y-57721600D03*
X156675000Y-60261600D03*
X156675000Y-62801600D03*
X156675000Y-65341600D03*
X156675000Y-67881600D03*
X156675000Y-70421600D03*
X156675000Y-72961600D03*
X156675000Y-75501600D03*
X156675000Y-78041600D03*
X182071320Y-78038880D03*
X182071320Y-75498880D03*
X182075000Y-72961600D03*
X182075000Y-70421600D03*
X182075000Y-67881600D03*
X182075000Y-65341600D03*
X182075000Y-62801600D03*
X182075000Y-60261600D03*
X182075000Y-57721600D03*
X182075000Y-55181600D03*
X182075000Y-52641600D03*
X182075000Y-50101600D03*
X182075000Y-47561600D03*
X182075000Y-45021600D03*
X182075000Y-42481600D03*
X182075000Y-39941600D03*
X182075000Y-37401600D03*
X182075000Y-34861600D03*
X182075000Y-32321600D03*
%TD*%
D21*
%TO.C,U3*%
X134620000Y-86360000D03*
D10*
X134620000Y-88900000D03*
X134620000Y-91440000D03*
X134620000Y-93980000D03*
X134620000Y-96520000D03*
X134620000Y-99060000D03*
X134620000Y-101600000D03*
X134620000Y-104140000D03*
X134620000Y-106680000D03*
X134620000Y-109220000D03*
X134620000Y-111760000D03*
X134620000Y-114300000D03*
X134620000Y-116840000D03*
X134620000Y-119380000D03*
X142240000Y-119380000D03*
X142240000Y-116840000D03*
X142240000Y-114300000D03*
X142240000Y-111760000D03*
X142240000Y-109220000D03*
X142240000Y-106680000D03*
X142240000Y-104140000D03*
X142240000Y-101600000D03*
X142240000Y-99060000D03*
X142240000Y-96520000D03*
X142240000Y-93980000D03*
X142240000Y-91440000D03*
X142240000Y-88900000D03*
X142240000Y-86360000D03*
%TD*%
D22*
%TO.C,TP3*%
X188385000Y-68580000D03*
%TD*%
D10*
%TO.C,R1*%
X126705000Y-43180000D03*
D11*
X134325000Y-43180000D03*
%TD*%
D10*
%TO.C,C1*%
X127000000Y-66080000D03*
X127000000Y-68580000D03*
%TD*%
%TO.C,R3*%
X193610000Y-47350000D03*
D11*
X185990000Y-47350000D03*
%TD*%
D14*
%TO.C,REF4*%
X199905000Y-124500000D03*
%TD*%
D22*
%TO.C,TP1*%
X188385000Y-58420000D03*
%TD*%
D21*
%TO.C,U4*%
X175260000Y-86360000D03*
D10*
X175260000Y-88900000D03*
X175260000Y-91440000D03*
X175260000Y-93980000D03*
X175260000Y-96520000D03*
X175260000Y-99060000D03*
X175260000Y-101600000D03*
X175260000Y-104140000D03*
X175260000Y-106680000D03*
X175260000Y-109220000D03*
X175260000Y-111760000D03*
X175260000Y-114300000D03*
X175260000Y-116840000D03*
X175260000Y-119380000D03*
X182880000Y-119380000D03*
X182880000Y-116840000D03*
X182880000Y-114300000D03*
X182880000Y-111760000D03*
X182880000Y-109220000D03*
X182880000Y-106680000D03*
X182880000Y-104140000D03*
X182880000Y-101600000D03*
X182880000Y-99060000D03*
X182880000Y-96520000D03*
X182880000Y-93980000D03*
X182880000Y-91440000D03*
X182880000Y-88900000D03*
X182880000Y-86360000D03*
%TD*%
%TO.C,R4*%
X193610000Y-42230000D03*
D11*
X185990000Y-42230000D03*
%TD*%
D15*
%TO.C,J6*%
X116235000Y-90790000D03*
D16*
X118775000Y-90790000D03*
X116235000Y-93330000D03*
X118775000Y-93330000D03*
X116235000Y-95870000D03*
X118775000Y-95870000D03*
X116235000Y-98410000D03*
X118775000Y-98410000D03*
X116235000Y-100950000D03*
X118775000Y-100950000D03*
X116235000Y-103490000D03*
X118775000Y-103490000D03*
X116235000Y-106030000D03*
X118775000Y-106030000D03*
X116235000Y-108570000D03*
X118775000Y-108570000D03*
X116235000Y-111110000D03*
X118775000Y-111110000D03*
X116235000Y-113650000D03*
X118775000Y-113650000D03*
%TD*%
D14*
%TO.C,REF2*%
X199915000Y-35500000D03*
%TD*%
D12*
%TO.C,J3*%
X114295000Y-78740000D03*
D13*
X114295000Y-76200000D03*
%TD*%
D22*
%TO.C,TP4*%
X188385000Y-53340000D03*
%TD*%
%TO.C,TP2*%
X188385000Y-63500000D03*
%TD*%
D10*
%TO.C,C3*%
X149297700Y-37300000D03*
X149297700Y-39800000D03*
%TD*%
D15*
%TO.C,J7*%
X156907500Y-90790000D03*
D16*
X159447500Y-90790000D03*
X156907500Y-93330000D03*
X159447500Y-93330000D03*
X156907500Y-95870000D03*
X159447500Y-95870000D03*
X156907500Y-98410000D03*
X159447500Y-98410000D03*
X156907500Y-100950000D03*
X159447500Y-100950000D03*
X156907500Y-103490000D03*
X159447500Y-103490000D03*
X156907500Y-106030000D03*
X159447500Y-106030000D03*
X156907500Y-108570000D03*
X159447500Y-108570000D03*
X156907500Y-111110000D03*
X159447500Y-111110000D03*
X156907500Y-113650000D03*
X159447500Y-113650000D03*
%TD*%
D23*
%TO.C,U1*%
X137160000Y-71120000D03*
D24*
X137160000Y-68580000D03*
X137160000Y-66040000D03*
%TD*%
D21*
%TO.C,C2*%
X144780000Y-68327000D03*
D10*
X144780000Y-70327000D03*
%TD*%
M02*
