%TF.GenerationSoftware,KiCad,Pcbnew,8.0.0*%
%TF.CreationDate,2024-03-11T16:40:43+11:00*%
%TF.ProjectId,split-flap,73706c69-742d-4666-9c61-702e6b696361,rev?*%
%TF.SameCoordinates,Original*%
%TF.FileFunction,Legend,Bot*%
%TF.FilePolarity,Positive*%
%FSLAX46Y46*%
G04 Gerber Fmt 4.6, Leading zero omitted, Abs format (unit mm)*
G04 Created by KiCad (PCBNEW 8.0.0) date 2024-03-11 16:40:43*
%MOMM*%
%LPD*%
G01*
G04 APERTURE LIST*
G04 Aperture macros list*
%AMRoundRect*
0 Rectangle with rounded corners*
0 $1 Rounding radius*
0 $2 $3 $4 $5 $6 $7 $8 $9 X,Y pos of 4 corners*
0 Add a 4 corners polygon primitive as box body*
4,1,4,$2,$3,$4,$5,$6,$7,$8,$9,$2,$3,0*
0 Add four circle primitives for the rounded corners*
1,1,$1+$1,$2,$3*
1,1,$1+$1,$4,$5*
1,1,$1+$1,$6,$7*
1,1,$1+$1,$8,$9*
0 Add four rect primitives between the rounded corners*
20,1,$1+$1,$2,$3,$4,$5,0*
20,1,$1+$1,$4,$5,$6,$7,0*
20,1,$1+$1,$6,$7,$8,$9,0*
20,1,$1+$1,$8,$9,$2,$3,0*%
G04 Aperture macros list end*
%ADD10C,0.300000*%
%ADD11C,0.250000*%
%ADD12C,0.150000*%
%ADD13C,1.600000*%
%ADD14O,1.600000X1.600000*%
%ADD15R,1.700000X1.700000*%
%ADD16O,1.700000X1.700000*%
%ADD17C,6.400000*%
%ADD18RoundRect,0.250000X-0.600000X-0.600000X0.600000X-0.600000X0.600000X0.600000X-0.600000X0.600000X0*%
%ADD19C,1.700000*%
%ADD20R,2.100000X2.100000*%
%ADD21C,2.100000*%
%ADD22R,2.000000X1.200000*%
%ADD23O,2.000000X1.200000*%
%ADD24R,1.600000X1.600000*%
%ADD25C,2.020000*%
%ADD26R,2.000000X2.000000*%
%ADD27C,2.000000*%
G04 APERTURE END LIST*
D10*
X110731917Y-69655400D02*
X109817632Y-69655400D01*
X110731917Y-67055400D02*
X109817632Y-67055400D01*
X110274774Y-67512542D02*
X110274774Y-66598257D01*
D11*
X166724812Y-127115142D02*
X166724812Y-125915142D01*
X166724812Y-125915142D02*
X166324812Y-126772285D01*
X166324812Y-126772285D02*
X165924812Y-125915142D01*
X165924812Y-125915142D02*
X165924812Y-127115142D01*
X165124812Y-126543714D02*
X165124812Y-127115142D01*
X165524812Y-125915142D02*
X165124812Y-126543714D01*
X165124812Y-126543714D02*
X164724812Y-125915142D01*
X163867669Y-127058000D02*
X163981955Y-127115142D01*
X163981955Y-127115142D02*
X164210527Y-127115142D01*
X164210527Y-127115142D02*
X164324812Y-127058000D01*
X164324812Y-127058000D02*
X164381955Y-126943714D01*
X164381955Y-126943714D02*
X164381955Y-126486571D01*
X164381955Y-126486571D02*
X164324812Y-126372285D01*
X164324812Y-126372285D02*
X164210527Y-126315142D01*
X164210527Y-126315142D02*
X163981955Y-126315142D01*
X163981955Y-126315142D02*
X163867669Y-126372285D01*
X163867669Y-126372285D02*
X163810527Y-126486571D01*
X163810527Y-126486571D02*
X163810527Y-126600857D01*
X163810527Y-126600857D02*
X164381955Y-126715142D01*
X163124813Y-127115142D02*
X163239098Y-127058000D01*
X163239098Y-127058000D02*
X163296241Y-127000857D01*
X163296241Y-127000857D02*
X163353384Y-126886571D01*
X163353384Y-126886571D02*
X163353384Y-126543714D01*
X163353384Y-126543714D02*
X163296241Y-126429428D01*
X163296241Y-126429428D02*
X163239098Y-126372285D01*
X163239098Y-126372285D02*
X163124813Y-126315142D01*
X163124813Y-126315142D02*
X162953384Y-126315142D01*
X162953384Y-126315142D02*
X162839098Y-126372285D01*
X162839098Y-126372285D02*
X162781956Y-126429428D01*
X162781956Y-126429428D02*
X162724813Y-126543714D01*
X162724813Y-126543714D02*
X162724813Y-126886571D01*
X162724813Y-126886571D02*
X162781956Y-127000857D01*
X162781956Y-127000857D02*
X162839098Y-127058000D01*
X162839098Y-127058000D02*
X162953384Y-127115142D01*
X162953384Y-127115142D02*
X163124813Y-127115142D01*
X162210527Y-127115142D02*
X162210527Y-126315142D01*
X162210527Y-126429428D02*
X162153384Y-126372285D01*
X162153384Y-126372285D02*
X162039099Y-126315142D01*
X162039099Y-126315142D02*
X161867670Y-126315142D01*
X161867670Y-126315142D02*
X161753384Y-126372285D01*
X161753384Y-126372285D02*
X161696242Y-126486571D01*
X161696242Y-126486571D02*
X161696242Y-127115142D01*
X161696242Y-126486571D02*
X161639099Y-126372285D01*
X161639099Y-126372285D02*
X161524813Y-126315142D01*
X161524813Y-126315142D02*
X161353384Y-126315142D01*
X161353384Y-126315142D02*
X161239099Y-126372285D01*
X161239099Y-126372285D02*
X161181956Y-126486571D01*
X161181956Y-126486571D02*
X161181956Y-127115142D01*
X160096242Y-127115142D02*
X160096242Y-126486571D01*
X160096242Y-126486571D02*
X160153384Y-126372285D01*
X160153384Y-126372285D02*
X160267670Y-126315142D01*
X160267670Y-126315142D02*
X160496242Y-126315142D01*
X160496242Y-126315142D02*
X160610527Y-126372285D01*
X160096242Y-127058000D02*
X160210527Y-127115142D01*
X160210527Y-127115142D02*
X160496242Y-127115142D01*
X160496242Y-127115142D02*
X160610527Y-127058000D01*
X160610527Y-127058000D02*
X160667670Y-126943714D01*
X160667670Y-126943714D02*
X160667670Y-126829428D01*
X160667670Y-126829428D02*
X160610527Y-126715142D01*
X160610527Y-126715142D02*
X160496242Y-126658000D01*
X160496242Y-126658000D02*
X160210527Y-126658000D01*
X160210527Y-126658000D02*
X160096242Y-126600857D01*
X159524813Y-126315142D02*
X159524813Y-127115142D01*
X159524813Y-126429428D02*
X159467670Y-126372285D01*
X159467670Y-126372285D02*
X159353385Y-126315142D01*
X159353385Y-126315142D02*
X159181956Y-126315142D01*
X159181956Y-126315142D02*
X159067670Y-126372285D01*
X159067670Y-126372285D02*
X159010528Y-126486571D01*
X159010528Y-126486571D02*
X159010528Y-127115142D01*
X157581956Y-126029428D02*
X157524813Y-125972285D01*
X157524813Y-125972285D02*
X157410528Y-125915142D01*
X157410528Y-125915142D02*
X157124813Y-125915142D01*
X157124813Y-125915142D02*
X157010528Y-125972285D01*
X157010528Y-125972285D02*
X156953385Y-126029428D01*
X156953385Y-126029428D02*
X156896242Y-126143714D01*
X156896242Y-126143714D02*
X156896242Y-126258000D01*
X156896242Y-126258000D02*
X156953385Y-126429428D01*
X156953385Y-126429428D02*
X157639099Y-127115142D01*
X157639099Y-127115142D02*
X156896242Y-127115142D01*
X156153385Y-125915142D02*
X156039099Y-125915142D01*
X156039099Y-125915142D02*
X155924813Y-125972285D01*
X155924813Y-125972285D02*
X155867671Y-126029428D01*
X155867671Y-126029428D02*
X155810528Y-126143714D01*
X155810528Y-126143714D02*
X155753385Y-126372285D01*
X155753385Y-126372285D02*
X155753385Y-126658000D01*
X155753385Y-126658000D02*
X155810528Y-126886571D01*
X155810528Y-126886571D02*
X155867671Y-127000857D01*
X155867671Y-127000857D02*
X155924813Y-127058000D01*
X155924813Y-127058000D02*
X156039099Y-127115142D01*
X156039099Y-127115142D02*
X156153385Y-127115142D01*
X156153385Y-127115142D02*
X156267671Y-127058000D01*
X156267671Y-127058000D02*
X156324813Y-127000857D01*
X156324813Y-127000857D02*
X156381956Y-126886571D01*
X156381956Y-126886571D02*
X156439099Y-126658000D01*
X156439099Y-126658000D02*
X156439099Y-126372285D01*
X156439099Y-126372285D02*
X156381956Y-126143714D01*
X156381956Y-126143714D02*
X156324813Y-126029428D01*
X156324813Y-126029428D02*
X156267671Y-125972285D01*
X156267671Y-125972285D02*
X156153385Y-125915142D01*
X155296242Y-126029428D02*
X155239099Y-125972285D01*
X155239099Y-125972285D02*
X155124814Y-125915142D01*
X155124814Y-125915142D02*
X154839099Y-125915142D01*
X154839099Y-125915142D02*
X154724814Y-125972285D01*
X154724814Y-125972285D02*
X154667671Y-126029428D01*
X154667671Y-126029428D02*
X154610528Y-126143714D01*
X154610528Y-126143714D02*
X154610528Y-126258000D01*
X154610528Y-126258000D02*
X154667671Y-126429428D01*
X154667671Y-126429428D02*
X155353385Y-127115142D01*
X155353385Y-127115142D02*
X154610528Y-127115142D01*
X154210528Y-125915142D02*
X153467671Y-125915142D01*
X153467671Y-125915142D02*
X153867671Y-126372285D01*
X153867671Y-126372285D02*
X153696242Y-126372285D01*
X153696242Y-126372285D02*
X153581957Y-126429428D01*
X153581957Y-126429428D02*
X153524814Y-126486571D01*
X153524814Y-126486571D02*
X153467671Y-126600857D01*
X153467671Y-126600857D02*
X153467671Y-126886571D01*
X153467671Y-126886571D02*
X153524814Y-127000857D01*
X153524814Y-127000857D02*
X153581957Y-127058000D01*
X153581957Y-127058000D02*
X153696242Y-127115142D01*
X153696242Y-127115142D02*
X154039099Y-127115142D01*
X154039099Y-127115142D02*
X154153385Y-127058000D01*
X154153385Y-127058000D02*
X154210528Y-127000857D01*
X152096242Y-125858000D02*
X153124814Y-127400857D01*
X151067671Y-127115142D02*
X151753385Y-127115142D01*
X151410528Y-127115142D02*
X151410528Y-125915142D01*
X151410528Y-125915142D02*
X151524814Y-126086571D01*
X151524814Y-126086571D02*
X151639099Y-126200857D01*
X151639099Y-126200857D02*
X151753385Y-126258000D01*
X150610528Y-126029428D02*
X150553385Y-125972285D01*
X150553385Y-125972285D02*
X150439100Y-125915142D01*
X150439100Y-125915142D02*
X150153385Y-125915142D01*
X150153385Y-125915142D02*
X150039100Y-125972285D01*
X150039100Y-125972285D02*
X149981957Y-126029428D01*
X149981957Y-126029428D02*
X149924814Y-126143714D01*
X149924814Y-126143714D02*
X149924814Y-126258000D01*
X149924814Y-126258000D02*
X149981957Y-126429428D01*
X149981957Y-126429428D02*
X150667671Y-127115142D01*
X150667671Y-127115142D02*
X149924814Y-127115142D01*
X148610528Y-126315142D02*
X148324814Y-127115142D01*
X148324814Y-127115142D02*
X148039099Y-126315142D01*
X147639099Y-126029428D02*
X147581956Y-125972285D01*
X147581956Y-125972285D02*
X147467671Y-125915142D01*
X147467671Y-125915142D02*
X147181956Y-125915142D01*
X147181956Y-125915142D02*
X147067671Y-125972285D01*
X147067671Y-125972285D02*
X147010528Y-126029428D01*
X147010528Y-126029428D02*
X146953385Y-126143714D01*
X146953385Y-126143714D02*
X146953385Y-126258000D01*
X146953385Y-126258000D02*
X147010528Y-126429428D01*
X147010528Y-126429428D02*
X147696242Y-127115142D01*
X147696242Y-127115142D02*
X146953385Y-127115142D01*
X146439099Y-127000857D02*
X146381956Y-127058000D01*
X146381956Y-127058000D02*
X146439099Y-127115142D01*
X146439099Y-127115142D02*
X146496242Y-127058000D01*
X146496242Y-127058000D02*
X146439099Y-127000857D01*
X146439099Y-127000857D02*
X146439099Y-127115142D01*
X145239099Y-127115142D02*
X145924813Y-127115142D01*
X145581956Y-127115142D02*
X145581956Y-125915142D01*
X145581956Y-125915142D02*
X145696242Y-126086571D01*
X145696242Y-126086571D02*
X145810527Y-126200857D01*
X145810527Y-126200857D02*
X145924813Y-126258000D01*
D12*
X161195237Y-87504819D02*
X161195237Y-88314342D01*
X161195237Y-88314342D02*
X161147618Y-88409580D01*
X161147618Y-88409580D02*
X161099999Y-88457200D01*
X161099999Y-88457200D02*
X161004761Y-88504819D01*
X161004761Y-88504819D02*
X160814285Y-88504819D01*
X160814285Y-88504819D02*
X160719047Y-88457200D01*
X160719047Y-88457200D02*
X160671428Y-88409580D01*
X160671428Y-88409580D02*
X160623809Y-88314342D01*
X160623809Y-88314342D02*
X160623809Y-87504819D01*
X160147618Y-87838152D02*
X160147618Y-88504819D01*
X160147618Y-87933390D02*
X160099999Y-87885771D01*
X160099999Y-87885771D02*
X160004761Y-87838152D01*
X160004761Y-87838152D02*
X159861904Y-87838152D01*
X159861904Y-87838152D02*
X159766666Y-87885771D01*
X159766666Y-87885771D02*
X159719047Y-87981009D01*
X159719047Y-87981009D02*
X159719047Y-88504819D01*
X159242856Y-88504819D02*
X159242856Y-87838152D01*
X159242856Y-87504819D02*
X159290475Y-87552438D01*
X159290475Y-87552438D02*
X159242856Y-87600057D01*
X159242856Y-87600057D02*
X159195237Y-87552438D01*
X159195237Y-87552438D02*
X159242856Y-87504819D01*
X159242856Y-87504819D02*
X159242856Y-87600057D01*
X158909523Y-87838152D02*
X158528571Y-87838152D01*
X158766666Y-87504819D02*
X158766666Y-88361961D01*
X158766666Y-88361961D02*
X158719047Y-88457200D01*
X158719047Y-88457200D02*
X158623809Y-88504819D01*
X158623809Y-88504819D02*
X158528571Y-88504819D01*
X158242856Y-88457200D02*
X158147618Y-88504819D01*
X158147618Y-88504819D02*
X157957142Y-88504819D01*
X157957142Y-88504819D02*
X157861904Y-88457200D01*
X157861904Y-88457200D02*
X157814285Y-88361961D01*
X157814285Y-88361961D02*
X157814285Y-88314342D01*
X157814285Y-88314342D02*
X157861904Y-88219104D01*
X157861904Y-88219104D02*
X157957142Y-88171485D01*
X157957142Y-88171485D02*
X158099999Y-88171485D01*
X158099999Y-88171485D02*
X158195237Y-88123866D01*
X158195237Y-88123866D02*
X158242856Y-88028628D01*
X158242856Y-88028628D02*
X158242856Y-87981009D01*
X158242856Y-87981009D02*
X158195237Y-87885771D01*
X158195237Y-87885771D02*
X158099999Y-87838152D01*
X158099999Y-87838152D02*
X157957142Y-87838152D01*
X157957142Y-87838152D02*
X157861904Y-87885771D01*
X156480951Y-87933390D02*
X156576189Y-87885771D01*
X156576189Y-87885771D02*
X156623808Y-87838152D01*
X156623808Y-87838152D02*
X156671427Y-87742914D01*
X156671427Y-87742914D02*
X156671427Y-87695295D01*
X156671427Y-87695295D02*
X156623808Y-87600057D01*
X156623808Y-87600057D02*
X156576189Y-87552438D01*
X156576189Y-87552438D02*
X156480951Y-87504819D01*
X156480951Y-87504819D02*
X156290475Y-87504819D01*
X156290475Y-87504819D02*
X156195237Y-87552438D01*
X156195237Y-87552438D02*
X156147618Y-87600057D01*
X156147618Y-87600057D02*
X156099999Y-87695295D01*
X156099999Y-87695295D02*
X156099999Y-87742914D01*
X156099999Y-87742914D02*
X156147618Y-87838152D01*
X156147618Y-87838152D02*
X156195237Y-87885771D01*
X156195237Y-87885771D02*
X156290475Y-87933390D01*
X156290475Y-87933390D02*
X156480951Y-87933390D01*
X156480951Y-87933390D02*
X156576189Y-87981009D01*
X156576189Y-87981009D02*
X156623808Y-88028628D01*
X156623808Y-88028628D02*
X156671427Y-88123866D01*
X156671427Y-88123866D02*
X156671427Y-88314342D01*
X156671427Y-88314342D02*
X156623808Y-88409580D01*
X156623808Y-88409580D02*
X156576189Y-88457200D01*
X156576189Y-88457200D02*
X156480951Y-88504819D01*
X156480951Y-88504819D02*
X156290475Y-88504819D01*
X156290475Y-88504819D02*
X156195237Y-88457200D01*
X156195237Y-88457200D02*
X156147618Y-88409580D01*
X156147618Y-88409580D02*
X156099999Y-88314342D01*
X156099999Y-88314342D02*
X156099999Y-88123866D01*
X156099999Y-88123866D02*
X156147618Y-88028628D01*
X156147618Y-88028628D02*
X156195237Y-87981009D01*
X156195237Y-87981009D02*
X156290475Y-87933390D01*
X155671427Y-88123866D02*
X154909523Y-88123866D01*
X153909523Y-88504819D02*
X154480951Y-88504819D01*
X154195237Y-88504819D02*
X154195237Y-87504819D01*
X154195237Y-87504819D02*
X154290475Y-87647676D01*
X154290475Y-87647676D02*
X154385713Y-87742914D01*
X154385713Y-87742914D02*
X154480951Y-87790533D01*
X152957142Y-88504819D02*
X153528570Y-88504819D01*
X153242856Y-88504819D02*
X153242856Y-87504819D01*
X153242856Y-87504819D02*
X153338094Y-87647676D01*
X153338094Y-87647676D02*
X153433332Y-87742914D01*
X153433332Y-87742914D02*
X153528570Y-87790533D01*
X121144047Y-87504819D02*
X121144047Y-88314342D01*
X121144047Y-88314342D02*
X121096428Y-88409580D01*
X121096428Y-88409580D02*
X121048809Y-88457200D01*
X121048809Y-88457200D02*
X120953571Y-88504819D01*
X120953571Y-88504819D02*
X120763095Y-88504819D01*
X120763095Y-88504819D02*
X120667857Y-88457200D01*
X120667857Y-88457200D02*
X120620238Y-88409580D01*
X120620238Y-88409580D02*
X120572619Y-88314342D01*
X120572619Y-88314342D02*
X120572619Y-87504819D01*
X120096428Y-87838152D02*
X120096428Y-88504819D01*
X120096428Y-87933390D02*
X120048809Y-87885771D01*
X120048809Y-87885771D02*
X119953571Y-87838152D01*
X119953571Y-87838152D02*
X119810714Y-87838152D01*
X119810714Y-87838152D02*
X119715476Y-87885771D01*
X119715476Y-87885771D02*
X119667857Y-87981009D01*
X119667857Y-87981009D02*
X119667857Y-88504819D01*
X119191666Y-88504819D02*
X119191666Y-87838152D01*
X119191666Y-87504819D02*
X119239285Y-87552438D01*
X119239285Y-87552438D02*
X119191666Y-87600057D01*
X119191666Y-87600057D02*
X119144047Y-87552438D01*
X119144047Y-87552438D02*
X119191666Y-87504819D01*
X119191666Y-87504819D02*
X119191666Y-87600057D01*
X118858333Y-87838152D02*
X118477381Y-87838152D01*
X118715476Y-87504819D02*
X118715476Y-88361961D01*
X118715476Y-88361961D02*
X118667857Y-88457200D01*
X118667857Y-88457200D02*
X118572619Y-88504819D01*
X118572619Y-88504819D02*
X118477381Y-88504819D01*
X118191666Y-88457200D02*
X118096428Y-88504819D01*
X118096428Y-88504819D02*
X117905952Y-88504819D01*
X117905952Y-88504819D02*
X117810714Y-88457200D01*
X117810714Y-88457200D02*
X117763095Y-88361961D01*
X117763095Y-88361961D02*
X117763095Y-88314342D01*
X117763095Y-88314342D02*
X117810714Y-88219104D01*
X117810714Y-88219104D02*
X117905952Y-88171485D01*
X117905952Y-88171485D02*
X118048809Y-88171485D01*
X118048809Y-88171485D02*
X118144047Y-88123866D01*
X118144047Y-88123866D02*
X118191666Y-88028628D01*
X118191666Y-88028628D02*
X118191666Y-87981009D01*
X118191666Y-87981009D02*
X118144047Y-87885771D01*
X118144047Y-87885771D02*
X118048809Y-87838152D01*
X118048809Y-87838152D02*
X117905952Y-87838152D01*
X117905952Y-87838152D02*
X117810714Y-87885771D01*
X116144047Y-87838152D02*
X116144047Y-88504819D01*
X116382142Y-87457200D02*
X116620237Y-88171485D01*
X116620237Y-88171485D02*
X116001190Y-88171485D01*
X115620237Y-88123866D02*
X114858333Y-88123866D01*
X114477380Y-87504819D02*
X113810714Y-87504819D01*
X113810714Y-87504819D02*
X114239285Y-88504819D01*
X116893570Y-62323866D02*
X116131666Y-62323866D01*
X116512618Y-62704819D02*
X116512618Y-61942914D01*
X115607856Y-62704819D02*
X115417380Y-62704819D01*
X115417380Y-62704819D02*
X115322142Y-62657200D01*
X115322142Y-62657200D02*
X115274523Y-62609580D01*
X115274523Y-62609580D02*
X115179285Y-62466723D01*
X115179285Y-62466723D02*
X115131666Y-62276247D01*
X115131666Y-62276247D02*
X115131666Y-61895295D01*
X115131666Y-61895295D02*
X115179285Y-61800057D01*
X115179285Y-61800057D02*
X115226904Y-61752438D01*
X115226904Y-61752438D02*
X115322142Y-61704819D01*
X115322142Y-61704819D02*
X115512618Y-61704819D01*
X115512618Y-61704819D02*
X115607856Y-61752438D01*
X115607856Y-61752438D02*
X115655475Y-61800057D01*
X115655475Y-61800057D02*
X115703094Y-61895295D01*
X115703094Y-61895295D02*
X115703094Y-62133390D01*
X115703094Y-62133390D02*
X115655475Y-62228628D01*
X115655475Y-62228628D02*
X115607856Y-62276247D01*
X115607856Y-62276247D02*
X115512618Y-62323866D01*
X115512618Y-62323866D02*
X115322142Y-62323866D01*
X115322142Y-62323866D02*
X115226904Y-62276247D01*
X115226904Y-62276247D02*
X115179285Y-62228628D01*
X115179285Y-62228628D02*
X115131666Y-62133390D01*
X114845951Y-61704819D02*
X114512618Y-62704819D01*
X114512618Y-62704819D02*
X114179285Y-61704819D01*
X113084046Y-62704819D02*
X113084046Y-61704819D01*
X112607856Y-62704819D02*
X112607856Y-61704819D01*
X112607856Y-61704819D02*
X112036428Y-62704819D01*
X112036428Y-62704819D02*
X112036428Y-61704819D01*
D11*
X169113383Y-124807000D02*
X168899098Y-124878428D01*
X168899098Y-124878428D02*
X168541955Y-124878428D01*
X168541955Y-124878428D02*
X168399098Y-124807000D01*
X168399098Y-124807000D02*
X168327669Y-124735571D01*
X168327669Y-124735571D02*
X168256240Y-124592714D01*
X168256240Y-124592714D02*
X168256240Y-124449857D01*
X168256240Y-124449857D02*
X168327669Y-124307000D01*
X168327669Y-124307000D02*
X168399098Y-124235571D01*
X168399098Y-124235571D02*
X168541955Y-124164142D01*
X168541955Y-124164142D02*
X168827669Y-124092714D01*
X168827669Y-124092714D02*
X168970526Y-124021285D01*
X168970526Y-124021285D02*
X169041955Y-123949857D01*
X169041955Y-123949857D02*
X169113383Y-123807000D01*
X169113383Y-123807000D02*
X169113383Y-123664142D01*
X169113383Y-123664142D02*
X169041955Y-123521285D01*
X169041955Y-123521285D02*
X168970526Y-123449857D01*
X168970526Y-123449857D02*
X168827669Y-123378428D01*
X168827669Y-123378428D02*
X168470526Y-123378428D01*
X168470526Y-123378428D02*
X168256240Y-123449857D01*
X167613384Y-123878428D02*
X167613384Y-125378428D01*
X167613384Y-123949857D02*
X167470527Y-123878428D01*
X167470527Y-123878428D02*
X167184812Y-123878428D01*
X167184812Y-123878428D02*
X167041955Y-123949857D01*
X167041955Y-123949857D02*
X166970527Y-124021285D01*
X166970527Y-124021285D02*
X166899098Y-124164142D01*
X166899098Y-124164142D02*
X166899098Y-124592714D01*
X166899098Y-124592714D02*
X166970527Y-124735571D01*
X166970527Y-124735571D02*
X167041955Y-124807000D01*
X167041955Y-124807000D02*
X167184812Y-124878428D01*
X167184812Y-124878428D02*
X167470527Y-124878428D01*
X167470527Y-124878428D02*
X167613384Y-124807000D01*
X166041955Y-124878428D02*
X166184812Y-124807000D01*
X166184812Y-124807000D02*
X166256241Y-124664142D01*
X166256241Y-124664142D02*
X166256241Y-123378428D01*
X165470527Y-124878428D02*
X165470527Y-123878428D01*
X165470527Y-123378428D02*
X165541955Y-123449857D01*
X165541955Y-123449857D02*
X165470527Y-123521285D01*
X165470527Y-123521285D02*
X165399098Y-123449857D01*
X165399098Y-123449857D02*
X165470527Y-123378428D01*
X165470527Y-123378428D02*
X165470527Y-123521285D01*
X164970526Y-123878428D02*
X164399098Y-123878428D01*
X164756241Y-123378428D02*
X164756241Y-124664142D01*
X164756241Y-124664142D02*
X164684812Y-124807000D01*
X164684812Y-124807000D02*
X164541955Y-124878428D01*
X164541955Y-124878428D02*
X164399098Y-124878428D01*
X163899098Y-124307000D02*
X162756241Y-124307000D01*
X161541955Y-124092714D02*
X162041955Y-124092714D01*
X162041955Y-124878428D02*
X162041955Y-123378428D01*
X162041955Y-123378428D02*
X161327669Y-123378428D01*
X160541955Y-124878428D02*
X160684812Y-124807000D01*
X160684812Y-124807000D02*
X160756241Y-124664142D01*
X160756241Y-124664142D02*
X160756241Y-123378428D01*
X159327670Y-124878428D02*
X159327670Y-124092714D01*
X159327670Y-124092714D02*
X159399098Y-123949857D01*
X159399098Y-123949857D02*
X159541955Y-123878428D01*
X159541955Y-123878428D02*
X159827670Y-123878428D01*
X159827670Y-123878428D02*
X159970527Y-123949857D01*
X159327670Y-124807000D02*
X159470527Y-124878428D01*
X159470527Y-124878428D02*
X159827670Y-124878428D01*
X159827670Y-124878428D02*
X159970527Y-124807000D01*
X159970527Y-124807000D02*
X160041955Y-124664142D01*
X160041955Y-124664142D02*
X160041955Y-124521285D01*
X160041955Y-124521285D02*
X159970527Y-124378428D01*
X159970527Y-124378428D02*
X159827670Y-124307000D01*
X159827670Y-124307000D02*
X159470527Y-124307000D01*
X159470527Y-124307000D02*
X159327670Y-124235571D01*
X158613384Y-123878428D02*
X158613384Y-125378428D01*
X158613384Y-123949857D02*
X158470527Y-123878428D01*
X158470527Y-123878428D02*
X158184812Y-123878428D01*
X158184812Y-123878428D02*
X158041955Y-123949857D01*
X158041955Y-123949857D02*
X157970527Y-124021285D01*
X157970527Y-124021285D02*
X157899098Y-124164142D01*
X157899098Y-124164142D02*
X157899098Y-124592714D01*
X157899098Y-124592714D02*
X157970527Y-124735571D01*
X157970527Y-124735571D02*
X158041955Y-124807000D01*
X158041955Y-124807000D02*
X158184812Y-124878428D01*
X158184812Y-124878428D02*
X158470527Y-124878428D01*
X158470527Y-124878428D02*
X158613384Y-124807000D01*
X155256241Y-124735571D02*
X155327669Y-124807000D01*
X155327669Y-124807000D02*
X155541955Y-124878428D01*
X155541955Y-124878428D02*
X155684812Y-124878428D01*
X155684812Y-124878428D02*
X155899098Y-124807000D01*
X155899098Y-124807000D02*
X156041955Y-124664142D01*
X156041955Y-124664142D02*
X156113384Y-124521285D01*
X156113384Y-124521285D02*
X156184812Y-124235571D01*
X156184812Y-124235571D02*
X156184812Y-124021285D01*
X156184812Y-124021285D02*
X156113384Y-123735571D01*
X156113384Y-123735571D02*
X156041955Y-123592714D01*
X156041955Y-123592714D02*
X155899098Y-123449857D01*
X155899098Y-123449857D02*
X155684812Y-123378428D01*
X155684812Y-123378428D02*
X155541955Y-123378428D01*
X155541955Y-123378428D02*
X155327669Y-123449857D01*
X155327669Y-123449857D02*
X155256241Y-123521285D01*
X154399098Y-124878428D02*
X154541955Y-124807000D01*
X154541955Y-124807000D02*
X154613384Y-124735571D01*
X154613384Y-124735571D02*
X154684812Y-124592714D01*
X154684812Y-124592714D02*
X154684812Y-124164142D01*
X154684812Y-124164142D02*
X154613384Y-124021285D01*
X154613384Y-124021285D02*
X154541955Y-123949857D01*
X154541955Y-123949857D02*
X154399098Y-123878428D01*
X154399098Y-123878428D02*
X154184812Y-123878428D01*
X154184812Y-123878428D02*
X154041955Y-123949857D01*
X154041955Y-123949857D02*
X153970527Y-124021285D01*
X153970527Y-124021285D02*
X153899098Y-124164142D01*
X153899098Y-124164142D02*
X153899098Y-124592714D01*
X153899098Y-124592714D02*
X153970527Y-124735571D01*
X153970527Y-124735571D02*
X154041955Y-124807000D01*
X154041955Y-124807000D02*
X154184812Y-124878428D01*
X154184812Y-124878428D02*
X154399098Y-124878428D01*
X153256241Y-123878428D02*
X153256241Y-124878428D01*
X153256241Y-124021285D02*
X153184812Y-123949857D01*
X153184812Y-123949857D02*
X153041955Y-123878428D01*
X153041955Y-123878428D02*
X152827669Y-123878428D01*
X152827669Y-123878428D02*
X152684812Y-123949857D01*
X152684812Y-123949857D02*
X152613384Y-124092714D01*
X152613384Y-124092714D02*
X152613384Y-124878428D01*
X152113383Y-123878428D02*
X151541955Y-123878428D01*
X151899098Y-123378428D02*
X151899098Y-124664142D01*
X151899098Y-124664142D02*
X151827669Y-124807000D01*
X151827669Y-124807000D02*
X151684812Y-124878428D01*
X151684812Y-124878428D02*
X151541955Y-124878428D01*
X151041955Y-124878428D02*
X151041955Y-123878428D01*
X151041955Y-124164142D02*
X150970526Y-124021285D01*
X150970526Y-124021285D02*
X150899098Y-123949857D01*
X150899098Y-123949857D02*
X150756240Y-123878428D01*
X150756240Y-123878428D02*
X150613383Y-123878428D01*
X149899098Y-124878428D02*
X150041955Y-124807000D01*
X150041955Y-124807000D02*
X150113384Y-124735571D01*
X150113384Y-124735571D02*
X150184812Y-124592714D01*
X150184812Y-124592714D02*
X150184812Y-124164142D01*
X150184812Y-124164142D02*
X150113384Y-124021285D01*
X150113384Y-124021285D02*
X150041955Y-123949857D01*
X150041955Y-123949857D02*
X149899098Y-123878428D01*
X149899098Y-123878428D02*
X149684812Y-123878428D01*
X149684812Y-123878428D02*
X149541955Y-123949857D01*
X149541955Y-123949857D02*
X149470527Y-124021285D01*
X149470527Y-124021285D02*
X149399098Y-124164142D01*
X149399098Y-124164142D02*
X149399098Y-124592714D01*
X149399098Y-124592714D02*
X149470527Y-124735571D01*
X149470527Y-124735571D02*
X149541955Y-124807000D01*
X149541955Y-124807000D02*
X149684812Y-124878428D01*
X149684812Y-124878428D02*
X149899098Y-124878428D01*
X148541955Y-124878428D02*
X148684812Y-124807000D01*
X148684812Y-124807000D02*
X148756241Y-124664142D01*
X148756241Y-124664142D02*
X148756241Y-123378428D01*
X147756241Y-124878428D02*
X147899098Y-124807000D01*
X147899098Y-124807000D02*
X147970527Y-124664142D01*
X147970527Y-124664142D02*
X147970527Y-123378428D01*
X146613384Y-124807000D02*
X146756241Y-124878428D01*
X146756241Y-124878428D02*
X147041956Y-124878428D01*
X147041956Y-124878428D02*
X147184813Y-124807000D01*
X147184813Y-124807000D02*
X147256241Y-124664142D01*
X147256241Y-124664142D02*
X147256241Y-124092714D01*
X147256241Y-124092714D02*
X147184813Y-123949857D01*
X147184813Y-123949857D02*
X147041956Y-123878428D01*
X147041956Y-123878428D02*
X146756241Y-123878428D01*
X146756241Y-123878428D02*
X146613384Y-123949857D01*
X146613384Y-123949857D02*
X146541956Y-124092714D01*
X146541956Y-124092714D02*
X146541956Y-124235571D01*
X146541956Y-124235571D02*
X147256241Y-124378428D01*
X145899099Y-124878428D02*
X145899099Y-123878428D01*
X145899099Y-124164142D02*
X145827670Y-124021285D01*
X145827670Y-124021285D02*
X145756242Y-123949857D01*
X145756242Y-123949857D02*
X145613384Y-123878428D01*
X145613384Y-123878428D02*
X145470527Y-123878428D01*
D10*
X110731917Y-64705400D02*
X109817632Y-64705400D01*
X110274774Y-65162542D02*
X110274774Y-64248257D01*
D12*
X192486904Y-61694819D02*
X191915476Y-61694819D01*
X192201190Y-62694819D02*
X192201190Y-61694819D01*
X191582142Y-62694819D02*
X191582142Y-61694819D01*
X191582142Y-61694819D02*
X191201190Y-61694819D01*
X191201190Y-61694819D02*
X191105952Y-61742438D01*
X191105952Y-61742438D02*
X191058333Y-61790057D01*
X191058333Y-61790057D02*
X191010714Y-61885295D01*
X191010714Y-61885295D02*
X191010714Y-62028152D01*
X191010714Y-62028152D02*
X191058333Y-62123390D01*
X191058333Y-62123390D02*
X191105952Y-62171009D01*
X191105952Y-62171009D02*
X191201190Y-62218628D01*
X191201190Y-62218628D02*
X191582142Y-62218628D01*
X190629761Y-61790057D02*
X190582142Y-61742438D01*
X190582142Y-61742438D02*
X190486904Y-61694819D01*
X190486904Y-61694819D02*
X190248809Y-61694819D01*
X190248809Y-61694819D02*
X190153571Y-61742438D01*
X190153571Y-61742438D02*
X190105952Y-61790057D01*
X190105952Y-61790057D02*
X190058333Y-61885295D01*
X190058333Y-61885295D02*
X190058333Y-61980533D01*
X190058333Y-61980533D02*
X190105952Y-62123390D01*
X190105952Y-62123390D02*
X190677380Y-62694819D01*
X190677380Y-62694819D02*
X190058333Y-62694819D01*
X192026904Y-51567438D02*
X192122142Y-51519819D01*
X192122142Y-51519819D02*
X192264999Y-51519819D01*
X192264999Y-51519819D02*
X192407856Y-51567438D01*
X192407856Y-51567438D02*
X192503094Y-51662676D01*
X192503094Y-51662676D02*
X192550713Y-51757914D01*
X192550713Y-51757914D02*
X192598332Y-51948390D01*
X192598332Y-51948390D02*
X192598332Y-52091247D01*
X192598332Y-52091247D02*
X192550713Y-52281723D01*
X192550713Y-52281723D02*
X192503094Y-52376961D01*
X192503094Y-52376961D02*
X192407856Y-52472200D01*
X192407856Y-52472200D02*
X192264999Y-52519819D01*
X192264999Y-52519819D02*
X192169761Y-52519819D01*
X192169761Y-52519819D02*
X192026904Y-52472200D01*
X192026904Y-52472200D02*
X191979285Y-52424580D01*
X191979285Y-52424580D02*
X191979285Y-52091247D01*
X191979285Y-52091247D02*
X192169761Y-52091247D01*
X191550713Y-52519819D02*
X191550713Y-51519819D01*
X191550713Y-51519819D02*
X190979285Y-52519819D01*
X190979285Y-52519819D02*
X190979285Y-51519819D01*
X190503094Y-52519819D02*
X190503094Y-51519819D01*
X190503094Y-51519819D02*
X190264999Y-51519819D01*
X190264999Y-51519819D02*
X190122142Y-51567438D01*
X190122142Y-51567438D02*
X190026904Y-51662676D01*
X190026904Y-51662676D02*
X189979285Y-51757914D01*
X189979285Y-51757914D02*
X189931666Y-51948390D01*
X189931666Y-51948390D02*
X189931666Y-52091247D01*
X189931666Y-52091247D02*
X189979285Y-52281723D01*
X189979285Y-52281723D02*
X190026904Y-52376961D01*
X190026904Y-52376961D02*
X190122142Y-52472200D01*
X190122142Y-52472200D02*
X190264999Y-52519819D01*
X190264999Y-52519819D02*
X190503094Y-52519819D01*
X200594047Y-87504819D02*
X200594047Y-88314342D01*
X200594047Y-88314342D02*
X200546428Y-88409580D01*
X200546428Y-88409580D02*
X200498809Y-88457200D01*
X200498809Y-88457200D02*
X200403571Y-88504819D01*
X200403571Y-88504819D02*
X200213095Y-88504819D01*
X200213095Y-88504819D02*
X200117857Y-88457200D01*
X200117857Y-88457200D02*
X200070238Y-88409580D01*
X200070238Y-88409580D02*
X200022619Y-88314342D01*
X200022619Y-88314342D02*
X200022619Y-87504819D01*
X199546428Y-87838152D02*
X199546428Y-88504819D01*
X199546428Y-87933390D02*
X199498809Y-87885771D01*
X199498809Y-87885771D02*
X199403571Y-87838152D01*
X199403571Y-87838152D02*
X199260714Y-87838152D01*
X199260714Y-87838152D02*
X199165476Y-87885771D01*
X199165476Y-87885771D02*
X199117857Y-87981009D01*
X199117857Y-87981009D02*
X199117857Y-88504819D01*
X198641666Y-88504819D02*
X198641666Y-87838152D01*
X198641666Y-87504819D02*
X198689285Y-87552438D01*
X198689285Y-87552438D02*
X198641666Y-87600057D01*
X198641666Y-87600057D02*
X198594047Y-87552438D01*
X198594047Y-87552438D02*
X198641666Y-87504819D01*
X198641666Y-87504819D02*
X198641666Y-87600057D01*
X198308333Y-87838152D02*
X197927381Y-87838152D01*
X198165476Y-87504819D02*
X198165476Y-88361961D01*
X198165476Y-88361961D02*
X198117857Y-88457200D01*
X198117857Y-88457200D02*
X198022619Y-88504819D01*
X198022619Y-88504819D02*
X197927381Y-88504819D01*
X197641666Y-88457200D02*
X197546428Y-88504819D01*
X197546428Y-88504819D02*
X197355952Y-88504819D01*
X197355952Y-88504819D02*
X197260714Y-88457200D01*
X197260714Y-88457200D02*
X197213095Y-88361961D01*
X197213095Y-88361961D02*
X197213095Y-88314342D01*
X197213095Y-88314342D02*
X197260714Y-88219104D01*
X197260714Y-88219104D02*
X197355952Y-88171485D01*
X197355952Y-88171485D02*
X197498809Y-88171485D01*
X197498809Y-88171485D02*
X197594047Y-88123866D01*
X197594047Y-88123866D02*
X197641666Y-88028628D01*
X197641666Y-88028628D02*
X197641666Y-87981009D01*
X197641666Y-87981009D02*
X197594047Y-87885771D01*
X197594047Y-87885771D02*
X197498809Y-87838152D01*
X197498809Y-87838152D02*
X197355952Y-87838152D01*
X197355952Y-87838152D02*
X197260714Y-87885771D01*
X195832142Y-87504819D02*
X195736904Y-87504819D01*
X195736904Y-87504819D02*
X195641666Y-87552438D01*
X195641666Y-87552438D02*
X195594047Y-87600057D01*
X195594047Y-87600057D02*
X195546428Y-87695295D01*
X195546428Y-87695295D02*
X195498809Y-87885771D01*
X195498809Y-87885771D02*
X195498809Y-88123866D01*
X195498809Y-88123866D02*
X195546428Y-88314342D01*
X195546428Y-88314342D02*
X195594047Y-88409580D01*
X195594047Y-88409580D02*
X195641666Y-88457200D01*
X195641666Y-88457200D02*
X195736904Y-88504819D01*
X195736904Y-88504819D02*
X195832142Y-88504819D01*
X195832142Y-88504819D02*
X195927380Y-88457200D01*
X195927380Y-88457200D02*
X195974999Y-88409580D01*
X195974999Y-88409580D02*
X196022618Y-88314342D01*
X196022618Y-88314342D02*
X196070237Y-88123866D01*
X196070237Y-88123866D02*
X196070237Y-87885771D01*
X196070237Y-87885771D02*
X196022618Y-87695295D01*
X196022618Y-87695295D02*
X195974999Y-87600057D01*
X195974999Y-87600057D02*
X195927380Y-87552438D01*
X195927380Y-87552438D02*
X195832142Y-87504819D01*
X195070237Y-88123866D02*
X194308333Y-88123866D01*
X193927380Y-87504819D02*
X193308333Y-87504819D01*
X193308333Y-87504819D02*
X193641666Y-87885771D01*
X193641666Y-87885771D02*
X193498809Y-87885771D01*
X193498809Y-87885771D02*
X193403571Y-87933390D01*
X193403571Y-87933390D02*
X193355952Y-87981009D01*
X193355952Y-87981009D02*
X193308333Y-88076247D01*
X193308333Y-88076247D02*
X193308333Y-88314342D01*
X193308333Y-88314342D02*
X193355952Y-88409580D01*
X193355952Y-88409580D02*
X193403571Y-88457200D01*
X193403571Y-88457200D02*
X193498809Y-88504819D01*
X193498809Y-88504819D02*
X193784523Y-88504819D01*
X193784523Y-88504819D02*
X193879761Y-88457200D01*
X193879761Y-88457200D02*
X193927380Y-88409580D01*
X192486904Y-56614819D02*
X191915476Y-56614819D01*
X192201190Y-57614819D02*
X192201190Y-56614819D01*
X191582142Y-57614819D02*
X191582142Y-56614819D01*
X191582142Y-56614819D02*
X191201190Y-56614819D01*
X191201190Y-56614819D02*
X191105952Y-56662438D01*
X191105952Y-56662438D02*
X191058333Y-56710057D01*
X191058333Y-56710057D02*
X191010714Y-56805295D01*
X191010714Y-56805295D02*
X191010714Y-56948152D01*
X191010714Y-56948152D02*
X191058333Y-57043390D01*
X191058333Y-57043390D02*
X191105952Y-57091009D01*
X191105952Y-57091009D02*
X191201190Y-57138628D01*
X191201190Y-57138628D02*
X191582142Y-57138628D01*
X190058333Y-57614819D02*
X190629761Y-57614819D01*
X190344047Y-57614819D02*
X190344047Y-56614819D01*
X190344047Y-56614819D02*
X190439285Y-56757676D01*
X190439285Y-56757676D02*
X190534523Y-56852914D01*
X190534523Y-56852914D02*
X190629761Y-56900533D01*
X192486904Y-66774819D02*
X191915476Y-66774819D01*
X192201190Y-67774819D02*
X192201190Y-66774819D01*
X191582142Y-67774819D02*
X191582142Y-66774819D01*
X191582142Y-66774819D02*
X191201190Y-66774819D01*
X191201190Y-66774819D02*
X191105952Y-66822438D01*
X191105952Y-66822438D02*
X191058333Y-66870057D01*
X191058333Y-66870057D02*
X191010714Y-66965295D01*
X191010714Y-66965295D02*
X191010714Y-67108152D01*
X191010714Y-67108152D02*
X191058333Y-67203390D01*
X191058333Y-67203390D02*
X191105952Y-67251009D01*
X191105952Y-67251009D02*
X191201190Y-67298628D01*
X191201190Y-67298628D02*
X191582142Y-67298628D01*
X190677380Y-66774819D02*
X190058333Y-66774819D01*
X190058333Y-66774819D02*
X190391666Y-67155771D01*
X190391666Y-67155771D02*
X190248809Y-67155771D01*
X190248809Y-67155771D02*
X190153571Y-67203390D01*
X190153571Y-67203390D02*
X190105952Y-67251009D01*
X190105952Y-67251009D02*
X190058333Y-67346247D01*
X190058333Y-67346247D02*
X190058333Y-67584342D01*
X190058333Y-67584342D02*
X190105952Y-67679580D01*
X190105952Y-67679580D02*
X190153571Y-67727200D01*
X190153571Y-67727200D02*
X190248809Y-67774819D01*
X190248809Y-67774819D02*
X190534523Y-67774819D01*
X190534523Y-67774819D02*
X190629761Y-67727200D01*
X190629761Y-67727200D02*
X190677380Y-67679580D01*
%LPC*%
D13*
%TO.C,C5*%
X132080000Y-106720000D03*
X132080000Y-109220000D03*
%TD*%
%TO.C,R2*%
X126705000Y-48260000D03*
D14*
X134325000Y-48260000D03*
%TD*%
D15*
%TO.C,J4*%
X114295000Y-58765000D03*
D16*
X114295000Y-56225000D03*
%TD*%
D15*
%TO.C,J2*%
X114295000Y-43180000D03*
D16*
X114295000Y-45720000D03*
X114295000Y-48260000D03*
X114295000Y-50800000D03*
%TD*%
D13*
%TO.C,C4*%
X172720000Y-106680000D03*
X172720000Y-109180000D03*
%TD*%
D17*
%TO.C,REF1*%
X114915000Y-35500000D03*
%TD*%
D18*
%TO.C,J5*%
X196580000Y-90790000D03*
D19*
X199120000Y-90790000D03*
X196580000Y-93330000D03*
X199120000Y-93330000D03*
X196580000Y-95870000D03*
X199120000Y-95870000D03*
X196580000Y-98410000D03*
X199120000Y-98410000D03*
X196580000Y-100950000D03*
X199120000Y-100950000D03*
X196580000Y-103490000D03*
X199120000Y-103490000D03*
X196580000Y-106030000D03*
X199120000Y-106030000D03*
X196580000Y-108570000D03*
X199120000Y-108570000D03*
X196580000Y-111110000D03*
X199120000Y-111110000D03*
X196580000Y-113650000D03*
X199120000Y-113650000D03*
%TD*%
D17*
%TO.C,REF3*%
X114915000Y-124500000D03*
%TD*%
D20*
%TO.C,J1*%
X114295000Y-64560000D03*
D21*
X114295000Y-67100000D03*
X114295000Y-69640000D03*
%TD*%
D22*
%TO.C,U2*%
X156675000Y-32321600D03*
D23*
X156675000Y-34861600D03*
X156675000Y-37401600D03*
X156675000Y-39941600D03*
X156675000Y-42481600D03*
X156675000Y-45021600D03*
X156675000Y-47561600D03*
X156675000Y-50101600D03*
X156675000Y-52641600D03*
X156675000Y-55181600D03*
X156675000Y-57721600D03*
X156675000Y-60261600D03*
X156675000Y-62801600D03*
X156675000Y-65341600D03*
X156675000Y-67881600D03*
X156675000Y-70421600D03*
X156675000Y-72961600D03*
X156675000Y-75501600D03*
X156675000Y-78041600D03*
X182071320Y-78038880D03*
X182071320Y-75498880D03*
X182075000Y-72961600D03*
X182075000Y-70421600D03*
X182075000Y-67881600D03*
X182075000Y-65341600D03*
X182075000Y-62801600D03*
X182075000Y-60261600D03*
X182075000Y-57721600D03*
X182075000Y-55181600D03*
X182075000Y-52641600D03*
X182075000Y-50101600D03*
X182075000Y-47561600D03*
X182075000Y-45021600D03*
X182075000Y-42481600D03*
X182075000Y-39941600D03*
X182075000Y-37401600D03*
X182075000Y-34861600D03*
X182075000Y-32321600D03*
%TD*%
D24*
%TO.C,U3*%
X134620000Y-86360000D03*
D13*
X134620000Y-88900000D03*
X134620000Y-91440000D03*
X134620000Y-93980000D03*
X134620000Y-96520000D03*
X134620000Y-99060000D03*
X134620000Y-101600000D03*
X134620000Y-104140000D03*
X134620000Y-106680000D03*
X134620000Y-109220000D03*
X134620000Y-111760000D03*
X134620000Y-114300000D03*
X134620000Y-116840000D03*
X134620000Y-119380000D03*
X142240000Y-119380000D03*
X142240000Y-116840000D03*
X142240000Y-114300000D03*
X142240000Y-111760000D03*
X142240000Y-109220000D03*
X142240000Y-106680000D03*
X142240000Y-104140000D03*
X142240000Y-101600000D03*
X142240000Y-99060000D03*
X142240000Y-96520000D03*
X142240000Y-93980000D03*
X142240000Y-91440000D03*
X142240000Y-88900000D03*
X142240000Y-86360000D03*
%TD*%
D25*
%TO.C,TP3*%
X188385000Y-68580000D03*
%TD*%
D13*
%TO.C,R1*%
X126705000Y-43180000D03*
D14*
X134325000Y-43180000D03*
%TD*%
D13*
%TO.C,C1*%
X127000000Y-66080000D03*
X127000000Y-68580000D03*
%TD*%
%TO.C,R3*%
X193610000Y-47350000D03*
D14*
X185990000Y-47350000D03*
%TD*%
D17*
%TO.C,REF4*%
X199905000Y-124500000D03*
%TD*%
D25*
%TO.C,TP1*%
X188385000Y-58420000D03*
%TD*%
D24*
%TO.C,U4*%
X175260000Y-86360000D03*
D13*
X175260000Y-88900000D03*
X175260000Y-91440000D03*
X175260000Y-93980000D03*
X175260000Y-96520000D03*
X175260000Y-99060000D03*
X175260000Y-101600000D03*
X175260000Y-104140000D03*
X175260000Y-106680000D03*
X175260000Y-109220000D03*
X175260000Y-111760000D03*
X175260000Y-114300000D03*
X175260000Y-116840000D03*
X175260000Y-119380000D03*
X182880000Y-119380000D03*
X182880000Y-116840000D03*
X182880000Y-114300000D03*
X182880000Y-111760000D03*
X182880000Y-109220000D03*
X182880000Y-106680000D03*
X182880000Y-104140000D03*
X182880000Y-101600000D03*
X182880000Y-99060000D03*
X182880000Y-96520000D03*
X182880000Y-93980000D03*
X182880000Y-91440000D03*
X182880000Y-88900000D03*
X182880000Y-86360000D03*
%TD*%
%TO.C,R4*%
X193610000Y-42230000D03*
D14*
X185990000Y-42230000D03*
%TD*%
D18*
%TO.C,J6*%
X116235000Y-90790000D03*
D19*
X118775000Y-90790000D03*
X116235000Y-93330000D03*
X118775000Y-93330000D03*
X116235000Y-95870000D03*
X118775000Y-95870000D03*
X116235000Y-98410000D03*
X118775000Y-98410000D03*
X116235000Y-100950000D03*
X118775000Y-100950000D03*
X116235000Y-103490000D03*
X118775000Y-103490000D03*
X116235000Y-106030000D03*
X118775000Y-106030000D03*
X116235000Y-108570000D03*
X118775000Y-108570000D03*
X116235000Y-111110000D03*
X118775000Y-111110000D03*
X116235000Y-113650000D03*
X118775000Y-113650000D03*
%TD*%
D17*
%TO.C,REF2*%
X199915000Y-35500000D03*
%TD*%
D15*
%TO.C,J3*%
X114295000Y-78740000D03*
D16*
X114295000Y-76200000D03*
%TD*%
D25*
%TO.C,TP4*%
X188385000Y-53340000D03*
%TD*%
%TO.C,TP2*%
X188385000Y-63500000D03*
%TD*%
D13*
%TO.C,C3*%
X149297700Y-37300000D03*
X149297700Y-39800000D03*
%TD*%
D18*
%TO.C,J7*%
X156907500Y-90790000D03*
D19*
X159447500Y-90790000D03*
X156907500Y-93330000D03*
X159447500Y-93330000D03*
X156907500Y-95870000D03*
X159447500Y-95870000D03*
X156907500Y-98410000D03*
X159447500Y-98410000D03*
X156907500Y-100950000D03*
X159447500Y-100950000D03*
X156907500Y-103490000D03*
X159447500Y-103490000D03*
X156907500Y-106030000D03*
X159447500Y-106030000D03*
X156907500Y-108570000D03*
X159447500Y-108570000D03*
X156907500Y-111110000D03*
X159447500Y-111110000D03*
X156907500Y-113650000D03*
X159447500Y-113650000D03*
%TD*%
D26*
%TO.C,U1*%
X137160000Y-71120000D03*
D27*
X137160000Y-68580000D03*
X137160000Y-66040000D03*
%TD*%
D24*
%TO.C,C2*%
X144780000Y-68327000D03*
D13*
X144780000Y-70327000D03*
%TD*%
%LPD*%
M02*
