M48
INCH
T1C0.0157
T2C0.0315
T3C0.0394
T4C0.0402
T5C0.0433
T6C0.1260
%
G90
G05
T1
X4.5971Y-3.1055
X4.744Y-3.193
X4.7743Y-4.2756
X4.9031Y-2.1398
X5.0065Y-3.7596
X5.1371Y-3.4992
X5.5043Y-3.0325
X5.5233Y-3.7172
X5.696Y-4.046
X5.7228Y-4.095
X5.7873Y-3.8553
X5.8253Y-4.0357
X5.8934Y-3.0234
X5.9103Y-3.6488
X5.9629Y-3.5108
X6.0568Y-3.0798
X6.0844Y-3.4464
X6.0915Y-4.2729
X6.0941Y-3.7142
X6.3773Y-4.2843
X6.4482Y-4.2969
X6.4609Y-3.3286
X6.5409Y-2.5936
X6.576Y-2.539
X6.5984Y-2.6143
X6.6116Y-4.2963
X6.6328Y-2.5766
X6.6349Y-2.8772
X6.8726Y-3.2246
X7.1374Y-3.8047
T2
X4.9884Y-1.7
X4.9884Y-1.9
X5.0Y-2.6016
X5.0Y-2.7
X5.2Y-4.2016
X5.2Y-4.3
X5.2884Y-1.7
X5.2884Y-1.9
X5.7Y-2.69
X5.7Y-2.7688
X5.8779Y-1.4685
X5.8779Y-1.5669
X6.1683Y-1.2725
X6.1683Y-1.3725
X6.1683Y-1.4725
X6.1683Y-1.5725
X6.1683Y-1.6725
X6.1683Y-1.7725
X6.1683Y-1.8725
X6.1683Y-1.9725
X6.1683Y-2.0725
X6.1683Y-2.1725
X6.1683Y-2.2725
X6.1683Y-2.3725
X6.1683Y-2.4725
X6.1683Y-2.5725
X6.1683Y-2.6725
X6.1683Y-2.7725
X6.1683Y-2.8725
X6.1683Y-2.9725
X6.1683Y-3.0725
X6.8Y-4.2
X6.8Y-4.2984
X7.1682Y-2.9724
X7.1682Y-3.0724
X7.1683Y-1.2725
X7.1683Y-1.3725
X7.1683Y-1.4725
X7.1683Y-1.5725
X7.1683Y-1.6725
X7.1683Y-1.7725
X7.1683Y-1.8725
X7.1683Y-1.9725
X7.1683Y-2.0725
X7.1683Y-2.1725
X7.1683Y-2.2725
X7.1683Y-2.3725
X7.1683Y-2.4725
X7.1683Y-2.5725
X7.1683Y-2.6725
X7.1683Y-2.7725
X7.1683Y-2.8725
X7.3224Y-1.6626
X7.3224Y-1.8642
X7.6224Y-1.6626
X7.6224Y-1.8642
T3
X4.4998Y-1.7
X4.4998Y-1.8
X4.4998Y-1.9
X4.4998Y-2.0
X4.4998Y-2.2136
X4.4998Y-2.3136
X4.4998Y-3.0
X4.4998Y-3.1
X4.5762Y-3.5744
X4.5762Y-3.6744
X4.5762Y-3.7744
X4.5762Y-3.8744
X4.5762Y-3.9744
X4.5762Y-4.0744
X4.5762Y-4.1744
X4.5762Y-4.2744
X4.5762Y-4.3744
X4.5762Y-4.4744
X4.6762Y-3.5744
X4.6762Y-3.6744
X4.6762Y-3.7744
X4.6762Y-3.8744
X4.6762Y-3.9744
X4.6762Y-4.0744
X4.6762Y-4.1744
X4.6762Y-4.2744
X4.6762Y-4.3744
X4.6762Y-4.4744
X5.3Y-3.4
X5.3Y-3.5
X5.3Y-3.6
X5.3Y-3.7
X5.3Y-3.8
X5.3Y-3.9
X5.3Y-4.0
X5.3Y-4.1
X5.3Y-4.2
X5.3Y-4.3
X5.3Y-4.4
X5.3Y-4.5
X5.3Y-4.6
X5.3Y-4.7
X5.4Y-2.6
X5.4Y-2.7
X5.4Y-2.8
X5.6Y-3.4
X5.6Y-3.5
X5.6Y-3.6
X5.6Y-3.7
X5.6Y-3.8
X5.6Y-3.9
X5.6Y-4.0
X5.6Y-4.1
X5.6Y-4.2
X5.6Y-4.3
X5.6Y-4.4
X5.6Y-4.5
X5.6Y-4.6
X5.6Y-4.7
X6.1775Y-3.5744
X6.1775Y-3.6744
X6.1775Y-3.7744
X6.1775Y-3.8744
X6.1775Y-3.9744
X6.1775Y-4.0744
X6.1775Y-4.1744
X6.1775Y-4.2744
X6.1775Y-4.3744
X6.1775Y-4.4744
X6.2775Y-3.5744
X6.2775Y-3.6744
X6.2775Y-3.7744
X6.2775Y-3.8744
X6.2775Y-3.9744
X6.2775Y-4.0744
X6.2775Y-4.1744
X6.2775Y-4.2744
X6.2775Y-4.3744
X6.2775Y-4.4744
X6.9Y-3.4
X6.9Y-3.5
X6.9Y-3.6
X6.9Y-3.7
X6.9Y-3.8
X6.9Y-3.9
X6.9Y-4.0
X6.9Y-4.1
X6.9Y-4.2
X6.9Y-4.3
X6.9Y-4.4
X6.9Y-4.5
X6.9Y-4.6
X6.9Y-4.7
X7.2Y-3.4
X7.2Y-3.5
X7.2Y-3.6
X7.2Y-3.7
X7.2Y-3.8
X7.2Y-3.9
X7.2Y-4.0
X7.2Y-4.1
X7.2Y-4.2
X7.2Y-4.3
X7.2Y-4.4
X7.2Y-4.5
X7.2Y-4.6
X7.2Y-4.7
X7.7394Y-3.5744
X7.7394Y-3.6744
X7.7394Y-3.7744
X7.7394Y-3.8744
X7.7394Y-3.9744
X7.7394Y-4.0744
X7.7394Y-4.1744
X7.7394Y-4.2744
X7.7394Y-4.3744
X7.7394Y-4.4744
X7.8394Y-3.5744
X7.8394Y-3.6744
X7.8394Y-3.7744
X7.8394Y-3.8744
X7.8394Y-3.9744
X7.8394Y-4.0744
X7.8394Y-4.1744
X7.8394Y-4.2744
X7.8394Y-4.3744
X7.8394Y-4.4744
T4
X7.4167Y-2.1
X7.4167Y-2.3
X7.4167Y-2.5
X7.4167Y-2.7
T5
X4.4998Y-2.5417
X4.4998Y-2.6417
X4.4998Y-2.7417
T6
X4.5242Y-1.3976
X4.5242Y-4.9016
X7.8703Y-4.9016
X7.8707Y-1.3976
M30
